<?xml version="1.0" encoding="UTF-8" standalone="no"?>
<!-- Created with Inkscape (http://www.inkscape.org/) -->

<svg
   width="210mm"
   height="297mm"
   viewBox="0 0 210 297"
   version="1.1"
   id="svg1"
   xml:space="preserve"
   inkscape:version="1.3.2 (091e20e, 2023-11-25, custom)"
   sodipodi:docname="idle.svg"
   xmlns:inkscape="http://www.inkscape.org/namespaces/inkscape"
   xmlns:sodipodi="http://sodipodi.sourceforge.net/DTD/sodipodi-0.dtd"
   xmlns="http://www.w3.org/2000/svg"
   xmlns:svg="http://www.w3.org/2000/svg"><sodipodi:namedview
     id="namedview1"
     pagecolor="#ffffff"
     bordercolor="#000000"
     borderopacity="0.25"
     inkscape:showpageshadow="2"
     inkscape:pageopacity="0.0"
     inkscape:pagecheckerboard="0"
     inkscape:deskcolor="#d1d1d1"
     inkscape:document-units="mm"
     showgrid="false"
     inkscape:zoom="2.4818678"
     inkscape:cx="511.50993"
     inkscape:cy="102.54374"
     inkscape:window-width="1366"
     inkscape:window-height="705"
     inkscape:window-x="-8"
     inkscape:window-y="-8"
     inkscape:window-maximized="1"
     inkscape:current-layer="layer1"><inkscape:grid
       id="grid182"
       units="mm"
       originx="0"
       originy="0"
       spacingx="0.99999998"
       spacingy="1"
       empcolor="#0099e5"
       empopacity="0.30196078"
       color="#0099e5"
       opacity="0.14901961"
       empspacing="5"
       dotted="false"
       gridanglex="30"
       gridanglez="30"
       visible="false" /></sodipodi:namedview><defs
     id="defs1" /><g
     inkscape:label="Layer 1"
     inkscape:groupmode="layer"
     id="layer1"><g
       id="g59"
       transform="matrix(1.0012173,0,0,0.6249506,-44.622225,-38.387678)"
       inkscape:label="phrase1"><g
         id="g64"
         transform="matrix(1.0003724,0,0,0.83415424,-34.072526,-23.431004)"><g
           id="g182"
           inkscape:label="face"
           transform="matrix(0.84840243,0,0,1.0518876,16.535152,-8.7041881)"><path
             id="path3"
             style="fill:#a9711d;fill-opacity:1;stroke:#000000;stroke-width:0.3;stroke-opacity:1"
             d="m 128.61054,155.5804 c 0.18089,6.27543 -1.6049,12.8019 -15.23005,12.37039 -13.625147,-0.43152 -15.585863,-8.58072 -14.378281,-11.51456 1.750171,-4.25207 -4.442122,-14.69525 8.057811,-16.95371 13.41495,-2.42379 23.13968,0.71541 21.45796,16.13759"
             sodipodi:nodetypes="csssc" /><path
             style="fill:#000000;fill-opacity:1;stroke:#000000;stroke-width:0.282974;stroke-opacity:1"
             d="m 117.71686,148.8314 0.56714,0.73432 h 1.06337 l 1.27773,-0.10187 2.23069,0.25962 1.52889,0.57693 0.85217,0.46155 -0.40101,-0.80772 -1.47878,-1.12502 -1.6542,-0.46153 -1.2532,-0.0866 -1.65421,0.0289 -1.02762,0.23078 z"
             id="path10"
             sodipodi:nodetypes="cccccccccccccc" /><path
             style="fill:#dedbd8;fill-opacity:1;stroke:#000000;stroke-width:0.16186;stroke-opacity:1"
             d="m 117.73029,163.13133 c -0.44465,0.72495 -1.46634,0.7465 -1.8805,0.80485 l -2.09437,0.0719 -1.56632,-0.12176 c -0.3606,-0.0743 -1.5527,-0.0285 -1.6262,-0.68089 z"
             id="path8"
             sodipodi:nodetypes="cccccc" /><path
             style="fill:#000000;fill-opacity:1;stroke:#000000;stroke-width:0.3;stroke-opacity:1"
             d="m 109.01012,149.40514 -0.64504,0.72566 h -1.20943 l -1.45325,-0.10067 -2.53709,0.25656 -1.7389,0.57013 -0.96922,0.45611 0.4561,-0.79819 1.68189,-1.11176 1.88143,-0.45609 1.42534,-0.0855 1.88143,0.0285 1.16877,0.22805 z"
             id="path9"
             sodipodi:nodetypes="cccccccccccccc" /><g
             id="g22"
             inkscape:label="ear right"
             transform="matrix(0.88767029,0,0,0.75665303,14.794878,37.305541)"><path
               id="path17"
               style="fill:#b77c28;fill-opacity:1;stroke:#000000;stroke-width:0.385194"
               d="m 131.64323,156.903 c -0.0358,2.07517 -1.9621,3.43538 -2.91641,3.35899 -0.95431,-0.0764 -0.57561,-1.56047 -0.54113,-3.63575 0.0345,-2.07528 0.83573,-3.69727 1.79009,-3.62371 0.95436,0.0735 1.70079,1.81483 1.66762,3.89021"
               sodipodi:nodetypes="csssc" /><path
               style="fill:#b77c28;fill-opacity:1;stroke:#000000;stroke-width:0.3;stroke-opacity:1"
               d="m 129.12515,158.23952 0.10646,-1.43709 0.15967,-1.33064 0.69193,-0.6387"
               id="path21" /><path
               style="fill:#b77c28;fill-opacity:1;stroke:#000000;stroke-width:0.3;stroke-opacity:1"
               d="m 129.39128,156.80243 1.06451,-0.37258"
               id="path22" /><path
               style="fill:#321b0d;fill-opacity:1;stroke:#000000;stroke-width:0.300568;stroke-opacity:1"
               d="m 112.51812,142.10622 c -0.65763,1.28251 -0.34021,2.56504 0.30379,3.84756 l 3.08128,4.2799 4.60022,1.34016 -1.99632,-6.7873 3.12468,3.67465 3.03788,2.85326 2.43031,1.25371 -2.43031,-4.06373 -0.65097,-3.24235 3.42846,5.87945 0.95477,3.19911 0.47739,1.51309 0.69436,-1.51309 0.73778,-2.50741 0.21699,-3.37204 0.39059,3.19911 -0.0868,1.90217 0.78117,-0.86461 1.04156,-2.55065 c 0,0 0.69437,-1.9454 0.69437,-2.11833 0,-0.17293 -1.00583,-2.35468 -1.09264,-3.00315 -0.0868,-0.64847 -1.69323,-2.98011 -1.69323,-2.98011 l -1.07659,-3.35468 1.00906,2.53329 0.40845,1.47554 -0.32723,-2.90249 0.0125,-1.36573 c 0,0 -1.88398,-2.33448 -2.31797,-2.7668 -0.43399,-0.43231 -0.4624,-0.54706 -2.34352,-1.98864 -0.4405,-0.33755 -1.38874,-0.86462 -1.38874,-0.86462 l -2.95109,-0.6917 -2.6907,-0.86462 -3.03787,-0.25935 -3.47188,-0.25938 -5.98897,1.21047 -5.03422,2.42094 -3.558651,2.07511 -1.735935,3.37203 -1.82273,3.02618 0.26039,3.80435 c -0.204145,1.21048 -0.450879,2.75721 0.515516,3.63142 -0.436192,1.01526 0.199809,2.11704 0.643374,3.13528 l 4.309306,3.09002 -0.953864,-4.5825 -0.1745,-5.36068 0.173595,1.90217 0.520781,3.54497 3.037878,1.21047 -2.60389,-2.93973 c -0.836777,-1.90758 0.56591,-2.82366 1.04156,-4.15019 l 0.78116,2.24803 1.56235,3.54496 1.21515,-5.87945 c 0.25007,-1.09836 1.48513,-1.66525 2.69069,-2.24803 l 1.30197,-0.95109 c -0.90546,1.16346 -1.14469,2.37117 -0.82286,3.61613 l 0.82286,2.0904 1.04154,1.72924 1.05692,1.91792 -0.18894,-2.60961 -0.34719,-3.54496 c 0.12924,-0.70427 -0.32205,-0.79621 0.43398,-2.16156 z"
               id="path16"
               sodipodi:nodetypes="ccccccccccccccccccccssccccccsscccccccccccccccccccccccccccccccccc"
               inkscape:label="hair"
               transform="matrix(1.1265444,0,0,1.3216098,-16.667088,-49.303367)" /></g><g
             id="g20"
             inkscape:label="ear left"><path
               id="path18"
               style="fill:#b77c28;fill-opacity:1;stroke:#000000;stroke-width:0.370657"
               d="m 96.053887,157.07647 c 0.0331,2.07933 1.81316,3.44226 2.69503,3.36572 0.88187,-0.0766 0.53192,-1.5636 0.50005,-3.64303 -0.0319,-2.07944 -0.77229,-3.70468 -1.65421,-3.63097 -0.88191,0.0736 -1.57168,1.81847 -1.54103,3.898"
               sodipodi:nodetypes="csssc" /><path
               style="fill:#b77c28;fill-opacity:1;stroke:#000000;stroke-width:0.3;stroke-opacity:1"
               d="m 97.241327,155.47588 0.583644,0.1297 0.389094,0.59445 0.248589,1.14567 0.162124,1.12405"
               id="path19" /><path
               style="fill:#b77c28;fill-opacity:1;stroke:#000000;stroke-width:0.3;stroke-opacity:1"
               d="m 98.419421,157.12954 -0.605258,-0.30263 -0.30263,0.0108"
               id="path20" /></g><g
             id="g15"
             transform="translate(16.167142,-0.08645399)"><path
               style="fill:#ffffff;fill-opacity:1;stroke:#000000;stroke-width:0.3;stroke-opacity:1"
               id="path12"
               sodipodi:type="arc"
               sodipodi:cx="104.77782"
               sodipodi:cy="155.37234"
               sodipodi:rx="3.1665559"
               sodipodi:ry="2.9554522"
               sodipodi:start="0.037475209"
               sodipodi:end="0.034745446"
               sodipodi:open="true"
               sodipodi:arc-type="arc"
               d="m 107.94215,155.48308 a 3.1665559,2.9554522 0 0 1 -3.28081,2.84272 3.1665559,2.9554522 0 0 1 -3.04801,-3.06015 3.1665559,2.9554522 0 0 1 3.27665,-2.8469 3.1665559,2.9554522 0 0 1 3.05248,3.05626" /><path
               style="fill:#281508;fill-opacity:1;stroke:#000000;stroke-width:0.369011;stroke-opacity:1"
               id="path13"
               sodipodi:type="arc"
               sodipodi:cx="104.73317"
               sodipodi:cy="155.78847"
               sodipodi:rx="2.0179682"
               sodipodi:ry="1.7614051"
               sodipodi:start="0.037475209"
               sodipodi:end="0.034745446"
               sodipodi:open="true"
               sodipodi:arc-type="arc"
               d="m 106.74972,155.85446 a 2.0179682,1.7614051 0 0 1 -2.09078,1.69422 2.0179682,1.7614051 0 0 1 -1.94242,-1.8238 2.0179682,1.7614051 0 0 1 2.08813,-1.69671 2.0179682,1.7614051 0 0 1 1.94527,1.82149" /><path
               style="fill:#fffefd;fill-opacity:1;stroke:#000000;stroke-width:0.3;stroke-opacity:1"
               id="path14"
               sodipodi:type="arc"
               sodipodi:cx="105.44584"
               sodipodi:cy="155.38937"
               sodipodi:rx="0.59863818"
               sodipodi:ry="0.54162502"
               sodipodi:start="0.037475209"
               sodipodi:end="0.034745446"
               sodipodi:open="true"
               sodipodi:arc-type="arc"
               d="m 106.04406,155.40967 a 0.59863818,0.54162502 0 0 1 -0.62024,0.52096 0.59863818,0.54162502 0 0 1 -0.57623,-0.56081 0.59863818,0.54162502 0 0 1 0.61945,-0.52173 0.59863818,0.54162502 0 0 1 0.57708,0.5601" /><path
               style="fill:#000000;fill-opacity:1;stroke:#000000;stroke-width:0.3;stroke-opacity:1"
               d="m 101.14476,153.74982 2.62873,-1.13096 1.22266,-0.12227 1.34493,0.1834 1.83399,0.76417 0.85587,0.39736 -1.22267,-0.97813 -1.22266,-0.61133 -1.03926,-0.2751 -1.43663,0.0611 -0.917,0.27509 -1.19209,0.6419 z"
               id="path15" /></g><g
             id="g11"><path
               style="fill:#ffffff;fill-opacity:1;stroke:#000000;stroke-width:0.3;stroke-opacity:1"
               id="path4"
               sodipodi:type="arc"
               sodipodi:cx="104.77782"
               sodipodi:cy="155.37234"
               sodipodi:rx="3.1665559"
               sodipodi:ry="2.9554522"
               sodipodi:start="0.037475209"
               sodipodi:end="0.034745446"
               sodipodi:open="true"
               sodipodi:arc-type="arc"
               d="m 107.94215,155.48308 a 3.1665559,2.9554522 0 0 1 -3.28081,2.84272 3.1665559,2.9554522 0 0 1 -3.04801,-3.06015 3.1665559,2.9554522 0 0 1 3.27665,-2.8469 3.1665559,2.9554522 0 0 1 3.05248,3.05626" /><path
               style="fill:#281508;fill-opacity:1;stroke:#000000;stroke-width:0.369011;stroke-opacity:1"
               id="path5"
               sodipodi:type="arc"
               sodipodi:cx="104.73317"
               sodipodi:cy="155.78847"
               sodipodi:rx="2.0179682"
               sodipodi:ry="1.7614051"
               sodipodi:start="0.037475209"
               sodipodi:end="0.034745446"
               sodipodi:open="true"
               sodipodi:arc-type="arc"
               d="m 106.74972,155.85446 a 2.0179682,1.7614051 0 0 1 -2.09078,1.69422 2.0179682,1.7614051 0 0 1 -1.94242,-1.8238 2.0179682,1.7614051 0 0 1 2.08813,-1.69671 2.0179682,1.7614051 0 0 1 1.94527,1.82149" /><path
               style="fill:#fffefd;fill-opacity:1;stroke:#000000;stroke-width:0.3;stroke-opacity:1"
               id="path6"
               sodipodi:type="arc"
               sodipodi:cx="105.44584"
               sodipodi:cy="155.38937"
               sodipodi:rx="0.59863818"
               sodipodi:ry="0.54162502"
               sodipodi:start="0.037475209"
               sodipodi:end="0.034745446"
               sodipodi:open="true"
               sodipodi:arc-type="arc"
               d="m 106.04406,155.40967 a 0.59863818,0.54162502 0 0 1 -0.62024,0.52096 0.59863818,0.54162502 0 0 1 -0.57623,-0.56081 0.59863818,0.54162502 0 0 1 0.61945,-0.52173 0.59863818,0.54162502 0 0 1 0.57708,0.5601" /><path
               style="fill:#000000;fill-opacity:1;stroke:#000000;stroke-width:0.3;stroke-opacity:1"
               d="m 101.14476,153.74982 2.62873,-1.13096 1.22266,-0.12227 1.34493,0.1834 1.83399,0.76417 0.85587,0.39736 -1.22267,-0.97813 -1.22266,-0.61133 -1.03926,-0.2751 -1.43663,0.0611 -0.917,0.27509 -1.19209,0.6419 z"
               id="path11" /></g><path
             style="fill:none;fill-opacity:1;stroke:#000000;stroke-width:0.3;stroke-opacity:1"
             d="m 113.28217,157.86944 c 0.70576,0.30463 0.74115,0.5962 1.00241,1.02624 0.22078,0.50741 -0.36336,0.88068 -0.60332,1.3113"
             id="path7"
             sodipodi:nodetypes="ccc" /><g
             id="g23"
             transform="matrix(0.69890501,0,0,0.76682277,40.26556,88.460473)"><path
               id="path1"
               style="fill:#141142;fill-opacity:1;stroke:#000000;stroke-width:0.301471;stroke-opacity:1"
               d="m 129.26989,72.336656 c 0.98655,6.125722 -18.59946,2.020252 -30.094286,1.763765 -11.494826,-0.256487 -14.530261,2.467898 -18.973671,-2.762904 -4.701434,-5.534549 6.382644,-27.085093 22.997637,-27.410864 22.15108,-0.434318 30.78239,21.695328 26.48747,27.982138"
               sodipodi:nodetypes="csssc" /><path
               id="rect1"
               style="fill:#070920;fill-opacity:1;stroke:#000000;stroke-width:0.244076"
               d="m 75.887611,70.151453 55.734009,-0.416261 0.53932,4.137092 -56.273329,1.669083 z"
               sodipodi:nodetypes="ccccc" /><path
               id="path2"
               style="fill:#141142;fill-opacity:1;stroke:#000000;stroke-width:0.392576"
               d="m 138.07033,77.622893 c -0.86189,2.68863 -9.27446,-2.480521 -32.26282,-2.57949 -22.988373,-0.09897 -33.334538,6.144518 -33.368457,3.351408 -0.04624,-3.807482 8.741283,-6.818604 31.730787,-6.723305 22.9895,0.0953 33.41044,1.800806 34.36479,4.649518"
               sodipodi:nodetypes="csssc" /></g></g><path
           style="fill:#b77c28;fill-opacity:1;stroke:#000000;stroke-width:0.3;stroke-opacity:1"
           d="m 109.43803,167.52719 0.12255,2.69613 4.28928,1.71571 4.41184,-1.47061 0.12255,-2.81868 -4.04418,0.2451 -3.67653,-0.12255 z"
           id="path23" /><path
           style="fill:#ffffff;fill-opacity:1;stroke:#000000;stroke-width:0.3;stroke-opacity:1"
           d="m 113.67264,172.076 -2.98484,2.33812 -0.99495,2.88534 -3.63155,-3.18382 -1.19394,-2.08939 1.74116,-3.13409 2.88534,-0.69646 0.0498,1.9899 3.93004,1.7909 z"
           id="path24"
           sodipodi:nodetypes="cccccccccc" /><path
           style="fill:#ffffff;fill-opacity:1;stroke:#000000;stroke-width:0.3;stroke-opacity:1"
           d="m 113.77213,172.02625 3.08434,2.08939 1.29343,2.63661 3.13408,-1.69141 1.49242,-3.33307 -1.69142,-3.28333 -2.73609,-0.54722 0.0995,2.48737 z"
           id="path25"
           sodipodi:nodetypes="ccccccccc" /><path
           style="fill:#ffffff;fill-opacity:1;stroke:#000000;stroke-width:0.232927;stroke-opacity:1"
           d="m 101.28378,171.88025 c -1.07354,0 -1.491026,0.50029 -1.491026,0.50029 l -1.729586,0.80046 -1.192818,4.1024 c 0,0 -1.252459,9.30543 -1.252459,10.1059 0,0.80046 3.041686,1.00057 3.041686,1.00057 l 3.280253,-0.10006 -1.13318,-6.5038 c 0,0 0.47713,-4.60268 0.47713,-5.10297 0,-0.50029 0,-4.8028 0,-4.8028 z"
           id="path27" /><path
           style="fill:#a8701d;fill-opacity:1;stroke:#000000;stroke-width:0.3;stroke-opacity:1"
           d="m 104.77544,197.29789 -0.40555,2.28837 4.97473,0.19899 7.56159,0.199 10.54644,-1e-5 -0.70968,-2.66491 -6.65293,0.0781 -7.95957,-0.0995 z"
           id="path32"
           sodipodi:nodetypes="ccccccccc"
           transform="matrix(1.1625699,0,0,1.4250283,-19.064302,-84.54318)" /><path
           style="fill:#593602;fill-opacity:1;stroke:#000000;stroke-width:0.3;stroke-opacity:1"
           id="path33"
           sodipodi:type="arc"
           sodipodi:cx="106.97226"
           sodipodi:cy="198.36124"
           sodipodi:rx="1.0904768"
           sodipodi:ry="1.0201235"
           sodipodi:start="0.037475209"
           sodipodi:end="0.034745446"
           sodipodi:open="true"
           sodipodi:arc-type="arc"
           d="m 108.06197,198.39946 a 1.0904768,1.0201235 0 0 1 -1.12982,0.98121 1.0904768,1.0201235 0 0 1 -1.04966,-1.05626 1.0904768,1.0201235 0 0 1 1.12839,-0.98266 1.0904768,1.0201235 0 0 1 1.0512,1.05492"
           transform="matrix(1.1625699,0,0,1.4250283,-19.064302,-84.54318)" /><path
           id="path64"
           style="fill:#a9711d;fill-opacity:1;stroke:#000000;stroke-width:0.300677;stroke-opacity:1"
           d="m 129.47528,202.57982 c 0.35643,0.46919 0.60909,1.64868 0.58138,3.01544 -0.1518,1.21035 -0.15981,2.46735 -1.03759,3.44209 h -0.28821 l -0.25941,0.18707 c 0.48281,-0.99771 0.75366,-1.99541 0.72055,-2.99312 m -2.0031,3.32986 c 0.24017,-0.66099 0.67995,-1.32198 0.8734,-1.98295 l 0.40915,-1.45916 m -0.92229,0.13096 c 0,0 -0.87906,-0.13095 -0.10086,-0.0936 0.4554,0.022 0.36027,-0.78569 0.36027,-0.78569 l 0.46114,-1.64623 -0.23057,0.97277 m 2.20623,-13.96986 -0.99618,10.51138 1.00522,-10.54347 -4.23198,0.0568 -0.0519,0.0356 2.18785,-0.22412 z m -4.26963,0.10472 4.25955,-0.0735 -1.00251,10.60596 c 0.25763,0.6524 0.10218,0.9824 0.3266,1.94364 l 0.0108,1.78699 v 0.10571 c 0,0.17641 -0.70481,2.5758 -0.70481,2.5758 l -0.52919,1.65822 -1.17515,0.31717 -0.52874,-0.56424 0.76414,-2.25806 c 0,0 -0.47035,-0.63513 -0.47035,-0.77625 0,-0.19724 -0.0588,-1.48182 -0.0588,-1.48182 l -0.49953,-0.88197 -0.11727,-1.23476 z"
           sodipodi:nodetypes="ccccccccccscccccccccccccccscccccscccc"
           transform="matrix(1.1625699,0,0,1.4250283,-19.064302,-84.54318)" /><path
           style="fill:#593602;fill-opacity:1;stroke:#000000;stroke-width:0.3;stroke-opacity:1"
           id="path34"
           sodipodi:type="arc"
           sodipodi:cx="112.84676"
           sodipodi:cy="198.46678"
           sodipodi:rx="1.26636"
           sodipodi:ry="1.1256535"
           sodipodi:start="0.037475209"
           sodipodi:end="0.034745446"
           sodipodi:open="true"
           sodipodi:arc-type="arc"
           d="m 114.11223,198.50896 a 1.26636,1.1256535 0 0 1 -1.31205,1.08271 1.26636,1.1256535 0 0 1 -1.21895,-1.16553 1.26636,1.1256535 0 0 1 1.31039,-1.08431 1.26636,1.1256535 0 0 1 1.22074,1.16406"
           transform="matrix(1.1625699,0,0,1.4250283,-19.064302,-84.54318)" /><path
           style="fill:#593602;fill-opacity:1;stroke:#000000;stroke-width:0.362938;stroke-opacity:1"
           id="path35"
           sodipodi:type="arc"
           sodipodi:cx="119.4248"
           sodipodi:cy="198.71301"
           sodipodi:rx="1.2700619"
           sodipodi:ry="1.129359"
           sodipodi:start="0.037475209"
           sodipodi:end="0.034745446"
           sodipodi:open="true"
           sodipodi:arc-type="arc"
           d="m 120.69397,198.75533 a 1.2700619,1.129359 0 0 1 -1.31589,1.08628 1.2700619,1.129359 0 0 1 -1.22252,-1.16937 1.2700619,1.129359 0 0 1 1.31422,-1.08788 1.2700619,1.129359 0 0 1 1.22431,1.16788"
           transform="matrix(1.1625699,0,0,1.4250283,-19.064302,-84.54318)" /><path
           style="fill:#593602;fill-opacity:1;stroke:#000000;stroke-width:0.32687;stroke-opacity:1"
           id="path36"
           sodipodi:type="arc"
           sodipodi:cx="124.94753"
           sodipodi:cy="198.60748"
           sodipodi:rx="1.1825726"
           sodipodi:ry="1.1825703"
           sodipodi:start="0.037475209"
           sodipodi:end="0.034745446"
           sodipodi:open="true"
           sodipodi:arc-type="arc"
           d="m 126.12927,198.65179 a 1.1825726,1.1825703 0 0 1 -1.22524,1.13746 1.1825726,1.1825703 0 0 1 -1.1383,-1.22446 1.1825726,1.1825703 0 0 1 1.22369,-1.13914 1.1825726,1.1825703 0 0 1 1.13997,1.22291"
           transform="matrix(1.1625699,0,0,1.4250283,-19.064302,-84.54318)" /><rect
           style="fill:#040239;fill-opacity:1;stroke:#2845b6;stroke-width:0.230209;stroke-opacity:1"
           id="rect37"
           width="11.499495"
           height="3.751092"
           x="103.7348"
           y="214.27657"
           transform="matrix(1.1625699,0,0,1.4250283,-19.064302,-84.54318)" /><path
           id="path37"
           style="fill:#040239;fill-opacity:1;stroke:#2845b6;stroke-width:0.221022;stroke-opacity:1"
           d="m 116.27282,199.8008 10.01195,0.0415 1.69262,14.44123 -10.88365,0.007 z m -11.91493,-0.0537 11.88064,0.1405 0.40681,14.45114 -13.74979,-0.11139 z"
           sodipodi:nodetypes="cccccccccc"
           transform="matrix(1.1625699,0,0,1.4250283,-19.064302,-84.54318)" /><rect
           style="fill:#040239;fill-opacity:1;stroke:#2845b6;stroke-width:0.224746;stroke-opacity:1"
           id="rect38"
           width="10.941672"
           height="3.7574396"
           x="117.26618"
           y="214.27338"
           transform="matrix(1.1625699,0,0,1.4250283,-19.064302,-84.54318)" /><g
           id="g43"
           transform="matrix(1.1625699,0,0,1.4250283,-19.064302,-84.54318)"><rect
             style="fill:#ffffff;fill-opacity:1;stroke:#000000;stroke-width:0.225949;stroke-opacity:1"
             id="rect40"
             width="5.4923787"
             height="6.12569"
             x="106.71109"
             y="231.33264" /><path
             style="fill:#a9711d;fill-opacity:1;stroke:#000000;stroke-width:0.3;stroke-opacity:1"
             d="m 105.55186,217.85904 0.98515,13.65137 5.66643,-0.18722 1.19419,-13.28528 z"
             id="path43" /></g><path
           id="path63"
           style="fill:#a9711d;fill-opacity:1;stroke:#000000;stroke-width:0.3;stroke-opacity:1"
           d="m 53.526195,91.381233 c -0.405176,0.410878 -0.692405,1.443775 -0.660905,2.640668 0.172551,1.059922 0.181668,2.160702 1.179511,3.014301 h 0.327641 l 0.294879,0.163822 C 54.11848,96.326313 53.810572,95.452603 53.848216,94.578892 m 2.277109,2.91601 c -0.273035,-0.578833 -0.77296,-1.157667 -0.992863,-1.7365 L 54.667321,94.4806 m 1.048453,0.114676 c 0,0 0.999304,-0.114673 0.114674,-0.08191 -0.517694,0.01917 -0.409552,-0.688047 -0.409552,-0.688047 l -0.524227,-1.441625 0.262113,0.851868 m -2.508003,-12.23364 1.132437,9.204993 -1.142718,-9.233094 4.810854,0.0497 0.05904,0.03116 -2.487117,-0.196268 z m 4.85364,0.0917 -4.842181,-0.06437 1.139634,9.28782 c -0.292873,0.571325 -0.11622,0.860304 -0.371276,1.702085 l -0.01124,1.56489 v 0.09258 c 0,0.154478 0.801222,2.255669 0.801222,2.255669 l 0.601576,1.452126 1.335898,0.277756 0.601049,-0.494113 -0.86865,-1.977425 c 0,0 0.534675,-0.556187 0.534675,-0.67977 0,-0.172728 0.0669,-1.297655 0.0669,-1.297655 l 0.567862,-0.772356 0.133273,-1.081298 z"
           sodipodi:nodetypes="ccccccccccscccccccccccccccscccccscccc"
           transform="matrix(0.99874738,0,0,1.6276565,44.569253,57.002215)" /><g
           id="g46"
           transform="matrix(1.1625699,0,0,1.4250283,-2.6358347,-84.301572)"
           inkscape:label="g46"><rect
             style="fill:#ffffff;fill-opacity:1;stroke:#000000;stroke-width:0.225949;stroke-opacity:1"
             id="rect43"
             width="5.4923787"
             height="6.12569"
             x="106.71109"
             y="231.33264" /><path
             style="fill:#a9711d;fill-opacity:1;stroke:#000000;stroke-width:0.3;stroke-opacity:1"
             d="m 105.55186,217.85904 0.98515,13.65137 5.66643,-0.18722 1.19419,-13.28528 z"
             id="path46" /></g><path
           style="fill:#ffffff;fill-opacity:1;stroke:#000000;stroke-width:0.3;stroke-opacity:1"
           d="m 108.26215,200.93131 -1.29268,2.2622 -1.85823,0.0808 v -0.40396 l 1.45426,-0.0808 1.05031,-2.18141 z"
           id="path47"
           transform="matrix(1.1625699,0,0,1.4250283,-19.064302,-84.54318)" /><path
           style="fill:#ffffff;fill-opacity:1;stroke:#000000;stroke-width:0.293583;stroke-opacity:1"
           d="m 123.77632,200.97289 1.10269,2.53976 1.58511,0.0907 v -0.45351 l -1.24051,-0.0907 -0.89594,-2.44905 z"
           id="path48"
           transform="matrix(1.1625699,0,0,1.4250283,-19.064302,-84.54318)" /><path
           style="fill:#ffffff;fill-opacity:1;stroke:#000000;stroke-width:0.3;stroke-opacity:1"
           d="m 105.1161,171.32979 -4.6265,0.74621 0.39797,4.97473 c 0,0 0.34824,-1.94015 -0.8457,4.22853 -0.0964,0.49807 2.89537,15.38047 2.89537,15.38047 l 9.29272,0.73766 8.15857,0.0995 7.75912,-0.40507 0.20044,-14.91712 10e-6,-0.0995 -1.19394,-5.4722 1.59192,-6.06918 -6.86513,-0.59696 0.79595,1.49242 -1.6914,3.6813 -2.98485,1.69141 -1.38999,-2.88853 -2.84931,-1.89954 -3.09554,2.42719 -0.94977,3.09555 -3.65838,-3.41214 -1.30153,-2.28648 z"
           id="path26"
           sodipodi:nodetypes="cccsccccccccccccccccccc"
           transform="translate(-1.1652053e-6)" /><path
           style="fill:#ffffff;fill-opacity:1;stroke:#000000;stroke-width:0.245978;stroke-opacity:1"
           d="m 96.036055,184.91856 5.305995,0.79897 c 0,0 0.93294,2.73925 0.46647,2.96752 -0.46647,0.22827 -2.857077,0.22827 -2.857077,0.22827 l -2.274003,-0.57069 -1.107845,-0.6848 z"
           id="path28" /><path
           style="fill:#ffffff;fill-opacity:1;stroke:#000000;stroke-width:0.231622;stroke-opacity:1"
           d="m 127.39504,170.28895 h 1.47502 l 1.47501,2.50033 1.77002,5.5007 0.354,6.90089 -5.31005,0.40006 v 2.4003 l 5.07405,-0.60006 v -2.40032 l -5.13305,0.50007 -0.11795,-3.60047 -0.59001,-5.20067 z"
           id="path29" /><path
           style="fill:#ffffff;fill-opacity:1;stroke:#000000;stroke-width:0.3;stroke-opacity:1"
           d="m 118.93233,178.3809 0.24623,1.96989 3.7639,1.47742 3.58802,-1.86437 -0.1407,-1.68847 z"
           id="path30"
           sodipodi:nodetypes="cccccc" /><path
           style="fill:#ffffff;fill-opacity:1;stroke:#000000;stroke-width:0.3;stroke-opacity:1"
           d="m 119.4248,180.70256 0.17588,3.1659 3.65837,1.12565 3.09555,-1.44224 0.0352,-3.37696 -3.37696,1.68848 z"
           id="path31" /><g
           id="g52"
           style="fill:#382929;fill-opacity:1"><path
             id="path44"
             style="fill:#382929;fill-opacity:1;stroke:#000000;stroke-width:0.3"
             inkscape:transform-center-x="-0.051331323"
             inkscape:transform-center-y="0.0084140617"
             transform="matrix(0.60964305,0,0,0.63423768,60.312636,108.1548)"
             d="m 112.02571,237.42132 c 3.82954,5.4059 2.59734,9.03921 -5.93558,9.5001 -8.532915,0.46089 -10.252365,-3.4464 -6.993082,-8.80179 4.453892,-7.31827 7.982042,-7.68111 12.928662,-0.69831 z"
             sodipodi:nodetypes="ssss" /><path
             style="fill:#382929;fill-opacity:1;stroke:#000000;stroke-width:0.3;stroke-opacity:1"
             d="m 106.71293,237.73797 -1.40736,4.57392 1.60428,-2.32841 1.25954,-0.68556 1.05949,-0.23432 0.97182,0.0325 0.8728,0.25294 0.68086,0.46159 0.81633,0.71111 1.07348,1.28 -1.44254,-4.32763 -2.69157,-0.0528 -2.70917,0.0176 z"
             id="path45"
             sodipodi:nodetypes="cccccccccccccc"
             transform="matrix(1.1625699,0,0,1.4250283,-2.6358339,-84.301576)" /><path
             style="fill:#382929;fill-opacity:1;stroke:#000000;stroke-width:0.247364;stroke-opacity:1"
             d="m 122.04003,255.71219 c 1.6118,-0.25862 3.35283,-0.48979 5.37077,-0.0652 v 0.71774 l -2.70484,-0.522 -2.627,0.61984 z"
             id="path49"
             sodipodi:nodetypes="cccccc" /><path
             style="fill:#382929;fill-opacity:1;stroke:#000000;stroke-width:0.237843;stroke-opacity:1"
             d="m 122.01169,254.68836 c 1.61491,-0.23863 3.35929,-0.45194 5.38112,-0.0602 v 0.66227 l -2.71005,-0.48166 -2.63206,0.57195 z"
             id="path50"
             sodipodi:nodetypes="cccccc" /><path
             style="fill:#382929;fill-opacity:1;stroke:#000000;stroke-width:0.3;stroke-opacity:1"
             d="m 119.8513,262.27711 1.70374,0.9174 2.78495,0.0655 4.35764,-0.39317 1.07302,-1.04845 0.0383,0.78815 -0.57919,0.88037 -0.9383,0.62553 -1.6449,0.47493 -1.34374,0.17378 -2.17777,-0.0233 -1.1468,-0.19693 -0.97305,-0.45177 -0.84562,-0.67186 -0.31276,-0.66029 z"
             id="path51"
             sodipodi:nodetypes="cccccccccccccccc" /><path
             style="fill:#382929;fill-opacity:1;stroke:#000000;stroke-width:0.3;stroke-opacity:1"
             d="m 119.87588,261.65459 -0.0248,0.53242 0.1966,0.22116 1.41705,0.77815 1.8266,0.0491 2.44912,-0.0983 3.03887,-0.2703 1.04026,-0.95016 -0.17209,-0.66348 -0.95836,0.80273 -0.74538,0.31945 -6.11052,0.19658 -1.21227,-0.48327 z"
             id="path52"
             sodipodi:nodetypes="cccccccccccccc" /></g><g
           id="g58"
           transform="translate(-16.316553,-0.2621133)"
           style="fill:#382929;fill-opacity:1"><path
             id="path53"
             style="fill:#382929;fill-opacity:1;stroke:#000000;stroke-width:0.3"
             inkscape:transform-center-x="-0.051331323"
             inkscape:transform-center-y="0.0084140617"
             transform="matrix(0.60964305,0,0,0.63423768,60.312636,108.1548)"
             d="m 112.02571,237.42132 c 3.82954,5.4059 2.59734,9.03921 -5.93558,9.5001 -8.532915,0.46089 -10.252365,-3.4464 -6.993082,-8.80179 4.453892,-7.31827 7.982042,-7.68111 12.928662,-0.69831 z"
             sodipodi:nodetypes="ssss" /><path
             style="fill:#382929;fill-opacity:1;stroke:#000000;stroke-width:0.3;stroke-opacity:1"
             d="m 106.71293,237.73797 -1.40736,4.57392 1.60428,-2.32841 1.25954,-0.68556 1.05949,-0.23432 0.97182,0.0325 0.8728,0.25294 0.68086,0.46159 0.81633,0.71111 1.07348,1.28 -1.44254,-4.32763 -2.69157,-0.0528 -2.70917,0.0176 z"
             id="path54"
             sodipodi:nodetypes="cccccccccccccc"
             transform="matrix(1.1625699,0,0,1.4250283,-2.6358339,-84.301576)" /><path
             style="fill:#382929;fill-opacity:1;stroke:#000000;stroke-width:0.247364;stroke-opacity:1"
             d="m 122.04003,255.71219 c 1.6118,-0.25862 3.35283,-0.48979 5.37077,-0.0652 v 0.71774 l -2.70484,-0.522 -2.627,0.61984 z"
             id="path55"
             sodipodi:nodetypes="cccccc" /><path
             style="fill:#382929;fill-opacity:1;stroke:#000000;stroke-width:0.237843;stroke-opacity:1"
             d="m 122.01169,254.68836 c 1.61491,-0.23863 3.35929,-0.45194 5.38112,-0.0602 v 0.66227 l -2.71005,-0.48166 -2.63206,0.57195 z"
             id="path56"
             sodipodi:nodetypes="cccccc" /><path
             style="fill:#382929;fill-opacity:1;stroke:#000000;stroke-width:0.3;stroke-opacity:1"
             d="m 119.8513,262.27711 1.70374,0.9174 2.78495,0.0655 4.35764,-0.39317 1.07302,-1.04845 0.0383,0.78815 -0.57919,0.88037 -0.9383,0.62553 -1.6449,0.47493 -1.34374,0.17378 -2.17777,-0.0233 -1.1468,-0.19693 -0.97305,-0.45177 -0.84562,-0.67186 -0.31276,-0.66029 z"
             id="path57"
             sodipodi:nodetypes="cccccccccccccccc" /><path
             style="fill:#382929;fill-opacity:1;stroke:#000000;stroke-width:0.3;stroke-opacity:1"
             d="m 119.87588,261.65459 -0.0248,0.53242 0.1966,0.22116 1.41705,0.77815 1.8266,0.0491 2.44912,-0.0983 3.03887,-0.2703 1.04026,-0.95016 -0.17209,-0.66348 -0.95836,0.80273 -0.74538,0.31945 -6.11052,0.19658 -1.21227,-0.48327 z"
             id="path58"
             sodipodi:nodetypes="cccccccccccccc" /></g></g></g><g
       id="g122"
       transform="matrix(1.0012542,0,0,0.61438027,15.518688,-35.74899)"
       inkscape:label="phrase2"><g
         id="g121"
         transform="matrix(1.0003724,0,0,0.83415424,-34.072526,-23.431004)"><g
           id="g124"
           inkscape:label="head"
           transform="matrix(0.86892562,0.10173097,-0.02119974,1.0915923,18.158315,-28.889802)"><g
             id="g123"
             inkscape:label="face"><path
               id="path65"
               style="fill:#a9711d;fill-opacity:1;stroke:#000000;stroke-width:0.3;stroke-opacity:1"
               d="m 128.61054,155.5804 c 0.18089,6.27543 -1.6049,12.8019 -15.23005,12.37039 -13.625147,-0.43152 -15.585863,-8.58072 -14.378281,-11.51456 1.750171,-4.25207 -4.442122,-14.69525 8.057811,-16.95371 13.41495,-2.42379 23.13968,0.71541 21.45796,16.13759"
               sodipodi:nodetypes="csssc" /><g
               id="g69"><path
                 style="fill:#ffffff;fill-opacity:1;stroke:#000000;stroke-width:0.3;stroke-opacity:1"
                 id="path66"
                 sodipodi:type="arc"
                 sodipodi:cx="104.77782"
                 sodipodi:cy="155.37234"
                 sodipodi:rx="3.1665559"
                 sodipodi:ry="2.9554522"
                 sodipodi:start="0.037475209"
                 sodipodi:end="0.034745446"
                 sodipodi:open="true"
                 sodipodi:arc-type="arc"
                 d="m 107.94215,155.48308 a 3.1665559,2.9554522 0 0 1 -3.28081,2.84272 3.1665559,2.9554522 0 0 1 -3.04801,-3.06015 3.1665559,2.9554522 0 0 1 3.27665,-2.8469 3.1665559,2.9554522 0 0 1 3.05248,3.05626" /><path
                 style="fill:#281508;fill-opacity:1;stroke:#000000;stroke-width:0.369011;stroke-opacity:1"
                 id="path67"
                 sodipodi:type="arc"
                 sodipodi:cx="104.73317"
                 sodipodi:cy="155.78847"
                 sodipodi:rx="2.0179682"
                 sodipodi:ry="1.7614051"
                 sodipodi:start="0.037475209"
                 sodipodi:end="0.034745446"
                 sodipodi:open="true"
                 sodipodi:arc-type="arc"
                 d="m 106.74972,155.85446 a 2.0179682,1.7614051 0 0 1 -2.09078,1.69422 2.0179682,1.7614051 0 0 1 -1.94242,-1.8238 2.0179682,1.7614051 0 0 1 2.08813,-1.69671 2.0179682,1.7614051 0 0 1 1.94527,1.82149" /><path
                 style="fill:#fffefd;fill-opacity:1;stroke:#000000;stroke-width:0.3;stroke-opacity:1"
                 id="path68"
                 sodipodi:type="arc"
                 sodipodi:cx="105.44584"
                 sodipodi:cy="155.38937"
                 sodipodi:rx="0.59863818"
                 sodipodi:ry="0.54162502"
                 sodipodi:start="0.037475209"
                 sodipodi:end="0.034745446"
                 sodipodi:open="true"
                 sodipodi:arc-type="arc"
                 d="m 106.04406,155.40967 a 0.59863818,0.54162502 0 0 1 -0.62024,0.52096 0.59863818,0.54162502 0 0 1 -0.57623,-0.56081 0.59863818,0.54162502 0 0 1 0.61945,-0.52173 0.59863818,0.54162502 0 0 1 0.57708,0.5601" /><path
                 style="fill:#000000;fill-opacity:1;stroke:#000000;stroke-width:0.3;stroke-opacity:1"
                 d="m 101.14476,153.74982 2.62873,-1.13096 1.22266,-0.12227 1.34493,0.1834 1.83399,0.76417 0.85587,0.39736 -1.22267,-0.97813 -1.22266,-0.61133 -1.03926,-0.2751 -1.43663,0.0611 -0.917,0.27509 -1.19209,0.6419 z"
                 id="path69" /></g><g
               id="g77"
               transform="translate(16.167142,-0.0864553)"><path
                 style="fill:#ffffff;fill-opacity:1;stroke:#000000;stroke-width:0.3;stroke-opacity:1"
                 id="path74"
                 sodipodi:type="arc"
                 sodipodi:cx="104.77782"
                 sodipodi:cy="155.37234"
                 sodipodi:rx="3.1665559"
                 sodipodi:ry="2.9554522"
                 sodipodi:start="0.037475209"
                 sodipodi:end="0.034745446"
                 sodipodi:open="true"
                 sodipodi:arc-type="arc"
                 d="m 107.94215,155.48308 a 3.1665559,2.9554522 0 0 1 -3.28081,2.84272 3.1665559,2.9554522 0 0 1 -3.04801,-3.06015 3.1665559,2.9554522 0 0 1 3.27665,-2.8469 3.1665559,2.9554522 0 0 1 3.05248,3.05626" /><path
                 style="fill:#281508;fill-opacity:1;stroke:#000000;stroke-width:0.369011;stroke-opacity:1"
                 id="path75"
                 sodipodi:type="arc"
                 sodipodi:cx="104.73317"
                 sodipodi:cy="155.78847"
                 sodipodi:rx="2.0179682"
                 sodipodi:ry="1.7614051"
                 sodipodi:start="0.037475209"
                 sodipodi:end="0.034745446"
                 sodipodi:open="true"
                 sodipodi:arc-type="arc"
                 d="m 106.74972,155.85446 a 2.0179682,1.7614051 0 0 1 -2.09078,1.69422 2.0179682,1.7614051 0 0 1 -1.94242,-1.8238 2.0179682,1.7614051 0 0 1 2.08813,-1.69671 2.0179682,1.7614051 0 0 1 1.94527,1.82149" /><path
                 style="fill:#fffefd;fill-opacity:1;stroke:#000000;stroke-width:0.3;stroke-opacity:1"
                 id="path76"
                 sodipodi:type="arc"
                 sodipodi:cx="105.44584"
                 sodipodi:cy="155.38937"
                 sodipodi:rx="0.59863818"
                 sodipodi:ry="0.54162502"
                 sodipodi:start="0.037475209"
                 sodipodi:end="0.034745446"
                 sodipodi:open="true"
                 sodipodi:arc-type="arc"
                 d="m 106.04406,155.40967 a 0.59863818,0.54162502 0 0 1 -0.62024,0.52096 0.59863818,0.54162502 0 0 1 -0.57623,-0.56081 0.59863818,0.54162502 0 0 1 0.61945,-0.52173 0.59863818,0.54162502 0 0 1 0.57708,0.5601" /><path
                 style="fill:#000000;fill-opacity:1;stroke:#000000;stroke-width:0.3;stroke-opacity:1"
                 d="m 101.14476,153.74982 2.62873,-1.13096 1.22266,-0.12227 1.34493,0.1834 1.83399,0.76417 0.85587,0.39736 -1.22267,-0.97813 -1.22266,-0.61133 -1.03926,-0.2751 -1.43663,0.0611 -0.917,0.27509 -1.19209,0.6419 z"
                 id="path77" /></g><path
               style="fill:#000000;fill-opacity:1;stroke:#000000;stroke-width:0.282974;stroke-opacity:1"
               d="m 117.71686,148.8314 0.56714,0.73432 h 1.06337 l 1.27773,-0.10187 2.23069,0.25962 1.52889,0.57693 0.85217,0.46155 -0.40101,-0.80772 -1.47878,-1.12502 -1.6542,-0.46153 -1.2532,-0.0866 -1.65421,0.0289 -1.02762,0.23078 z"
               id="path73"
               sodipodi:nodetypes="cccccccccccccc" /><path
               style="fill:#000000;fill-opacity:1;stroke:#000000;stroke-width:0.3;stroke-opacity:1"
               d="m 109.01012,149.40514 -0.64504,0.72566 h -1.20943 l -1.45325,-0.10067 -2.53709,0.25656 -1.7389,0.57013 -0.96922,0.45611 0.4561,-0.79819 1.68189,-1.11176 1.88143,-0.45609 1.42534,-0.0855 1.88143,0.0285 1.16877,0.22805 z"
               id="path72"
               sodipodi:nodetypes="cccccccccccccc" /><path
               style="fill:#dedbd8;fill-opacity:1;stroke:#000000;stroke-width:0.16186;stroke-opacity:1"
               d="m 117.73029,163.13133 c -0.44465,0.72495 -1.46634,0.7465 -1.8805,0.80485 l -2.09437,0.0719 -1.56632,-0.12176 c -0.3606,-0.0743 -1.5527,-0.0285 -1.6262,-0.68089 z"
               id="path71"
               sodipodi:nodetypes="cccccc" /><path
               style="fill:none;fill-opacity:1;stroke:#000000;stroke-width:0.3;stroke-opacity:1"
               d="m 113.28217,157.86944 c 0.70576,0.30463 0.74115,0.5962 1.00241,1.02624 0.22078,0.50741 -0.36336,0.88068 -0.60332,1.3113"
               id="path70"
               sodipodi:nodetypes="ccc" /></g><g
             id="g80"
             inkscape:label="ear left"><path
               id="path78"
               style="fill:#b77c28;fill-opacity:1;stroke:#000000;stroke-width:0.370657"
               d="m 96.053887,157.07647 c 0.0331,2.07933 1.81316,3.44226 2.69503,3.36572 0.88187,-0.0766 0.53192,-1.5636 0.50005,-3.64303 -0.0319,-2.07944 -0.77229,-3.70468 -1.65421,-3.63097 -0.88191,0.0736 -1.57168,1.81847 -1.54103,3.898"
               sodipodi:nodetypes="csssc" /><path
               style="fill:#b77c28;fill-opacity:1;stroke:#000000;stroke-width:0.3;stroke-opacity:1"
               d="m 97.241327,155.47588 0.583644,0.1297 0.389094,0.59445 0.248589,1.14567 0.162124,1.12405"
               id="path79" /><path
               style="fill:#b77c28;fill-opacity:1;stroke:#000000;stroke-width:0.3;stroke-opacity:1"
               d="m 98.419421,157.12954 -0.605258,-0.30263 -0.30263,0.0108"
               id="path80" /></g><g
             id="g84"
             inkscape:label="ear right"
             transform="matrix(0.88767028,0,0,0.75665301,14.794879,37.305541)"><path
               id="path81"
               style="fill:#b77c28;fill-opacity:1;stroke:#000000;stroke-width:0.385194"
               d="m 131.64323,156.903 c -0.0358,2.07517 -1.9621,3.43538 -2.91641,3.35899 -0.95431,-0.0764 -0.57561,-1.56047 -0.54113,-3.63575 0.0345,-2.07528 0.83573,-3.69727 1.79009,-3.62371 0.95436,0.0735 1.70079,1.81483 1.66762,3.89021"
               sodipodi:nodetypes="csssc" /><path
               style="fill:#b77c28;fill-opacity:1;stroke:#000000;stroke-width:0.3;stroke-opacity:1"
               d="m 129.12515,158.23952 0.10646,-1.43709 0.15967,-1.33064 0.69193,-0.6387"
               id="path82" /><path
               style="fill:#b77c28;fill-opacity:1;stroke:#000000;stroke-width:0.3;stroke-opacity:1"
               d="m 129.39128,156.80243 1.06451,-0.37258"
               id="path83" /><path
               style="fill:#321b0d;fill-opacity:1;stroke:#000000;stroke-width:0.300568;stroke-opacity:1"
               d="m 112.51812,142.10622 c -0.65763,1.28251 -0.34021,2.56504 0.30379,3.84756 l 3.08128,4.2799 4.60022,1.34016 -1.99632,-6.7873 3.12468,3.67465 3.03788,2.85326 2.43031,1.25371 -2.43031,-4.06373 -0.65097,-3.24235 3.42846,5.87945 0.95477,3.19911 0.47739,1.51309 0.69436,-1.51309 0.73778,-2.50741 0.21699,-3.37204 0.39059,3.19911 -0.0868,1.90217 0.78117,-0.86461 1.04156,-2.55065 c 0,0 0.69437,-1.9454 0.69437,-2.11833 0,-0.17293 -1.00583,-2.35468 -1.09264,-3.00315 -0.0868,-0.64847 -1.69323,-2.98011 -1.69323,-2.98011 l -1.07659,-3.35468 1.00906,2.53329 0.40845,1.47554 -0.32723,-2.90249 0.0125,-1.36573 c 0,0 -1.88398,-2.33448 -2.31797,-2.7668 -0.43399,-0.43231 -0.4624,-0.54706 -2.34352,-1.98864 -0.4405,-0.33755 -1.38874,-0.86462 -1.38874,-0.86462 l -2.95109,-0.6917 -2.6907,-0.86462 -3.03787,-0.25935 -3.47188,-0.25938 -5.98897,1.21047 -5.03422,2.42094 -3.558651,2.07511 -1.735935,3.37203 -1.82273,3.02618 0.26039,3.80435 c -0.204145,1.21048 -0.450879,2.75721 0.515516,3.63142 -0.436192,1.01526 0.199809,2.11704 0.643374,3.13528 l 4.309306,3.09002 -0.953864,-4.5825 -0.1745,-5.36068 0.173595,1.90217 0.520781,3.54497 3.037878,1.21047 -2.60389,-2.93973 c -0.836777,-1.90758 0.56591,-2.82366 1.04156,-4.15019 l 0.78116,2.24803 1.56235,3.54496 1.21515,-5.87945 c 0.25007,-1.09836 1.48513,-1.66525 2.69069,-2.24803 l 1.30197,-0.95109 c -0.90546,1.16346 -1.14469,2.37117 -0.82286,3.61613 l 0.82286,2.0904 1.04154,1.72924 1.05692,1.91792 -0.18894,-2.60961 -0.34719,-3.54496 c 0.12924,-0.70427 -0.32205,-0.79621 0.43398,-2.16156 z"
               id="path84"
               sodipodi:nodetypes="ccccccccccccccccccccssccccccsscccccccccccccccccccccccccccccccccc"
               inkscape:label="hair"
               transform="matrix(1.1265444,0,0,1.3216098,-16.667088,-49.303367)" /></g><g
             id="g87"
             transform="matrix(0.69890501,0,0,0.76682276,40.26556,88.460473)"
             inkscape:label="hat"><path
               id="path85"
               style="fill:#141142;fill-opacity:1;stroke:#000000;stroke-width:0.301471;stroke-opacity:1"
               d="m 129.26989,72.336656 c 0.98655,6.125722 -18.59946,2.020252 -30.094286,1.763765 -11.494826,-0.256487 -14.530261,2.467898 -18.973671,-2.762904 -4.701434,-5.534549 6.382644,-27.085093 22.997637,-27.410864 22.15108,-0.434318 30.78239,21.695328 26.48747,27.982138"
               sodipodi:nodetypes="csssc" /><path
               id="path86"
               style="fill:#070920;fill-opacity:1;stroke:#000000;stroke-width:0.244076"
               d="m 75.887611,70.151453 55.734009,-0.416261 0.53932,4.137092 -56.273329,1.669083 z"
               sodipodi:nodetypes="ccccc" /><path
               id="path87"
               style="fill:#141142;fill-opacity:1;stroke:#000000;stroke-width:0.392576"
               d="m 138.07033,77.622893 c -0.86189,2.68863 -9.27446,-2.480521 -32.26282,-2.57949 -22.988373,-0.09897 -33.334538,6.144518 -33.368457,3.351408 -0.04624,-3.807482 8.741283,-6.818604 31.730787,-6.723305 22.9895,0.0953 33.41044,1.800806 34.36479,4.649518"
               sodipodi:nodetypes="csssc" /></g></g><path
           style="fill:#b77c28;fill-opacity:1;stroke:#000000;stroke-width:0.356089;stroke-opacity:1"
           d="m 109.45988,165.31136 0.12195,4.91297 4.26833,1.70104 4.39028,-2.08209 0.12196,-3.99069 -4.02443,0.34701 -3.58331,-0.76186 z"
           id="path88"
           sodipodi:nodetypes="cccccccc" /><path
           style="fill:#ffffff;fill-opacity:1;stroke:#000000;stroke-width:0.3;stroke-opacity:1"
           d="m 113.67264,172.076 -2.98484,2.33812 -0.99495,2.88534 -3.63155,-3.18382 -1.19394,-2.08939 1.74116,-3.13409 2.88534,-2.82928 0.0498,4.12272 3.93004,1.7909 z"
           id="path89"
           sodipodi:nodetypes="cccccccccc" /><path
           style="fill:#ffffff;fill-opacity:1;stroke:#000000;stroke-width:0.3;stroke-opacity:1"
           d="m 113.77213,172.02625 3.08434,2.08939 1.29343,2.63661 3.13408,-1.69141 1.49242,-3.33307 -1.69142,-4.09233 -2.77372,-1.28267 0.13713,4.03182 z"
           id="path90"
           sodipodi:nodetypes="ccccccccc" /><path
           style="fill:#ffffff;fill-opacity:1;stroke:#000000;stroke-width:0.232927;stroke-opacity:1"
           d="m 101.28378,171.88025 c -1.07354,0 -1.491026,0.50029 -1.491026,0.50029 l -1.729586,0.80046 -1.192818,4.1024 c 0,0 -1.252459,9.30543 -1.252459,10.1059 0,0.80046 3.041686,1.00057 3.041686,1.00057 l 3.280253,-0.10006 -1.13318,-6.5038 c 0,0 0.47713,-4.60268 0.47713,-5.10297 0,-0.50029 0,-4.8028 0,-4.8028 z"
           id="path91" /><path
           style="fill:#a8701d;fill-opacity:1;stroke:#000000;stroke-width:0.3;stroke-opacity:1"
           d="m 104.77544,197.29789 -0.40555,2.28837 4.97473,0.19899 7.56159,0.199 10.54644,-1e-5 -0.70968,-2.66491 -6.65293,0.0781 -7.95957,-0.0995 z"
           id="path92"
           sodipodi:nodetypes="ccccccccc"
           transform="matrix(1.1625699,0,0,1.4250283,-19.064302,-84.54318)" /><path
           style="fill:#593602;fill-opacity:1;stroke:#000000;stroke-width:0.3;stroke-opacity:1"
           id="path93"
           sodipodi:type="arc"
           sodipodi:cx="106.97226"
           sodipodi:cy="198.36124"
           sodipodi:rx="1.0904768"
           sodipodi:ry="1.0201235"
           sodipodi:start="0.037475209"
           sodipodi:end="0.034745446"
           sodipodi:open="true"
           sodipodi:arc-type="arc"
           d="m 108.06197,198.39946 a 1.0904768,1.0201235 0 0 1 -1.12982,0.98121 1.0904768,1.0201235 0 0 1 -1.04966,-1.05626 1.0904768,1.0201235 0 0 1 1.12839,-0.98266 1.0904768,1.0201235 0 0 1 1.0512,1.05492"
           transform="matrix(1.1625699,0,0,1.4250283,-19.064302,-84.54318)" /><path
           id="path94"
           style="fill:#a9711d;fill-opacity:1;stroke:#000000;stroke-width:0.300677;stroke-opacity:1"
           d="m 129.47528,202.57982 c 0.35643,0.46919 0.60909,1.64868 0.58138,3.01544 -0.1518,1.21035 -0.15981,2.46735 -1.03759,3.44209 h -0.28821 l -0.25941,0.18707 c 0.48281,-0.99771 0.75366,-1.99541 0.72055,-2.99312 m -2.0031,3.32986 c 0.24017,-0.66099 0.67995,-1.32198 0.8734,-1.98295 l 0.40915,-1.45916 m -0.92229,0.13096 c 0,0 -0.87906,-0.13095 -0.10086,-0.0936 0.4554,0.022 0.36027,-0.78569 0.36027,-0.78569 l 0.46114,-1.64623 -0.23057,0.97277 m 2.20623,-13.96986 -0.99618,10.51138 1.00522,-10.54347 -4.23198,0.0568 -0.0519,0.0356 2.18785,-0.22412 z m -4.26963,0.10472 4.25955,-0.0735 -1.00251,10.60596 c 0.25763,0.6524 0.10218,0.9824 0.3266,1.94364 l 0.0108,1.78699 v 0.10571 c 0,0.17641 -0.70481,2.5758 -0.70481,2.5758 l -0.52919,1.65822 -1.17515,0.31717 -0.52874,-0.56424 0.76414,-2.25806 c 0,0 -0.47035,-0.63513 -0.47035,-0.77625 0,-0.19724 -0.0588,-1.48182 -0.0588,-1.48182 l -0.49953,-0.88197 -0.11727,-1.23476 z"
           sodipodi:nodetypes="ccccccccccscccccccccccccccscccccscccc"
           transform="matrix(1.1625699,0,0,1.4250283,-19.064302,-84.54318)" /><path
           style="fill:#593602;fill-opacity:1;stroke:#000000;stroke-width:0.3;stroke-opacity:1"
           id="path95"
           sodipodi:type="arc"
           sodipodi:cx="112.84676"
           sodipodi:cy="198.46678"
           sodipodi:rx="1.26636"
           sodipodi:ry="1.1256535"
           sodipodi:start="0.037475209"
           sodipodi:end="0.034745446"
           sodipodi:open="true"
           sodipodi:arc-type="arc"
           d="m 114.11223,198.50896 a 1.26636,1.1256535 0 0 1 -1.31205,1.08271 1.26636,1.1256535 0 0 1 -1.21895,-1.16553 1.26636,1.1256535 0 0 1 1.31039,-1.08431 1.26636,1.1256535 0 0 1 1.22074,1.16406"
           transform="matrix(1.1625699,0,0,1.4250283,-19.064302,-84.54318)" /><path
           style="fill:#593602;fill-opacity:1;stroke:#000000;stroke-width:0.362938;stroke-opacity:1"
           id="path96"
           sodipodi:type="arc"
           sodipodi:cx="119.4248"
           sodipodi:cy="198.71301"
           sodipodi:rx="1.2700619"
           sodipodi:ry="1.129359"
           sodipodi:start="0.037475209"
           sodipodi:end="0.034745446"
           sodipodi:open="true"
           sodipodi:arc-type="arc"
           d="m 120.69397,198.75533 a 1.2700619,1.129359 0 0 1 -1.31589,1.08628 1.2700619,1.129359 0 0 1 -1.22252,-1.16937 1.2700619,1.129359 0 0 1 1.31422,-1.08788 1.2700619,1.129359 0 0 1 1.22431,1.16788"
           transform="matrix(1.1625699,0,0,1.4250283,-19.064302,-84.54318)" /><path
           style="fill:#593602;fill-opacity:1;stroke:#000000;stroke-width:0.32687;stroke-opacity:1"
           id="path97"
           sodipodi:type="arc"
           sodipodi:cx="124.94753"
           sodipodi:cy="198.60748"
           sodipodi:rx="1.1825726"
           sodipodi:ry="1.1825703"
           sodipodi:start="0.037475209"
           sodipodi:end="0.034745446"
           sodipodi:open="true"
           sodipodi:arc-type="arc"
           d="m 126.12927,198.65179 a 1.1825726,1.1825703 0 0 1 -1.22524,1.13746 1.1825726,1.1825703 0 0 1 -1.1383,-1.22446 1.1825726,1.1825703 0 0 1 1.22369,-1.13914 1.1825726,1.1825703 0 0 1 1.13997,1.22291"
           transform="matrix(1.1625699,0,0,1.4250283,-19.064302,-84.54318)" /><rect
           style="fill:#040239;fill-opacity:1;stroke:#2845b6;stroke-width:0.230209;stroke-opacity:1"
           id="rect97"
           width="11.499495"
           height="3.751092"
           x="103.7348"
           y="214.27657"
           transform="matrix(1.1625699,0,0,1.4250283,-19.064302,-84.54318)" /><path
           id="path98"
           style="fill:#040239;fill-opacity:1;stroke:#2845b6;stroke-width:0.221022;stroke-opacity:1"
           d="m 116.27282,199.8008 10.01195,0.0415 1.69262,14.44123 -10.88365,0.007 z m -11.91493,-0.0537 11.88064,0.1405 0.40681,14.45114 -13.74979,-0.11139 z"
           sodipodi:nodetypes="cccccccccc"
           transform="matrix(1.1625699,0,0,1.4250283,-19.064302,-84.54318)" /><rect
           style="fill:#040239;fill-opacity:1;stroke:#2845b6;stroke-width:0.224746;stroke-opacity:1"
           id="rect98"
           width="10.941672"
           height="3.7574396"
           x="117.26618"
           y="214.27338"
           transform="matrix(1.1625699,0,0,1.4250283,-19.064302,-84.54318)" /><g
           id="g99"
           transform="matrix(1.1625699,0,0,1.4250283,-19.064302,-84.54318)"><rect
             style="fill:#ffffff;fill-opacity:1;stroke:#000000;stroke-width:0.225949;stroke-opacity:1"
             id="rect99"
             width="5.4923787"
             height="6.12569"
             x="106.71109"
             y="231.33264" /><path
             style="fill:#a9711d;fill-opacity:1;stroke:#000000;stroke-width:0.3;stroke-opacity:1"
             d="m 105.55186,217.85904 0.98515,13.65137 5.66643,-0.18722 1.19419,-13.28528 z"
             id="path99" /></g><path
           id="path100"
           style="fill:#a9711d;fill-opacity:1;stroke:#000000;stroke-width:0.3;stroke-opacity:1"
           d="m 53.526195,91.381233 c -0.405176,0.410878 -0.692405,1.443775 -0.660905,2.640668 0.172551,1.059922 0.181668,2.160702 1.179511,3.014301 h 0.327641 l 0.294879,0.163822 C 54.11848,96.326313 53.810572,95.452603 53.848216,94.578892 m 2.277109,2.91601 c -0.273035,-0.578833 -0.77296,-1.157667 -0.992863,-1.7365 L 54.667321,94.4806 m 1.048453,0.114676 c 0,0 0.999304,-0.114673 0.114674,-0.08191 -0.517694,0.01917 -0.409552,-0.688047 -0.409552,-0.688047 l -0.524227,-1.441625 0.262113,0.851868 m -2.508003,-12.23364 1.132437,9.204993 -1.142718,-9.233094 4.810854,0.0497 0.05904,0.03116 -2.487117,-0.196268 z m 4.85364,0.0917 -4.842181,-0.06437 1.139634,9.28782 c -0.292873,0.571325 -0.11622,0.860304 -0.371276,1.702085 l -0.01124,1.56489 v 0.09258 c 0,0.154478 0.801222,2.255669 0.801222,2.255669 l 0.601576,1.452126 1.335898,0.277756 0.601049,-0.494113 -0.86865,-1.977425 c 0,0 0.534675,-0.556187 0.534675,-0.67977 0,-0.172728 0.0669,-1.297655 0.0669,-1.297655 l 0.567862,-0.772356 0.133273,-1.081298 z"
           sodipodi:nodetypes="ccccccccccscccccccccccccccscccccscccc"
           transform="matrix(0.99874738,0,0,1.6276565,44.569253,57.002215)" /><g
           id="g101"
           transform="matrix(1.1625699,0,0,1.4250283,-2.6358347,-84.301572)"
           inkscape:label="g46"><rect
             style="fill:#ffffff;fill-opacity:1;stroke:#000000;stroke-width:0.225949;stroke-opacity:1"
             id="rect100"
             width="5.4923787"
             height="6.12569"
             x="106.71109"
             y="231.33264" /><path
             style="fill:#a9711d;fill-opacity:1;stroke:#000000;stroke-width:0.3;stroke-opacity:1"
             d="m 105.55186,217.85904 0.98515,13.65137 5.66643,-0.18722 1.19419,-13.28528 z"
             id="path101" /></g><path
           style="fill:#ffffff;fill-opacity:1;stroke:#000000;stroke-width:0.3;stroke-opacity:1"
           d="m 108.26215,200.93131 -1.29268,2.2622 -1.85823,0.0808 v -0.40396 l 1.45426,-0.0808 1.05031,-2.18141 z"
           id="path102"
           transform="matrix(1.1625699,0,0,1.4250283,-19.064302,-84.54318)" /><path
           style="fill:#ffffff;fill-opacity:1;stroke:#000000;stroke-width:0.293583;stroke-opacity:1"
           d="m 123.77632,200.97289 1.10269,2.53976 1.58511,0.0907 v -0.45351 l -1.24051,-0.0907 -0.89594,-2.44905 z"
           id="path103"
           transform="matrix(1.1625699,0,0,1.4250283,-19.064302,-84.54318)" /><path
           style="fill:#ffffff;fill-opacity:1;stroke:#000000;stroke-width:0.3;stroke-opacity:1"
           d="m 105.1161,171.32979 -4.6265,0.74621 0.39797,4.97473 c 0,0 0.34824,-1.94015 -0.8457,4.22853 -0.0964,0.49807 2.89537,15.38047 2.89537,15.38047 l 9.29272,0.73766 8.15857,0.0995 7.75912,-0.40507 0.20044,-14.91712 10e-6,-0.0995 -1.19394,-5.4722 1.55429,-6.36336 -7.35432,-1.77369 1.32277,2.96333 -1.6914,3.6813 -2.98485,1.69141 -1.38999,-2.88853 -2.84931,-1.89954 -3.09554,2.42719 -0.94977,3.09555 -3.65838,-3.41214 -1.30153,-2.28648 z"
           id="path104"
           sodipodi:nodetypes="cccsccccccccccccccccccc"
           transform="translate(-1.1652053e-6)" /><path
           style="fill:#ffffff;fill-opacity:1;stroke:#000000;stroke-width:0.245978;stroke-opacity:1"
           d="m 96.036055,184.91856 5.305995,0.79897 c 0,0 0.93294,2.73925 0.46647,2.96752 -0.46647,0.22827 -2.857077,0.22827 -2.857077,0.22827 l -2.274003,-0.57069 -1.107845,-0.6848 z"
           id="path105" /><path
           style="fill:#ffffff;fill-opacity:1;stroke:#000000;stroke-width:0.231622;stroke-opacity:1"
           d="m 127.39504,170.28895 h 1.47502 l 1.47501,2.50033 1.77002,5.5007 0.354,6.90089 -5.31005,0.40006 v 2.4003 l 5.07405,-0.60006 v -2.40032 l -5.13305,0.50007 -0.11795,-3.60047 -0.59001,-5.20067 z"
           id="path106" /><path
           style="fill:#ffffff;fill-opacity:1;stroke:#000000;stroke-width:0.3;stroke-opacity:1"
           d="m 118.93233,178.3809 0.24623,1.96989 3.7639,1.47742 3.58802,-1.86437 -0.1407,-1.68847 z"
           id="path107"
           sodipodi:nodetypes="cccccc" /><path
           style="fill:#ffffff;fill-opacity:1;stroke:#000000;stroke-width:0.3;stroke-opacity:1"
           d="m 119.4248,180.70256 0.17588,3.1659 3.65837,1.12565 3.09555,-1.44224 0.0352,-3.37696 -3.37696,1.68848 z"
           id="path108" /><g
           id="g114"
           style="fill:#382929;fill-opacity:1"><path
             id="path109"
             style="fill:#382929;fill-opacity:1;stroke:#000000;stroke-width:0.3"
             inkscape:transform-center-x="-0.051331323"
             inkscape:transform-center-y="0.0084140617"
             transform="matrix(0.60964305,0,0,0.63423768,60.312636,108.1548)"
             d="m 112.02571,237.42132 c 3.82954,5.4059 2.59734,9.03921 -5.93558,9.5001 -8.532915,0.46089 -10.252365,-3.4464 -6.993082,-8.80179 4.453892,-7.31827 7.982042,-7.68111 12.928662,-0.69831 z"
             sodipodi:nodetypes="ssss" /><path
             style="fill:#382929;fill-opacity:1;stroke:#000000;stroke-width:0.3;stroke-opacity:1"
             d="m 106.71293,237.73797 -1.40736,4.57392 1.60428,-2.32841 1.25954,-0.68556 1.05949,-0.23432 0.97182,0.0325 0.8728,0.25294 0.68086,0.46159 0.81633,0.71111 1.07348,1.28 -1.44254,-4.32763 -2.69157,-0.0528 -2.70917,0.0176 z"
             id="path110"
             sodipodi:nodetypes="cccccccccccccc"
             transform="matrix(1.1625699,0,0,1.4250283,-2.6358339,-84.301576)" /><path
             style="fill:#382929;fill-opacity:1;stroke:#000000;stroke-width:0.247364;stroke-opacity:1"
             d="m 122.04003,255.71219 c 1.6118,-0.25862 3.35283,-0.48979 5.37077,-0.0652 v 0.71774 l -2.70484,-0.522 -2.627,0.61984 z"
             id="path111"
             sodipodi:nodetypes="cccccc" /><path
             style="fill:#382929;fill-opacity:1;stroke:#000000;stroke-width:0.237843;stroke-opacity:1"
             d="m 122.01169,254.68836 c 1.61491,-0.23863 3.35929,-0.45194 5.38112,-0.0602 v 0.66227 l -2.71005,-0.48166 -2.63206,0.57195 z"
             id="path112"
             sodipodi:nodetypes="cccccc" /><path
             style="fill:#382929;fill-opacity:1;stroke:#000000;stroke-width:0.3;stroke-opacity:1"
             d="m 119.8513,262.27711 1.70374,0.9174 2.78495,0.0655 4.35764,-0.39317 1.07302,-1.04845 0.0383,0.78815 -0.57919,0.88037 -0.9383,0.62553 -1.6449,0.47493 -1.34374,0.17378 -2.17777,-0.0233 -1.1468,-0.19693 -0.97305,-0.45177 -0.84562,-0.67186 -0.31276,-0.66029 z"
             id="path113"
             sodipodi:nodetypes="cccccccccccccccc" /><path
             style="fill:#382929;fill-opacity:1;stroke:#000000;stroke-width:0.3;stroke-opacity:1"
             d="m 119.87588,261.65459 -0.0248,0.53242 0.1966,0.22116 1.41705,0.77815 1.8266,0.0491 2.44912,-0.0983 3.03887,-0.2703 1.04026,-0.95016 -0.17209,-0.66348 -0.95836,0.80273 -0.74538,0.31945 -6.11052,0.19658 -1.21227,-0.48327 z"
             id="path114"
             sodipodi:nodetypes="cccccccccccccc" /></g><g
           id="g120"
           transform="translate(-16.316553,-0.2621133)"
           style="fill:#382929;fill-opacity:1"><path
             id="path115"
             style="fill:#382929;fill-opacity:1;stroke:#000000;stroke-width:0.3"
             inkscape:transform-center-x="-0.051331323"
             inkscape:transform-center-y="0.0084140617"
             transform="matrix(0.60964305,0,0,0.63423768,60.312636,108.1548)"
             d="m 112.02571,237.42132 c 3.82954,5.4059 2.59734,9.03921 -5.93558,9.5001 -8.532915,0.46089 -10.252365,-3.4464 -6.993082,-8.80179 4.453892,-7.31827 7.982042,-7.68111 12.928662,-0.69831 z"
             sodipodi:nodetypes="ssss" /><path
             style="fill:#382929;fill-opacity:1;stroke:#000000;stroke-width:0.3;stroke-opacity:1"
             d="m 106.71293,237.73797 -1.40736,4.57392 1.60428,-2.32841 1.25954,-0.68556 1.05949,-0.23432 0.97182,0.0325 0.8728,0.25294 0.68086,0.46159 0.81633,0.71111 1.07348,1.28 -1.44254,-4.32763 -2.69157,-0.0528 -2.70917,0.0176 z"
             id="path116"
             sodipodi:nodetypes="cccccccccccccc"
             transform="matrix(1.1625699,0,0,1.4250283,-2.6358339,-84.301576)" /><path
             style="fill:#382929;fill-opacity:1;stroke:#000000;stroke-width:0.247364;stroke-opacity:1"
             d="m 122.04003,255.71219 c 1.6118,-0.25862 3.35283,-0.48979 5.37077,-0.0652 v 0.71774 l -2.70484,-0.522 -2.627,0.61984 z"
             id="path117"
             sodipodi:nodetypes="cccccc" /><path
             style="fill:#382929;fill-opacity:1;stroke:#000000;stroke-width:0.237843;stroke-opacity:1"
             d="m 122.01169,254.68836 c 1.61491,-0.23863 3.35929,-0.45194 5.38112,-0.0602 v 0.66227 l -2.71005,-0.48166 -2.63206,0.57195 z"
             id="path118"
             sodipodi:nodetypes="cccccc" /><path
             style="fill:#382929;fill-opacity:1;stroke:#000000;stroke-width:0.3;stroke-opacity:1"
             d="m 119.8513,262.27711 1.70374,0.9174 2.78495,0.0655 4.35764,-0.39317 1.07302,-1.04845 0.0383,0.78815 -0.57919,0.88037 -0.9383,0.62553 -1.6449,0.47493 -1.34374,0.17378 -2.17777,-0.0233 -1.1468,-0.19693 -0.97305,-0.45177 -0.84562,-0.67186 -0.31276,-0.66029 z"
             id="path119"
             sodipodi:nodetypes="cccccccccccccccc" /><path
             style="fill:#382929;fill-opacity:1;stroke:#000000;stroke-width:0.3;stroke-opacity:1"
             d="m 119.87588,261.65459 -0.0248,0.53242 0.1966,0.22116 1.41705,0.77815 1.8266,0.0491 2.44912,-0.0983 3.03887,-0.2703 1.04026,-0.95016 -0.17209,-0.66348 -0.95836,0.80273 -0.74538,0.31945 -6.11052,0.19658 -1.21227,-0.48327 z"
             id="path120"
             sodipodi:nodetypes="cccccccccccccc" /></g></g></g><g
       id="g181"
       transform="matrix(1.0012662,0,0,0.6109438,68.163604,-34.76883)"
       inkscape:label="phrase3"><g
         id="g180"
         transform="matrix(1.0003724,0,0,0.83415424,-28.049576,-22.443912)"><g
           id="g147"
           inkscape:label="head"
           transform="matrix(0.86527677,-0.18533801,0.07326936,1.0693534,4.8742496,6.6666208)"><g
             id="g136"
             inkscape:label="face"><path
               id="path124"
               style="fill:#a9711d;fill-opacity:1;stroke:#000000;stroke-width:0.3;stroke-opacity:1"
               d="m 128.61054,155.5804 c 0.18089,6.27543 -1.6049,12.8019 -15.23005,12.37039 -13.625147,-0.43152 -15.585863,-8.58072 -14.378281,-11.51456 1.750171,-4.25207 -4.442122,-14.69525 8.057811,-16.95371 13.41495,-2.42379 23.13968,0.71541 21.45796,16.13759"
               sodipodi:nodetypes="csssc" /><g
               id="g128"><path
                 style="fill:#ffffff;fill-opacity:1;stroke:#000000;stroke-width:0.3;stroke-opacity:1"
                 id="path125"
                 sodipodi:type="arc"
                 sodipodi:cx="104.77782"
                 sodipodi:cy="155.37234"
                 sodipodi:rx="3.1665559"
                 sodipodi:ry="2.9554522"
                 sodipodi:start="0.037475209"
                 sodipodi:end="0.034745446"
                 sodipodi:open="true"
                 sodipodi:arc-type="arc"
                 d="m 107.94215,155.48308 a 3.1665559,2.9554522 0 0 1 -3.28081,2.84272 3.1665559,2.9554522 0 0 1 -3.04801,-3.06015 3.1665559,2.9554522 0 0 1 3.27665,-2.8469 3.1665559,2.9554522 0 0 1 3.05248,3.05626" /><path
                 style="fill:#281508;fill-opacity:1;stroke:#000000;stroke-width:0.369011;stroke-opacity:1"
                 id="path126"
                 sodipodi:type="arc"
                 sodipodi:cx="104.73317"
                 sodipodi:cy="155.78847"
                 sodipodi:rx="2.0179682"
                 sodipodi:ry="1.7614051"
                 sodipodi:start="0.037475209"
                 sodipodi:end="0.034745446"
                 sodipodi:open="true"
                 sodipodi:arc-type="arc"
                 d="m 106.74972,155.85446 a 2.0179682,1.7614051 0 0 1 -2.09078,1.69422 2.0179682,1.7614051 0 0 1 -1.94242,-1.8238 2.0179682,1.7614051 0 0 1 2.08813,-1.69671 2.0179682,1.7614051 0 0 1 1.94527,1.82149" /><path
                 style="fill:#fffefd;fill-opacity:1;stroke:#000000;stroke-width:0.3;stroke-opacity:1"
                 id="path127"
                 sodipodi:type="arc"
                 sodipodi:cx="105.44584"
                 sodipodi:cy="155.38937"
                 sodipodi:rx="0.59863818"
                 sodipodi:ry="0.54162502"
                 sodipodi:start="0.037475209"
                 sodipodi:end="0.034745446"
                 sodipodi:open="true"
                 sodipodi:arc-type="arc"
                 d="m 106.04406,155.40967 a 0.59863818,0.54162502 0 0 1 -0.62024,0.52096 0.59863818,0.54162502 0 0 1 -0.57623,-0.56081 0.59863818,0.54162502 0 0 1 0.61945,-0.52173 0.59863818,0.54162502 0 0 1 0.57708,0.5601" /><path
                 style="fill:#000000;fill-opacity:1;stroke:#000000;stroke-width:0.3;stroke-opacity:1"
                 d="m 101.14476,153.74982 2.62873,-1.13096 1.22266,-0.12227 1.34493,0.1834 1.83399,0.76417 0.85587,0.39736 -1.22267,-0.97813 -1.22266,-0.61133 -1.03926,-0.2751 -1.43663,0.0611 -0.917,0.27509 -1.19209,0.6419 z"
                 id="path128" /></g><g
               id="g132"
               transform="translate(16.167142,-0.0864553)"><path
                 style="fill:#ffffff;fill-opacity:1;stroke:#000000;stroke-width:0.3;stroke-opacity:1"
                 id="path129"
                 sodipodi:type="arc"
                 sodipodi:cx="104.77782"
                 sodipodi:cy="155.37234"
                 sodipodi:rx="3.1665559"
                 sodipodi:ry="2.9554522"
                 sodipodi:start="0.037475209"
                 sodipodi:end="0.034745446"
                 sodipodi:open="true"
                 sodipodi:arc-type="arc"
                 d="m 107.94215,155.48308 a 3.1665559,2.9554522 0 0 1 -3.28081,2.84272 3.1665559,2.9554522 0 0 1 -3.04801,-3.06015 3.1665559,2.9554522 0 0 1 3.27665,-2.8469 3.1665559,2.9554522 0 0 1 3.05248,3.05626" /><path
                 style="fill:#281508;fill-opacity:1;stroke:#000000;stroke-width:0.369011;stroke-opacity:1"
                 id="path130"
                 sodipodi:type="arc"
                 sodipodi:cx="104.73317"
                 sodipodi:cy="155.78847"
                 sodipodi:rx="2.0179682"
                 sodipodi:ry="1.7614051"
                 sodipodi:start="0.037475209"
                 sodipodi:end="0.034745446"
                 sodipodi:open="true"
                 sodipodi:arc-type="arc"
                 d="m 106.74972,155.85446 a 2.0179682,1.7614051 0 0 1 -2.09078,1.69422 2.0179682,1.7614051 0 0 1 -1.94242,-1.8238 2.0179682,1.7614051 0 0 1 2.08813,-1.69671 2.0179682,1.7614051 0 0 1 1.94527,1.82149" /><path
                 style="fill:#fffefd;fill-opacity:1;stroke:#000000;stroke-width:0.3;stroke-opacity:1"
                 id="path131"
                 sodipodi:type="arc"
                 sodipodi:cx="105.44584"
                 sodipodi:cy="155.38937"
                 sodipodi:rx="0.59863818"
                 sodipodi:ry="0.54162502"
                 sodipodi:start="0.037475209"
                 sodipodi:end="0.034745446"
                 sodipodi:open="true"
                 sodipodi:arc-type="arc"
                 d="m 106.04406,155.40967 a 0.59863818,0.54162502 0 0 1 -0.62024,0.52096 0.59863818,0.54162502 0 0 1 -0.57623,-0.56081 0.59863818,0.54162502 0 0 1 0.61945,-0.52173 0.59863818,0.54162502 0 0 1 0.57708,0.5601" /><path
                 style="fill:#000000;fill-opacity:1;stroke:#000000;stroke-width:0.3;stroke-opacity:1"
                 d="m 101.14476,153.74982 2.62873,-1.13096 1.22266,-0.12227 1.34493,0.1834 1.83399,0.76417 0.85587,0.39736 -1.22267,-0.97813 -1.22266,-0.61133 -1.03926,-0.2751 -1.43663,0.0611 -0.917,0.27509 -1.19209,0.6419 z"
                 id="path132" /></g><path
               style="fill:#000000;fill-opacity:1;stroke:#000000;stroke-width:0.282974;stroke-opacity:1"
               d="m 117.71686,148.8314 0.56714,0.73432 h 1.06337 l 1.27773,-0.10187 2.23069,0.25962 1.52889,0.57693 0.85217,0.46155 -0.40101,-0.80772 -1.47878,-1.12502 -1.6542,-0.46153 -1.2532,-0.0866 -1.65421,0.0289 -1.02762,0.23078 z"
               id="path133"
               sodipodi:nodetypes="cccccccccccccc" /><path
               style="fill:#000000;fill-opacity:1;stroke:#000000;stroke-width:0.3;stroke-opacity:1"
               d="m 109.01012,149.40514 -0.64504,0.72566 h -1.20943 l -1.45325,-0.10067 -2.53709,0.25656 -1.7389,0.57013 -0.96922,0.45611 0.4561,-0.79819 1.68189,-1.11176 1.88143,-0.45609 1.42534,-0.0855 1.88143,0.0285 1.16877,0.22805 z"
               id="path134"
               sodipodi:nodetypes="cccccccccccccc" /><path
               style="fill:#dedbd8;fill-opacity:1;stroke:#000000;stroke-width:0.16186;stroke-opacity:1"
               d="m 117.73029,163.13133 c -0.44465,0.72495 -1.46634,0.7465 -1.8805,0.80485 l -2.09437,0.0719 -1.56632,-0.12176 c -0.3606,-0.0743 -1.5527,-0.0285 -1.6262,-0.68089 z"
               id="path135"
               sodipodi:nodetypes="cccccc" /><path
               style="fill:none;fill-opacity:1;stroke:#000000;stroke-width:0.3;stroke-opacity:1"
               d="m 113.28217,157.86944 c 0.70576,0.30463 0.74115,0.5962 1.00241,1.02624 0.22078,0.50741 -0.36336,0.88068 -0.60332,1.3113"
               id="path136"
               sodipodi:nodetypes="ccc" /></g><g
             id="g139"
             inkscape:label="ear left"><path
               id="path137"
               style="fill:#b77c28;fill-opacity:1;stroke:#000000;stroke-width:0.370657"
               d="m 96.053887,157.07647 c 0.0331,2.07933 1.81316,3.44226 2.69503,3.36572 0.88187,-0.0766 0.53192,-1.5636 0.50005,-3.64303 -0.0319,-2.07944 -0.77229,-3.70468 -1.65421,-3.63097 -0.88191,0.0736 -1.57168,1.81847 -1.54103,3.898"
               sodipodi:nodetypes="csssc" /><path
               style="fill:#b77c28;fill-opacity:1;stroke:#000000;stroke-width:0.3;stroke-opacity:1"
               d="m 97.241327,155.47588 0.583644,0.1297 0.389094,0.59445 0.248589,1.14567 0.162124,1.12405"
               id="path138" /><path
               style="fill:#b77c28;fill-opacity:1;stroke:#000000;stroke-width:0.3;stroke-opacity:1"
               d="m 98.419421,157.12954 -0.605258,-0.30263 -0.30263,0.0108"
               id="path139" /></g><g
             id="g143"
             inkscape:label="ear right"
             transform="matrix(0.88767028,0,0,0.75665301,14.794879,37.305541)"><path
               id="path140"
               style="fill:#b77c28;fill-opacity:1;stroke:#000000;stroke-width:0.385194"
               d="m 131.64323,156.903 c -0.0358,2.07517 -1.9621,3.43538 -2.91641,3.35899 -0.95431,-0.0764 -0.57561,-1.56047 -0.54113,-3.63575 0.0345,-2.07528 0.83573,-3.69727 1.79009,-3.62371 0.95436,0.0735 1.70079,1.81483 1.66762,3.89021"
               sodipodi:nodetypes="csssc" /><path
               style="fill:#b77c28;fill-opacity:1;stroke:#000000;stroke-width:0.3;stroke-opacity:1"
               d="m 129.12515,158.23952 0.10646,-1.43709 0.15967,-1.33064 0.69193,-0.6387"
               id="path141" /><path
               style="fill:#b77c28;fill-opacity:1;stroke:#000000;stroke-width:0.3;stroke-opacity:1"
               d="m 129.39128,156.80243 1.06451,-0.37258"
               id="path142" /><path
               style="fill:#321b0d;fill-opacity:1;stroke:#000000;stroke-width:0.300568;stroke-opacity:1"
               d="m 112.51812,142.10622 c -0.65763,1.28251 -0.34021,2.56504 0.30379,3.84756 l 3.08128,4.2799 4.60022,1.34016 -1.99632,-6.7873 3.12468,3.67465 3.03788,2.85326 2.43031,1.25371 -2.43031,-4.06373 -0.65097,-3.24235 3.42846,5.87945 0.95477,3.19911 0.47739,1.51309 0.69436,-1.51309 0.73778,-2.50741 0.21699,-3.37204 0.39059,3.19911 -0.0868,1.90217 0.78117,-0.86461 1.04156,-2.55065 c 0,0 0.69437,-1.9454 0.69437,-2.11833 0,-0.17293 -1.00583,-2.35468 -1.09264,-3.00315 -0.0868,-0.64847 -1.69323,-2.98011 -1.69323,-2.98011 l -1.07659,-3.35468 1.00906,2.53329 0.40845,1.47554 -0.32723,-2.90249 0.0125,-1.36573 c 0,0 -1.88398,-2.33448 -2.31797,-2.7668 -0.43399,-0.43231 -0.4624,-0.54706 -2.34352,-1.98864 -0.4405,-0.33755 -1.38874,-0.86462 -1.38874,-0.86462 l -2.95109,-0.6917 -2.6907,-0.86462 -3.03787,-0.25935 -3.47188,-0.25938 -5.98897,1.21047 -5.03422,2.42094 -3.558651,2.07511 -1.735935,3.37203 -1.82273,3.02618 0.26039,3.80435 c -0.204145,1.21048 -0.450879,2.75721 0.515516,3.63142 -0.436192,1.01526 0.199809,2.11704 0.643374,3.13528 l 4.309306,3.09002 -0.953864,-4.5825 -0.1745,-5.36068 0.173595,1.90217 0.520781,3.54497 3.037878,1.21047 -2.60389,-2.93973 c -0.836777,-1.90758 0.56591,-2.82366 1.04156,-4.15019 l 0.78116,2.24803 1.56235,3.54496 1.21515,-5.87945 c 0.25007,-1.09836 1.48513,-1.66525 2.69069,-2.24803 l 1.30197,-0.95109 c -0.90546,1.16346 -1.14469,2.37117 -0.82286,3.61613 l 0.82286,2.0904 1.04154,1.72924 1.05692,1.91792 -0.18894,-2.60961 -0.34719,-3.54496 c 0.12924,-0.70427 -0.32205,-0.79621 0.43398,-2.16156 z"
               id="path143"
               sodipodi:nodetypes="ccccccccccccccccccccssccccccsscccccccccccccccccccccccccccccccccc"
               inkscape:label="hair"
               transform="matrix(1.1265444,0,0,1.3216098,-16.667088,-49.303367)" /></g><g
             id="g146"
             transform="matrix(0.69890501,0,0,0.76682276,40.26556,88.460473)"
             inkscape:label="hat"><path
               id="path144"
               style="fill:#141142;fill-opacity:1;stroke:#000000;stroke-width:0.301471;stroke-opacity:1"
               d="m 129.26989,72.336656 c 0.98655,6.125722 -18.59946,2.020252 -30.094286,1.763765 -11.494826,-0.256487 -14.530261,2.467898 -18.973671,-2.762904 -4.701434,-5.534549 6.382644,-27.085093 22.997637,-27.410864 22.15108,-0.434318 30.78239,21.695328 26.48747,27.982138"
               sodipodi:nodetypes="csssc" /><path
               id="path145"
               style="fill:#070920;fill-opacity:1;stroke:#000000;stroke-width:0.244076"
               d="m 75.887611,70.151453 55.734009,-0.416261 0.53932,4.137092 -56.273329,1.669083 z"
               sodipodi:nodetypes="ccccc" /><path
               id="path146"
               style="fill:#141142;fill-opacity:1;stroke:#000000;stroke-width:0.392576"
               d="m 138.07033,77.622893 c -0.86189,2.68863 -9.27446,-2.480521 -32.26282,-2.57949 -22.988373,-0.09897 -33.334538,6.144518 -33.368457,3.351408 -0.04624,-3.807482 8.741283,-6.818604 31.730787,-6.723305 22.9895,0.0953 33.41044,1.800806 34.36479,4.649518"
               sodipodi:nodetypes="csssc" /></g></g><path
           style="fill:#b77c28;fill-opacity:1;stroke:#000000;stroke-width:0.356089;stroke-opacity:1"
           d="m 109.45988,165.31136 0.12195,4.91297 4.26833,1.70104 4.39028,-2.08209 0.22839,-5.03078 -4.13086,0.55503 -3.58331,0.0702 z"
           id="path147"
           sodipodi:nodetypes="cccccccc" /><path
           style="fill:#ffffff;fill-opacity:1;stroke:#000000;stroke-width:0.3;stroke-opacity:1"
           d="m 113.67264,172.076 -2.98484,2.33812 -0.99495,2.88534 -3.63155,-3.18382 -1.19394,-2.08939 1.85405,-2.76636 2.64397,-2.59169 0.0654,3.81158 4.04293,1.49672 z"
           id="path148"
           sodipodi:nodetypes="cccccccccc" /><path
           style="fill:#ffffff;fill-opacity:1;stroke:#000000;stroke-width:0.3;stroke-opacity:1"
           d="m 113.77213,172.02625 3.08434,2.08939 1.29343,2.63661 3.13408,-1.69141 1.49242,-3.33307 -1.69142,-3.28333 -2.73609,-2.23876 0.0995,4.17891 z"
           id="path149"
           sodipodi:nodetypes="ccccccccc" /><path
           style="fill:#ffffff;fill-opacity:1;stroke:#000000;stroke-width:0.232927;stroke-opacity:1"
           d="m 101.28378,171.88025 c -1.07354,0 -1.491026,0.50029 -1.491026,0.50029 l -1.729586,0.80046 -1.192818,4.1024 c 0,0 -1.252459,9.30543 -1.252459,10.1059 0,0.80046 3.041686,1.00057 3.041686,1.00057 l 3.280253,-0.10006 -1.13318,-6.5038 c 0,0 0.47713,-4.60268 0.47713,-5.10297 0,-0.50029 0,-4.8028 0,-4.8028 z"
           id="path150" /><path
           style="fill:#a8701d;fill-opacity:1;stroke:#000000;stroke-width:0.3;stroke-opacity:1"
           d="m 104.77544,197.29789 -0.40555,2.28837 4.97473,0.19899 7.56159,0.199 10.54644,-1e-5 -0.70968,-2.66491 -6.65293,0.0781 -7.95957,-0.0995 z"
           id="path151"
           sodipodi:nodetypes="ccccccccc"
           transform="matrix(1.1625699,0,0,1.4250283,-19.064302,-84.54318)" /><path
           style="fill:#593602;fill-opacity:1;stroke:#000000;stroke-width:0.3;stroke-opacity:1"
           id="path152"
           sodipodi:type="arc"
           sodipodi:cx="106.97226"
           sodipodi:cy="198.36124"
           sodipodi:rx="1.0904768"
           sodipodi:ry="1.0201235"
           sodipodi:start="0.037475209"
           sodipodi:end="0.034745446"
           sodipodi:open="true"
           sodipodi:arc-type="arc"
           d="m 108.06197,198.39946 a 1.0904768,1.0201235 0 0 1 -1.12982,0.98121 1.0904768,1.0201235 0 0 1 -1.04966,-1.05626 1.0904768,1.0201235 0 0 1 1.12839,-0.98266 1.0904768,1.0201235 0 0 1 1.0512,1.05492"
           transform="matrix(1.1625699,0,0,1.4250283,-19.064302,-84.54318)" /><path
           id="path153"
           style="fill:#a9711d;fill-opacity:1;stroke:#000000;stroke-width:0.300677;stroke-opacity:1"
           d="m 129.47528,202.57982 c 0.35643,0.46919 0.60909,1.64868 0.58138,3.01544 -0.1518,1.21035 -0.15981,2.46735 -1.03759,3.44209 h -0.28821 l -0.25941,0.18707 c 0.48281,-0.99771 0.75366,-1.99541 0.72055,-2.99312 m -2.0031,3.32986 c 0.24017,-0.66099 0.67995,-1.32198 0.8734,-1.98295 l 0.40915,-1.45916 m -0.92229,0.13096 c 0,0 -0.87906,-0.13095 -0.10086,-0.0936 0.4554,0.022 0.36027,-0.78569 0.36027,-0.78569 l 0.46114,-1.64623 -0.23057,0.97277 m 2.20623,-13.96986 -0.99618,10.51138 1.00522,-10.54347 -4.23198,0.0568 -0.0519,0.0356 2.18785,-0.22412 z m -4.26963,0.10472 4.25955,-0.0735 -1.00251,10.60596 c 0.25763,0.6524 0.10218,0.9824 0.3266,1.94364 l 0.0108,1.78699 v 0.10571 c 0,0.17641 -0.70481,2.5758 -0.70481,2.5758 l -0.52919,1.65822 -1.17515,0.31717 -0.52874,-0.56424 0.76414,-2.25806 c 0,0 -0.47035,-0.63513 -0.47035,-0.77625 0,-0.19724 -0.0588,-1.48182 -0.0588,-1.48182 l -0.49953,-0.88197 -0.11727,-1.23476 z"
           sodipodi:nodetypes="ccccccccccscccccccccccccccscccccscccc"
           transform="matrix(1.1625699,0,0,1.4250283,-19.064302,-84.54318)" /><path
           style="fill:#593602;fill-opacity:1;stroke:#000000;stroke-width:0.3;stroke-opacity:1"
           id="path154"
           sodipodi:type="arc"
           sodipodi:cx="112.84676"
           sodipodi:cy="198.46678"
           sodipodi:rx="1.26636"
           sodipodi:ry="1.1256535"
           sodipodi:start="0.037475209"
           sodipodi:end="0.034745446"
           sodipodi:open="true"
           sodipodi:arc-type="arc"
           d="m 114.11223,198.50896 a 1.26636,1.1256535 0 0 1 -1.31205,1.08271 1.26636,1.1256535 0 0 1 -1.21895,-1.16553 1.26636,1.1256535 0 0 1 1.31039,-1.08431 1.26636,1.1256535 0 0 1 1.22074,1.16406"
           transform="matrix(1.1625699,0,0,1.4250283,-19.064302,-84.54318)" /><path
           style="fill:#593602;fill-opacity:1;stroke:#000000;stroke-width:0.362938;stroke-opacity:1"
           id="path155"
           sodipodi:type="arc"
           sodipodi:cx="119.4248"
           sodipodi:cy="198.71301"
           sodipodi:rx="1.2700619"
           sodipodi:ry="1.129359"
           sodipodi:start="0.037475209"
           sodipodi:end="0.034745446"
           sodipodi:open="true"
           sodipodi:arc-type="arc"
           d="m 120.69397,198.75533 a 1.2700619,1.129359 0 0 1 -1.31589,1.08628 1.2700619,1.129359 0 0 1 -1.22252,-1.16937 1.2700619,1.129359 0 0 1 1.31422,-1.08788 1.2700619,1.129359 0 0 1 1.22431,1.16788"
           transform="matrix(1.1625699,0,0,1.4250283,-19.064302,-84.54318)" /><path
           style="fill:#593602;fill-opacity:1;stroke:#000000;stroke-width:0.32687;stroke-opacity:1"
           id="path156"
           sodipodi:type="arc"
           sodipodi:cx="124.94753"
           sodipodi:cy="198.60748"
           sodipodi:rx="1.1825726"
           sodipodi:ry="1.1825703"
           sodipodi:start="0.037475209"
           sodipodi:end="0.034745446"
           sodipodi:open="true"
           sodipodi:arc-type="arc"
           d="m 126.12927,198.65179 a 1.1825726,1.1825703 0 0 1 -1.22524,1.13746 1.1825726,1.1825703 0 0 1 -1.1383,-1.22446 1.1825726,1.1825703 0 0 1 1.22369,-1.13914 1.1825726,1.1825703 0 0 1 1.13997,1.22291"
           transform="matrix(1.1625699,0,0,1.4250283,-19.064302,-84.54318)" /><rect
           style="fill:#040239;fill-opacity:1;stroke:#2845b6;stroke-width:0.230209;stroke-opacity:1"
           id="rect156"
           width="11.499495"
           height="3.751092"
           x="103.7348"
           y="214.27657"
           transform="matrix(1.1625699,0,0,1.4250283,-19.064302,-84.54318)" /><path
           id="path157"
           style="fill:#040239;fill-opacity:1;stroke:#2845b6;stroke-width:0.221022;stroke-opacity:1"
           d="m 116.27282,199.8008 10.01195,0.0415 1.69262,14.44123 -10.88365,0.007 z m -11.91493,-0.0537 11.88064,0.1405 0.40681,14.45114 -13.74979,-0.11139 z"
           sodipodi:nodetypes="cccccccccc"
           transform="matrix(1.1625699,0,0,1.4250283,-19.064302,-84.54318)" /><rect
           style="fill:#040239;fill-opacity:1;stroke:#2845b6;stroke-width:0.224746;stroke-opacity:1"
           id="rect157"
           width="10.941672"
           height="3.7574396"
           x="117.26618"
           y="214.27338"
           transform="matrix(1.1625699,0,0,1.4250283,-19.064302,-84.54318)" /><g
           id="g158"
           transform="matrix(1.1625699,0,0,1.4250283,-19.064302,-84.54318)"><rect
             style="fill:#ffffff;fill-opacity:1;stroke:#000000;stroke-width:0.225949;stroke-opacity:1"
             id="rect158"
             width="5.4923787"
             height="6.12569"
             x="106.71109"
             y="231.33264" /><path
             style="fill:#a9711d;fill-opacity:1;stroke:#000000;stroke-width:0.3;stroke-opacity:1"
             d="m 105.55186,217.85904 0.98515,13.65137 5.66643,-0.18722 1.19419,-13.28528 z"
             id="path158" /></g><path
           id="path159"
           style="fill:#a9711d;fill-opacity:1;stroke:#000000;stroke-width:0.3;stroke-opacity:1"
           d="m 53.526195,91.381233 c -0.405176,0.410878 -0.692405,1.443775 -0.660905,2.640668 0.172551,1.059922 0.181668,2.160702 1.179511,3.014301 h 0.327641 l 0.294879,0.163822 C 54.11848,96.326313 53.810572,95.452603 53.848216,94.578892 m 2.277109,2.91601 c -0.273035,-0.578833 -0.77296,-1.157667 -0.992863,-1.7365 L 54.667321,94.4806 m 1.048453,0.114676 c 0,0 0.999304,-0.114673 0.114674,-0.08191 -0.517694,0.01917 -0.409552,-0.688047 -0.409552,-0.688047 l -0.524227,-1.441625 0.262113,0.851868 m -2.508003,-12.23364 1.132437,9.204993 -1.142718,-9.233094 4.810854,0.0497 0.05904,0.03116 -2.487117,-0.196268 z m 4.85364,0.0917 -4.842181,-0.06437 1.139634,9.28782 c -0.292873,0.571325 -0.11622,0.860304 -0.371276,1.702085 l -0.01124,1.56489 v 0.09258 c 0,0.154478 0.801222,2.255669 0.801222,2.255669 l 0.601576,1.452126 1.335898,0.277756 0.601049,-0.494113 -0.86865,-1.977425 c 0,0 0.534675,-0.556187 0.534675,-0.67977 0,-0.172728 0.0669,-1.297655 0.0669,-1.297655 l 0.567862,-0.772356 0.133273,-1.081298 z"
           sodipodi:nodetypes="ccccccccccscccccccccccccccscccccscccc"
           transform="matrix(0.99874738,0,0,1.6276565,44.569253,57.002215)" /><g
           id="g160"
           transform="matrix(1.1625699,0,0,1.4250283,-2.6358347,-84.301572)"
           inkscape:label="g46"><rect
             style="fill:#ffffff;fill-opacity:1;stroke:#000000;stroke-width:0.225949;stroke-opacity:1"
             id="rect159"
             width="5.4923787"
             height="6.12569"
             x="106.71109"
             y="231.33264" /><path
             style="fill:#a9711d;fill-opacity:1;stroke:#000000;stroke-width:0.3;stroke-opacity:1"
             d="m 105.55186,217.85904 0.98515,13.65137 5.66643,-0.18722 1.19419,-13.28528 z"
             id="path160" /></g><path
           style="fill:#ffffff;fill-opacity:1;stroke:#000000;stroke-width:0.3;stroke-opacity:1"
           d="m 108.26215,200.93131 -1.29268,2.2622 -1.85823,0.0808 v -0.40396 l 1.45426,-0.0808 1.05031,-2.18141 z"
           id="path161"
           transform="matrix(1.1625699,0,0,1.4250283,-19.064302,-84.54318)" /><path
           style="fill:#ffffff;fill-opacity:1;stroke:#000000;stroke-width:0.293583;stroke-opacity:1"
           d="m 123.77632,200.97289 1.10269,2.53976 1.58511,0.0907 v -0.45351 l -1.24051,-0.0907 -0.89594,-2.44905 z"
           id="path162"
           transform="matrix(1.1625699,0,0,1.4250283,-19.064302,-84.54318)" /><path
           style="fill:#ffffff;fill-opacity:1;stroke:#000000;stroke-width:0.3;stroke-opacity:1"
           d="m 106.7126,168.93759 -6.223,3.13841 0.39797,4.97473 c 0,0 0.34824,-1.94015 -0.8457,4.22853 -0.0964,0.49807 2.89537,15.38047 2.89537,15.38047 l 9.29272,0.73766 8.15857,0.0995 7.75912,-0.40507 0.20044,-14.91712 10e-6,-0.0995 -1.19394,-5.4722 1.59192,-6.06918 -6.86513,-0.59696 0.79595,1.49242 -1.6914,3.6813 -2.98485,1.69141 -1.38999,-2.88853 -2.84931,-1.89954 -3.09554,2.42719 -0.94977,3.09555 -3.65838,-3.41214 -1.30153,-2.28648 z"
           id="path163"
           sodipodi:nodetypes="cccsccccccccccccccccccc"
           transform="translate(-1.1652053e-6)" /><path
           style="fill:#ffffff;fill-opacity:1;stroke:#000000;stroke-width:0.245978;stroke-opacity:1"
           d="m 96.036055,184.91856 5.305995,0.79897 c 0,0 0.93294,2.73925 0.46647,2.96752 -0.46647,0.22827 -2.857077,0.22827 -2.857077,0.22827 l -2.274003,-0.57069 -1.107845,-0.6848 z"
           id="path164" /><path
           style="fill:#ffffff;fill-opacity:1;stroke:#000000;stroke-width:0.231622;stroke-opacity:1"
           d="m 127.39504,170.28895 h 1.47502 l 1.47501,2.50033 1.77002,5.5007 0.354,6.90089 -5.31005,0.40006 v 2.4003 l 5.07405,-0.60006 v -2.40032 l -5.13305,0.50007 -0.11795,-3.60047 -0.59001,-5.20067 z"
           id="path165" /><path
           style="fill:#ffffff;fill-opacity:1;stroke:#000000;stroke-width:0.3;stroke-opacity:1"
           d="m 118.93233,178.3809 0.24623,1.96989 3.7639,1.47742 3.58802,-1.86437 -0.1407,-1.68847 z"
           id="path166"
           sodipodi:nodetypes="cccccc" /><path
           style="fill:#ffffff;fill-opacity:1;stroke:#000000;stroke-width:0.3;stroke-opacity:1"
           d="m 119.4248,180.70256 0.17588,3.1659 3.65837,1.12565 3.09555,-1.44224 0.0352,-3.37696 -3.37696,1.68848 z"
           id="path167" /><g
           id="g173"
           style="fill:#382929;fill-opacity:1"><path
             id="path168"
             style="fill:#382929;fill-opacity:1;stroke:#000000;stroke-width:0.3"
             inkscape:transform-center-x="-0.051331323"
             inkscape:transform-center-y="0.0084140617"
             transform="matrix(0.60964305,0,0,0.63423768,60.312636,108.1548)"
             d="m 112.02571,237.42132 c 3.82954,5.4059 2.59734,9.03921 -5.93558,9.5001 -8.532915,0.46089 -10.252365,-3.4464 -6.993082,-8.80179 4.453892,-7.31827 7.982042,-7.68111 12.928662,-0.69831 z"
             sodipodi:nodetypes="ssss" /><path
             style="fill:#382929;fill-opacity:1;stroke:#000000;stroke-width:0.3;stroke-opacity:1"
             d="m 106.71293,237.73797 -1.40736,4.57392 1.60428,-2.32841 1.25954,-0.68556 1.05949,-0.23432 0.97182,0.0325 0.8728,0.25294 0.68086,0.46159 0.81633,0.71111 1.07348,1.28 -1.44254,-4.32763 -2.69157,-0.0528 -2.70917,0.0176 z"
             id="path169"
             sodipodi:nodetypes="cccccccccccccc"
             transform="matrix(1.1625699,0,0,1.4250283,-2.6358339,-84.301576)" /><path
             style="fill:#382929;fill-opacity:1;stroke:#000000;stroke-width:0.247364;stroke-opacity:1"
             d="m 122.04003,255.71219 c 1.6118,-0.25862 3.35283,-0.48979 5.37077,-0.0652 v 0.71774 l -2.70484,-0.522 -2.627,0.61984 z"
             id="path170"
             sodipodi:nodetypes="cccccc" /><path
             style="fill:#382929;fill-opacity:1;stroke:#000000;stroke-width:0.237843;stroke-opacity:1"
             d="m 122.01169,254.68836 c 1.61491,-0.23863 3.35929,-0.45194 5.38112,-0.0602 v 0.66227 l -2.71005,-0.48166 -2.63206,0.57195 z"
             id="path171"
             sodipodi:nodetypes="cccccc" /><path
             style="fill:#382929;fill-opacity:1;stroke:#000000;stroke-width:0.3;stroke-opacity:1"
             d="m 119.8513,262.27711 1.70374,0.9174 2.78495,0.0655 4.35764,-0.39317 1.07302,-1.04845 0.0383,0.78815 -0.57919,0.88037 -0.9383,0.62553 -1.6449,0.47493 -1.34374,0.17378 -2.17777,-0.0233 -1.1468,-0.19693 -0.97305,-0.45177 -0.84562,-0.67186 -0.31276,-0.66029 z"
             id="path172"
             sodipodi:nodetypes="cccccccccccccccc" /><path
             style="fill:#382929;fill-opacity:1;stroke:#000000;stroke-width:0.3;stroke-opacity:1"
             d="m 119.87588,261.65459 -0.0248,0.53242 0.1966,0.22116 1.41705,0.77815 1.8266,0.0491 2.44912,-0.0983 3.03887,-0.2703 1.04026,-0.95016 -0.17209,-0.66348 -0.95836,0.80273 -0.74538,0.31945 -6.11052,0.19658 -1.21227,-0.48327 z"
             id="path173"
             sodipodi:nodetypes="cccccccccccccc" /></g><g
           id="g179"
           transform="translate(-16.316553,-0.2621133)"
           style="fill:#382929;fill-opacity:1"><path
             id="path174"
             style="fill:#382929;fill-opacity:1;stroke:#000000;stroke-width:0.3"
             inkscape:transform-center-x="-0.051331323"
             inkscape:transform-center-y="0.0084140617"
             transform="matrix(0.60964305,0,0,0.63423768,60.312636,108.1548)"
             d="m 112.02571,237.42132 c 3.82954,5.4059 2.59734,9.03921 -5.93558,9.5001 -8.532915,0.46089 -10.252365,-3.4464 -6.993082,-8.80179 4.453892,-7.31827 7.982042,-7.68111 12.928662,-0.69831 z"
             sodipodi:nodetypes="ssss" /><path
             style="fill:#382929;fill-opacity:1;stroke:#000000;stroke-width:0.3;stroke-opacity:1"
             d="m 106.71293,237.73797 -1.40736,4.57392 1.60428,-2.32841 1.25954,-0.68556 1.05949,-0.23432 0.97182,0.0325 0.8728,0.25294 0.68086,0.46159 0.81633,0.71111 1.07348,1.28 -1.44254,-4.32763 -2.69157,-0.0528 -2.70917,0.0176 z"
             id="path175"
             sodipodi:nodetypes="cccccccccccccc"
             transform="matrix(1.1625699,0,0,1.4250283,-2.6358339,-84.301576)" /><path
             style="fill:#382929;fill-opacity:1;stroke:#000000;stroke-width:0.247364;stroke-opacity:1"
             d="m 122.04003,255.71219 c 1.6118,-0.25862 3.35283,-0.48979 5.37077,-0.0652 v 0.71774 l -2.70484,-0.522 -2.627,0.61984 z"
             id="path176"
             sodipodi:nodetypes="cccccc" /><path
             style="fill:#382929;fill-opacity:1;stroke:#000000;stroke-width:0.237843;stroke-opacity:1"
             d="m 122.01169,254.68836 c 1.61491,-0.23863 3.35929,-0.45194 5.38112,-0.0602 v 0.66227 l -2.71005,-0.48166 -2.63206,0.57195 z"
             id="path177"
             sodipodi:nodetypes="cccccc" /><path
             style="fill:#382929;fill-opacity:1;stroke:#000000;stroke-width:0.3;stroke-opacity:1"
             d="m 119.8513,262.27711 1.70374,0.9174 2.78495,0.0655 4.35764,-0.39317 1.07302,-1.04845 0.0383,0.78815 -0.57919,0.88037 -0.9383,0.62553 -1.6449,0.47493 -1.34374,0.17378 -2.17777,-0.0233 -1.1468,-0.19693 -0.97305,-0.45177 -0.84562,-0.67186 -0.31276,-0.66029 z"
             id="path178"
             sodipodi:nodetypes="cccccccccccccccc" /><path
             style="fill:#382929;fill-opacity:1;stroke:#000000;stroke-width:0.3;stroke-opacity:1"
             d="m 119.87588,261.65459 -0.0248,0.53242 0.1966,0.22116 1.41705,0.77815 1.8266,0.0491 2.44912,-0.0983 3.03887,-0.2703 1.04026,-0.95016 -0.17209,-0.66348 -0.95836,0.80273 -0.74538,0.31945 -6.11052,0.19658 -1.21227,-0.48327 z"
             id="path179"
             sodipodi:nodetypes="cccccccccccccc" /></g></g></g></g></svg>
