<?xml version="1.0" encoding="UTF-8" standalone="no"?>
<!-- Created with Inkscape (http://www.inkscape.org/) -->

<svg
   width="210mm"
   height="297mm"
   viewBox="0 0 210 297"
   version="1.1"
   id="svg1"
   xml:space="preserve"
   inkscape:version="1.3.2 (091e20e, 2023-11-25, custom)"
   sodipodi:docname="jump.svg"
   xmlns:inkscape="http://www.inkscape.org/namespaces/inkscape"
   xmlns:sodipodi="http://sodipodi.sourceforge.net/DTD/sodipodi-0.dtd"
   xmlns="http://www.w3.org/2000/svg"
   xmlns:svg="http://www.w3.org/2000/svg"><sodipodi:namedview
     id="namedview1"
     pagecolor="#ffffff"
     bordercolor="#000000"
     borderopacity="0.25"
     inkscape:showpageshadow="2"
     inkscape:pageopacity="0.0"
     inkscape:pagecheckerboard="0"
     inkscape:deskcolor="#d1d1d1"
     inkscape:document-units="mm"
     inkscape:zoom="0.76508705"
     inkscape:cx="442.43331"
     inkscape:cy="175.79699"
     inkscape:window-width="1366"
     inkscape:window-height="705"
     inkscape:window-x="-8"
     inkscape:window-y="-8"
     inkscape:window-maximized="1"
     inkscape:current-layer="layer1"
     showgrid="true"><inkscape:grid
       id="grid105"
       units="mm"
       originx="0"
       originy="0"
       spacingx="0.99999998"
       spacingy="1"
       empcolor="#0099e5"
       empopacity="0.30196078"
       color="#0099e5"
       opacity="0.14901961"
       empspacing="5"
       dotted="false"
       gridanglex="30"
       gridanglez="30"
       visible="true" /></sodipodi:namedview><defs
     id="defs1"><filter
       inkscape:collect="always"
       style="color-interpolation-filters:sRGB"
       id="filter86"
       x="-0.031084345"
       y="-0.036521879"
       width="1.0584639"
       height="1.0649175"><feGaussianBlur
         inkscape:collect="always"
         stdDeviation="0.014650692"
         id="feGaussianBlur86" /></filter></defs><g
     inkscape:label="Layer 1"
     inkscape:groupmode="layer"
     id="layer1"><g
       id="g104"
       transform="matrix(1.3876342,0,0,1.0441415,-22.585462,7.7364374)"
       inkscape:label="phrase2"><path
         style="fill:#141142;fill-opacity:1;stroke:#010101;stroke-width:0.3;stroke-opacity:1"
         d="m 71.982229,26.328635 6.095793,-4.150327 4.409723,-2.853349 9.467932,-4.020629 -1.167281,-1.167279 -4.669115,-1.945466 -4.669118,0.129697 -4.928513,2.204862 -4.020629,3.242442 -1.686071,3.631536 0.389094,3.761234 z"
         id="path46" /><path
         style="fill:#070920;fill-opacity:1;stroke:#010101;stroke-width:0.3;stroke-opacity:1"
         d="m 72.111927,26.328635 1.037582,2.075163 7.977373,-4.140925 8.234841,-5.197309 4.669118,-1.945466 -1.68607,-2.075164 -10.635213,4.409723 z"
         id="path47"
         sodipodi:nodetypes="cccccccc" /><path
         style="fill:#141142;fill-opacity:1;stroke:#010101;stroke-width:0.3;stroke-opacity:1"
         d="m 94.419935,17.120098 4.798814,2.075163 -1.945466,1.296977 -8.689747,4.150327 -5.447302,2.983046 -5.7067,3.631536 -3.761235,2.983047 -0.51879,-2.593953 -0.129698,-3.372139 5.058211,-2.853351 5.7067,-2.853349 5.836396,-3.761234 z"
         id="path48" /><path
         id="path53"
         style="fill:#a9711d;fill-opacity:1;stroke:#010101;stroke-width:0.3;stroke-opacity:1"
         d="m 91.778914,33.221996 3.186928,0.09171 h 0.229274 l -1.12345,0.940027 z m -5.479682,-1.719567 -1.008811,0.687827 m -0.114636,-1.880058 0.917101,0.137565 0.412695,1.375653 0.275129,0.848318 m 8.741654,-6.213401 0.03242,2.26971 1.394251,0.324244 0.194546,1.556372 -1.426673,1.199705 -0.486368,1.75092 -1.945465,1.523947 -1.735442,1.119344 -3.23278,0.183419 -1.054669,0.458552 0.04586,0.917102 c 0,0 -2.017622,-0.848321 -2.017622,-0.962959 0,-0.114636 0.389768,-2.911795 0.389768,-2.911795 l -1.100521,-0.458552 -0.550259,-0.779534 -0.641972,-1.536147 0.320985,-1.215157 0.84832,-0.756611 1.46736,0.02294 0.710753,0.18342 0.435624,1.788348 1.123449,-2.499101 0.435624,0.55026 2.201042,-3.095216 0.481478,1.283942 1.971768,-3.25571 1.719566,2.934725 z" /><path
         style="fill:#321b0d;fill-opacity:1;stroke:#010101;stroke-width:0.3;stroke-opacity:1"
         d="m 98.051471,19.584354 2.853349,0.259396 -1.686071,2.334558 -1.945466,0.129698 -0.389093,2.593954 -1.815767,2.204861 -1.68607,-2.983047 -1.945466,3.242442 -0.518792,-1.296976 -2.20486,2.983047 -0.518793,-0.51879 -0.907883,2.464255 -0.551704,-1.512946 -0.985882,-0.229274 h -1.21516 l -0.802463,0.619043 -0.343913,1.306869 0.504404,1.513219 0.619046,0.825391 1.054666,0.504404 v 0.458552 l -0.275132,2.223969 -1.627854,-0.06878 -5.433825,-1.238089 -3.026434,-2.476172 4.402085,-3.209856 6.419709,-3.760114 8.345623,-4.035246 z"
         id="path49" /><g
         id="g56"><path
           style="fill:#fdf9f7;fill-opacity:1;stroke:#000000;stroke-width:0.327038;stroke-opacity:1"
           id="path54"
           sodipodi:type="arc"
           sodipodi:cx="93.636047"
           sodipodi:cy="29.03772"
           sodipodi:rx="1.5914054"
           sodipodi:ry="1.9238558"
           sodipodi:start="0.037475209"
           sodipodi:end="0.034745446"
           sodipodi:open="true"
           sodipodi:arc-type="arc"
           d="m 95.226335,29.1098 a 1.5914054,1.9238558 0 0 1 -1.648827,1.850473 1.5914054,1.9238558 0 0 1 -1.531829,-1.992009 1.5914054,1.9238558 0 0 1 1.646737,-1.853193 1.5914054,1.9238558 0 0 1 1.534076,1.989481" /><path
           style="fill:#31260c;fill-opacity:1;stroke:#010101;stroke-width:0.323164;stroke-opacity:1"
           id="path55"
           sodipodi:type="arc"
           sodipodi:cx="93.945564"
           sodipodi:cy="29.34724"
           sodipodi:rx="0.7794162"
           sodipodi:ry="1.1347934"
           sodipodi:start="0.037475209"
           sodipodi:end="0.034745446"
           sodipodi:open="true"
           sodipodi:arc-type="arc"
           d="m 94.724433,29.389757 a 0.7794162,1.1347934 0 0 1 -0.807539,1.091509 0.7794162,1.1347934 0 0 1 -0.750238,-1.174994 0.7794162,1.1347934 0 0 1 0.806516,-1.093113 0.7794162,1.1347934 0 0 1 0.751338,1.173502" /><path
           style="fill:#ffffff;fill-opacity:1;stroke:#010101;stroke-width:0.3;stroke-opacity:1"
           id="path56"
           sodipodi:type="arc"
           sodipodi:cx="93.991417"
           sodipodi:cy="29.072113"
           sodipodi:rx="0.24073909"
           sodipodi:ry="0.29805791"
           sodipodi:start="0.037475209"
           sodipodi:end="0.034745446"
           sodipodi:open="true"
           sodipodi:arc-type="arc"
           d="m 94.231987,29.08328 a 0.24073909,0.29805791 0 0 1 -0.249426,0.286689 0.24073909,0.29805791 0 0 1 -0.231726,-0.308617 0.24073909,0.29805791 0 0 1 0.249109,-0.28711 0.24073909,0.29805791 0 0 1 0.232067,0.308225" /></g><path
         style="fill:#ffffff;fill-opacity:1;stroke:#010101;stroke-width:0.3;stroke-opacity:1"
         d="m 82.6079,36.523559 -1.719564,1.788348 1.880058,0.504407 1.880058,1.352725 1.238086,0.06878 1.559073,-2.384462 -2.33861,-1.03174 z"
         id="path57" /><path
         style="fill:#fefefe;fill-opacity:1;stroke:#010101;stroke-width:0.3;stroke-opacity:1"
         d="m 81.622032,45.144311 2.957653,-0.802463 1.444434,-1.169305 0.366842,0.18342 0.04585,1.283944 c 0,0 -3.026436,1.857129 -3.691334,1.857129 -0.664898,0 -0.985883,-0.298059 -0.985883,-0.298059 l -0.02294,-1.008811 -0.458549,-0.527333 -1.008812,-3.118144 0.114636,-2.178116 1.054667,-0.848318 1.261016,0.206348 1.834202,1.329797 0.894174,1.467362 0.527333,1.421507 -1.375652,1.283942 z"
         id="path58" /><path
         style="fill:#a9711d;fill-opacity:1;stroke:#010101;stroke-width:0.3;stroke-opacity:1;filter:url(#filter86)"
         d="m 86.413871,44.594052 0.802462,0.504404 0.802466,-2.269826 0.848317,0.435623 1.329799,0.481479 2.178113,0.275132 -1.398579,2.911795 -1.719564,1.971767 -1.719564,0.687827 -2.132262,-0.504404 -1.604928,-1.650783 -0.940027,-0.825392 1.604925,-0.871246 z"
         id="path59" /><path
         style="fill:#a9711d;fill-opacity:1;stroke:#010101;stroke-width:0.3;stroke-opacity:1"
         d="m 88.271003,40.788077 0.527333,-0.04585 0.320985,-0.710756 -0.36684,-0.756608 -0.641971,0.435623 c 0,0 -0.229275,0.940031 -0.229275,1.077595 0,0.137565 0.04584,1.30687 0.06878,1.811274 l 1.261016,0.596117 2.911797,0.825391 1.215159,-0.596115 0.687826,-2.590812 0.18342,-1.169304 -1.077594,-0.619043 -0.596116,-0.252203 -0.160492,1.85713 0.09171,-1.834203 -0.848319,-0.252202 h -0.894174 l 0.02293,2.063478 v -2.201044 l -1.100522,0.06878 -0.779536,0.481478 0.229275,0.917101 -0.412695,0.848319 h -0.229276 z"
         id="path60" /><path
         style="fill:#ffffff;fill-opacity:1;stroke:#010101;stroke-width:0.3;stroke-opacity:1"
         d="m 87.560247,37.876284 0.917101,1.559073 -0.412694,0.366839 v 1.12345 l -0.18342,1.696638 -0.619046,2.476172 c 0,0 -0.664898,-0.04585 -0.710752,-0.504404 -0.04585,-0.458552 0.07828,-1.120108 -0.389765,-1.536145 C 85.955323,42.874486 85.70312,42.92034 85.70312,42.92034 l -1.008811,-2.613737 1.123447,-0.114638 z"
         id="path61"
         sodipodi:nodetypes="ccccccsscccc" /><path
         style="fill:#ffffff;fill-opacity:1;stroke:#010101;stroke-width:0.3;stroke-opacity:1"
         d="m 80.819553,38.403617 -2.223972,1.971767 -1.902983,2.774233 -0.985885,3.851826 v 1.581999 l 2.017622,1.100521 2.040551,0.458552 4.791856,0.687824 3.484983,-0.917101 0.09171,-0.36684 -0.664898,0.06878 -2.109332,-0.527333 -2.52203,-2.613739 -1.123447,-0.252204 0.04586,-1.03174 -0.550262,-0.871246 -0.848318,-2.567882 0.114636,-2.476175 0.94003,-0.710753 z"
         id="path62" /><path
         style="fill:#a9711d;fill-opacity:1;stroke:#010101;stroke-width:0.3;stroke-opacity:1"
         d="m 75.569148,48.698081 0.114638,1.696635 1.100522,0.252203 2.384462,0.412697 0.389768,0.481479 0.687827,-0.229278 2.476174,0.320987 0.412694,0.229275 0.664898,-0.160493 2.476175,-0.02291 0.962956,-0.160494 0.687827,-0.550262 0.137565,-0.985882 -3.553767,0.894172 -5.250408,-0.802462 z"
         id="path67" /><path
         style="fill:#593602;fill-opacity:1;stroke:#010101;stroke-width:0.3;stroke-opacity:1"
         id="path63"
         sodipodi:type="arc"
         sodipodi:cx="76.887482"
         sodipodi:cy="49.890312"
         sodipodi:rx="0.60757959"
         sodipodi:ry="0.68782598"
         sodipodi:start="0.037475209"
         sodipodi:end="0.034745446"
         sodipodi:open="true"
         sodipodi:arc-type="arc"
         d="m 77.494635,49.916083 a 0.60757959,0.68782598 0 0 1 -0.629503,0.66159 0.60757959,0.68782598 0 0 1 -0.584834,-0.712193 0.60757959,0.68782598 0 0 1 0.628704,-0.662562 0.60757959,0.68782598 0 0 1 0.585693,0.711288" /><path
         style="fill:#593602;fill-opacity:1;stroke:#010101;stroke-width:0.3;stroke-opacity:1"
         id="path64"
         sodipodi:type="arc"
         sodipodi:cx="79.719032"
         sodipodi:cy="50.841805"
         sodipodi:rx="0.52733326"
         sodipodi:ry="0.72221732"
         sodipodi:start="0.037475209"
         sodipodi:end="0.034745446"
         sodipodi:open="true"
         sodipodi:arc-type="arc"
         d="m 80.245995,50.868863 a 0.52733326,0.72221732 0 0 1 -0.54636,0.69467 0.52733326,0.72221732 0 0 1 -0.507592,-0.747802 0.52733326,0.72221732 0 0 1 0.545668,-0.695691 0.52733326,0.72221732 0 0 1 0.508336,0.746853" /><path
         style="fill:#593602;fill-opacity:1;stroke:#010101;stroke-width:0.3;stroke-opacity:1"
         id="path65"
         sodipodi:type="arc"
         sodipodi:cx="83.238411"
         sodipodi:cy="51.277424"
         sodipodi:rx="0.5158695"
         sodipodi:ry="0.58465207"
         sodipodi:start="0.037475209"
         sodipodi:end="0.034745446"
         sodipodi:open="true"
         sodipodi:arc-type="arc"
         d="m 83.753918,51.299329 a 0.5158695,0.58465207 0 0 1 -0.534483,0.562351 0.5158695,0.58465207 0 0 1 -0.496557,-0.605364 0.5158695,0.58465207 0 0 1 0.533805,-0.563177 0.5158695,0.58465207 0 0 1 0.497286,0.604595" /><path
         style="fill:#593602;fill-opacity:1;stroke:#010101;stroke-width:0.3;stroke-opacity:1"
         id="path66"
         sodipodi:type="arc"
         sodipodi:cx="86.711929"
         sodipodi:cy="51.162788"
         sodipodi:rx="0.59611583"
         sodipodi:ry="0.58465207"
         sodipodi:start="0.037475209"
         sodipodi:end="0.034745446"
         sodipodi:open="true"
         sodipodi:arc-type="arc"
         d="m 87.307627,51.184693 a 0.59611583,0.58465207 0 0 1 -0.617625,0.562352 0.59611583,0.58465207 0 0 1 -0.5738,-0.605364 0.59611583,0.58465207 0 0 1 0.616842,-0.563178 0.59611583,0.58465207 0 0 1 0.574641,0.604595" /><path
         id="path69"
         style="fill:#040239;fill-opacity:1;stroke:#2845b6;stroke-width:0.3;stroke-opacity:1"
         d="M 88.729552,50.532283 V 50.28008 l 1.650783,0.343913 -1.857132,7.589012 -1.604925,-0.137565 z m -0.619043,0.320985 0.550259,-0.137565 -1.673709,7.199244 -1.880058,0.06878 c 0,0 -3.186927,-0.435623 -3.278637,-0.596116 -0.09171,-0.160491 -3.462057,-1.30687 -3.462057,-1.467361 0,-0.160494 -2.407391,-2.522029 -2.407391,-2.522029 l -0.366839,-3.049363 3.370347,0.641972 0.527333,0.435623 0.733679,-0.206349 2.476174,0.366843 0.481478,0.2522 0.641972,-0.09171 2.934724,-0.04586 z" /><path
         id="path71"
         style="fill:#040239;fill-opacity:1;stroke:#2845b6;stroke-width:0.3;stroke-opacity:1"
         d="m 83.63964,59.817933 -4.791855,-2.430319 -0.917101,-1.834203 4.0811,1.948841 3.232782,0.527333 z m 1.604926,-1.719564 -1.536144,1.65078 1.536144,0.710756 1.513218,-2.476175 -1.581999,-0.04585 z" /><path
         style="fill:#a9711d;fill-opacity:1;stroke:#010101;stroke-width:0.3;stroke-opacity:1"
         d="m 89.188101,56.722716 1.352725,0.02294 -0.940028,2.544956 4.241594,0.733681 0.917101,-3.370347 -0.160494,-2.797159 -1.673709,-1.925913 -2.59081,-0.366842 -1.329799,5.11284 z"
         id="path72" /><path
         style="fill:none;fill-opacity:1;stroke:#010101;stroke-width:0.3;stroke-opacity:1"
         d="m 89.509088,59.244745 4.310375,0.871247 -1.329796,2.68252 c 0,0 -3.89768,-0.917101 -3.89768,-1.03174 0,-0.114636 0.917101,-2.522027 0.917101,-2.522027 z"
         id="path73" /><path
         id="path77"
         style="fill:#382929;fill-opacity:1;stroke:#010101;stroke-width:0.3;stroke-opacity:1"
         d="m 91.89355,62.706802 -1.054666,1.39858 0.481478,-0.02294 1.008811,-1.352724 z m 1.352725,0.229275 -1.467361,1.329798 0.320985,0.252201 1.352724,-1.215157 z m 0.75661,0.710753 -1.352724,0.985885 -0.298059,1.650783 v 0.596114 m -3.943535,-5.044056 -0.75661,0.206348 -0.756608,2.567882 -0.02291,0.504407 3.645477,1.490289 3.89768,0.917102 c 0,0 0.871246,-0.06878 0.917101,-0.160494 0.04586,-0.09171 0.36684,-1.444434 0.36684,-1.444434 0,0 -0.160491,-1.100521 -0.27513,-1.123448 -0.114638,-0.02294 -2.338607,-2.15519 -2.338607,-2.15519 l -0.733682,0.137568 z" /><path
         style="fill:#a9711d;fill-opacity:1;stroke:#010101;stroke-width:0.3;stroke-opacity:1"
         d="m 84.09819,60.001353 -0.710753,0.504407 3.599622,3.393273 c 0,0 0.504407,-1.627854 0.664898,-1.811274 0.160493,-0.18342 0.802465,-0.275132 0.802465,-0.275132 l 0.962956,-2.499101 1.100521,-2.522027 -1.581999,-0.02294 -0.435623,1.467363 -1.627854,-0.183419 -1.650783,2.384462 z"
         id="path78" /><path
         style="fill:none;fill-opacity:1;stroke:#010101;stroke-width:0.3;stroke-opacity:1"
         d="m 83.112307,60.50576 -2.201045,1.421506 3.049363,3.370347 2.659594,-1.742493 z"
         id="path79" /><path
         id="path83"
         style="fill:#382929;fill-opacity:1;stroke:#010101;stroke-width:0.3;stroke-opacity:1"
         d="m 83.868915,65.412251 -2.063477,0.320985 0.2522,0.458552 h 1.902987 z m -0.733682,-0.779536 -1.994696,0.619043 0.275132,0.275129 2.017623,-0.619043 z m 0.802463,1.559073 -2.109332,0.09171 -1.21516,1.857129 m 3.416205,-2.728376 -0.137568,3.897681 -1.215157,1.238086 -3.003508,-3.118144 -2.659594,-2.957653 2.155188,-2.155187 1.788347,-0.481478 z" /><path
         id="path86"
         style="fill:#a9711d;fill-opacity:1;stroke:#010101;stroke-width:0.3;stroke-opacity:1"
         d="m 96.364425,43.745732 0.596114,0.114638 c 0,0 0.06878,1.008811 0.06878,1.100521 0,0.09171 -1.581999,0.733682 -1.581999,0.733682 l -1.444435,-0.160494 -0.206348,-1.008811 c 0,0 0.252203,2.155189 0.412696,2.132262 0.160493,-0.02293 1.39858,-0.09171 1.39858,-0.09171 l 1.077594,-0.366841 0.343913,-0.343913 0.06878,-0.894174 -0.04585,1.123449 -1.627855,1.536145 -0.917101,0.320985 c 0,0 -2.636666,0.206348 -2.636666,-0.18342 0,-0.389768 -0.435623,-1.375652 -0.435623,-1.375652 l 0.320985,-0.917101 -1.719565,2.705449 1.902985,-0.389768 -0.527336,-1.650783 0.940029,-2.246898 0.802464,-0.298058 0.894173,-1.169304 1.719565,0.04585 0.710754,0.550261 z m -3.003511,-0.45855 0.596114,-0.802465 1.811276,-0.04586 0.687827,0.641972 0.04586,0.664898 -1.857132,0.596116 -0.985882,0.160494 m -1.811282,0.664903 1.03174,1.12345 c 0,0 0.664898,-0.206349 0.756608,-0.320987 0.09171,-0.114636 0.18342,-0.664898 0.18342,-0.779537 0,-0.114636 -0.504404,-1.719564 -0.504404,-1.719564 l -0.710753,0.320984 z" /></g><g
       id="g107"
       transform="matrix(1.0806158,0,0,0.99314155,131.55346,6.9700419)"
       inkscape:label="phrase3"><g
         id="g46"
         transform="translate(-7.2679215,-22.842039)"><path
           style="fill:#141142;fill-opacity:1;stroke:#000000;stroke-width:0.3;stroke-opacity:1"
           d="m 20.361849,52.023991 3.518015,-3.304802 12.792785,-7.782279 6.822818,-2.45195 -4.903901,-2.238737 -7.995488,-0.319821 -5.117115,2.238738 -5.010508,2.878378 -2.77177,4.051049 0.31982,3.624622 z"
           id="path1" /><path
           style="fill:#070920;fill-opacity:1;stroke:#000000;stroke-width:0.3;stroke-opacity:1"
           d="m 20.468455,52.023991 0.63964,1.385885 7.249245,-4.370869 7.142636,-4.797293 8.95495,-3.731231 1.283226,-0.539067 -1.941091,-1.52649 -3.825645,1.26265 -4.994071,1.903402 c -2.201744,1.743259 -4.584882,2.852831 -7.387458,4.673698 -3.307597,2.221934 -6.201508,4.114299 -7.121432,5.739315 z"
           id="path2"
           sodipodi:nodetypes="ccccccccccc" /><path
           style="fill:#a9711d;fill-opacity:1;stroke:#000000;stroke-width:0.3;stroke-opacity:1"
           d="m 49.22458,48.772288 0.150765,1.658409 2.035321,1.281496 -0.150765,0.979969 -0.753822,0.829204 -1.055351,0.527677 0.07538,1.583026 -1.281499,2.07301 -4.070639,1.583026 -5.578284,0.565367 -0.527674,-2.638377 -2.638377,-1.356881 -0.527675,-1.507644 0.150765,-1.507643 2.261465,-0.527675 1.733791,0.904587 1.130734,-2.638378 1.055349,1.507644 1.130734,-4.221403 0.753821,2.638377 1.959938,-1.583028 0.07538,-2.261466 3.241434,2.864525 z"
           id="path5"
           sodipodi:nodetypes="cccccccccccccccccccccccc" /><path
           style="fill:#321b0d;fill-opacity:1;stroke:#000000;stroke-width:0.3;stroke-opacity:1"
           d="m 50.958371,41.610978 2.71376,-0.07538 -0.829204,1.658408 -2.035321,1.356881 -1.658408,-0.07538 0.829204,1.507643 -0.753822,2.487613 -0.979969,1.130733 -2.939904,-2.713759 -0.150765,1.959938 -2.186085,1.959935 -0.753822,-2.487612 -1.055352,3.844493 -1.055348,-1.206116 -0.753822,2.487612 -1.884556,-0.979969 -2.41223,0.527677 -0.376912,1.281497 0.603057,1.73379 1.281499,0.753822 1.432261,0.452295 0.603056,2.713759 -3.090669,0.150765 -5.653664,-0.527677 -4.824463,-1.507643 7.688985,-5.578285 7.46284,-4.82446 4.82446,-2.939907 z"
           id="path4" /><path
           style="fill:#a9711d;fill-opacity:1;stroke:#000000;stroke-width:0.3;stroke-opacity:1"
           d="m 36.711135,60.041927 1.997628,0.565367 2.902215,0.07538 c 0,0 0.791514,0.30153 0.791514,0.150765 0,-0.150765 0.339219,-1.432263 0.339219,-1.432263 l -1.99763,0.113074 -3.693726,0.527675 -0.150765,-0.03769 z"
           id="path6"
           sodipodi:nodetypes="cccsccccc" /><path
           style="fill:#ffffff;fill-opacity:1;stroke:#000000;stroke-width:0.3;stroke-opacity:1"
           d="m 36.59806,60.155002 -2.826832,3.166052 2.299158,-0.565367 1.620716,-0.33922 1.696101,0.866894 1.055351,0.716132 0.603057,-0.452292 1.356881,-2.977597 0.942277,2.148393 c 0,0 1.356878,1.017659 1.319188,0.791511 -0.03769,-0.226147 -1.620718,-2.751449 -1.620718,-2.751449 H 42.06327 l -3.505271,-0.150765 z"
           id="path7" /><path
           id="path9"
           style="fill:none;stroke:#000000;stroke-width:0.3;stroke-opacity:1"
           d="m 35.919621,62.793377 2.073011,-0.33922 2.261467,1.394571 1.055349,3.392199 -1.055349,0.829204 m -4.598315,-5.239062 -1.356881,1.281496 0.640749,3.505274 c 0,0 0.376912,1.583026 0.376912,1.733791 0,0.150765 4.259093,0.113072 4.259093,0.113072 0,0 1.959939,-0.188454 1.959939,-0.904586 0,-0.716129 -0.07538,-1.168424 -0.07538,-1.168424 l -1.206114,0.829204 -2.110703,0.03769 -3.128361,0.452292" /><path
           id="path11"
           style="fill:#ffffff;fill-opacity:1;stroke:#000000;stroke-width:0.3;stroke-opacity:1"
           d="m 41.384831,67.391692 0.339219,1.469953 1.658409,-0.263837 0.376912,-2.186085 -2.37454,0.753822 z m -0.33922,-1.771481 h 2.638377 l 0.113073,1.017659 -2.336848,0.716132 z" /><path
           style="fill:#f8f8f8;fill-opacity:1;stroke:#000000;stroke-width:0.3;stroke-opacity:1"
           d="m 44.927795,63.471818 0.753821,7.010546 -0.979969,0.829204 -1.884553,0.07538 -1.319188,-2.826834 -1.017662,-4.485241 0.716132,-0.678439 1.243806,-2.562995 0.753822,1.733791 z"
           id="path12" /><path
           style="fill:#a9711d;fill-opacity:1;stroke:#000000;stroke-width:0.3;stroke-opacity:1"
           d="m 36.334223,69.540085 4.070639,-0.07538 1.206116,-0.716129 1.168424,2.562995 1.771483,-0.07538 1.959935,-0.414602 -0.226144,1.243806 0.376909,1.319188 1.545336,1.130732 -2.299157,0.716131 -5.352137,-0.07538 c 0,0 -3.203745,-2.525302 -3.203745,-2.864525 0,-0.339219 -1.017659,-2.751449 -1.017659,-2.751449 z"
           id="path13" /><path
           id="path15"
           style="fill:#a9711d;fill-opacity:1;stroke:#000000;stroke-width:0.3;stroke-opacity:1"
           d="m 52.164487,69.35163 -1.469953,-0.150765 m -2.37454,1.206116 1.394571,-0.301529 0.942276,-0.829204 h -0.376909 l -1.733791,0.188454 -1.696101,1.130734 -0.565365,1.469954 0.452293,1.394571 1.35688,0.866895 1.959938,0.226147 2.826832,-0.263838 0.716131,-1.959937 -1.281497,0.07538 -0.829205,0.150764 1.959938,-0.263835 -0.07538,-1.469953 -0.489985,-0.67844 -1.73379,0.979968 1.771479,-1.093042 -0.829204,-0.678439 -1.583026,1.168424" /><path
           style="fill:#a9711d;fill-opacity:1;stroke:#000000;stroke-width:0.3;stroke-opacity:1"
           d="m 45.153942,66.713253 3.166052,-0.67844 1.997628,2.75145 0.678442,0.376912 -2.525305,0.150762 -1.620719,1.432264 -1.696098,0.301527 0.565367,-0.866894 z"
           id="path16" /><path
           id="path21"
           style="fill:#a9711d;fill-opacity:1;stroke:#000000;stroke-width:0.3;stroke-opacity:1"
           d="m 53.295219,69.577777 -1.545334,-0.301529 m -2.902214,-3.995256 -0.376912,0.791511 m 5.992886,-0.942276 -0.565367,0.866894 -2.03532,0.640749 -0.67844,-0.414602 -0.188454,-1.243806 1.73379,-0.489985 m 2.600685,3.580654 -2.638377,0.188458 -0.188455,-0.716132 2.261465,-0.565367 -2.073009,0.753823 -1.243807,-0.942277 1.130733,-0.565367 1.093042,-0.263838 1.01766,-0.829204 m -6.14365,0.527674 0.904587,-0.829204 1.168423,-0.489985 2.035321,-0.565366 1.281496,-0.07538 1.017662,0.904587 0.489981,0.414602 0.414603,0.603059 0.07538,0.565367 0.226147,1.130731 -0.376909,1.017662 -2.525305,1.017659 -0.452292,-1.093041 0.339219,-0.150765 h 1.469951 l 0.904587,-0.03769" /><path
           style="fill:#ffffff;fill-opacity:1;stroke:#000000;stroke-width:0.3;stroke-opacity:1"
           d="m 33.507391,63.697963 -1.507643,2.223775 -1.281499,5.72905 0.791514,2.41223 c 0,0 0.979967,-0.03769 1.206114,0 0.226147,0.03769 3.279127,0.376912 3.279127,0.376912 0,0 4.296785,0.301527 4.14602,0.301527 -0.150764,0 -2.713759,-2.035319 -2.713759,-2.035319 l -1.130732,-3.279126 c 0,0 -1.206116,0.603057 -1.206116,-0.150764 0,-0.753822 -0.791514,-5.201373 -0.791514,-5.201373 l 0.979969,-1.055351 z"
           id="path22"
           sodipodi:nodetypes="ccccscsccsccc" /><path
           style="fill:none;stroke:#000000;stroke-width:0.3;stroke-opacity:1"
           id="path23"
           sodipodi:type="arc"
           sodipodi:cx="33.017406"
           sodipodi:cy="74.7603"
           sodipodi:rx="0.52767545"
           sodipodi:ry="0.58421206"
           sodipodi:start="0.037475209"
           sodipodi:end="0.034745446"
           sodipodi:open="true"
           sodipodi:arc-type="arc"
           d="m 33.544711,74.782188 a 0.52767545,0.58421206 0 0 1 -0.546715,0.561928 0.52767545,0.58421206 0 0 1 -0.507921,-0.604908 0.52767545,0.58421206 0 0 1 0.546022,-0.562754 0.52767545,0.58421206 0 0 1 0.508666,0.60414" /><path
           style="fill:none;stroke:#000000;stroke-width:0.3;stroke-opacity:1"
           id="path24"
           sodipodi:type="arc"
           sodipodi:cx="36.767673"
           sodipodi:cy="75.306824"
           sodipodi:rx="0.62190318"
           sodipodi:ry="0.71613097"
           sodipodi:start="0.037475209"
           sodipodi:end="0.034745446"
           sodipodi:open="true"
           sodipodi:arc-type="arc"
           d="m 37.38914,75.333655 a 0.62190318,0.71613097 0 0 1 -0.644343,0.688815 0.62190318,0.71613097 0 0 1 -0.598621,-0.7415 0.62190318,0.71613097 0 0 1 0.643526,-0.689828 0.62190318,0.71613097 0 0 1 0.599499,0.740559" /><path
           id="path25"
           style="fill:none;stroke:#000000;stroke-width:0.3"
           d="m 41.271242,75.425759 c -0.0152,0.363853 -0.35605,0.647829 -0.761496,0.634436 -0.405446,-0.01339 -0.72211,-0.31909 -0.707462,-0.682961 0.01465,-0.363871 0.954952,-0.991416 0.760531,-0.635368 -0.293155,0.536863 0.70077,0.334574 0.708499,0.682094"
           sodipodi:nodetypes="csssc" /><path
           style="fill:#a9711d;fill-opacity:1;stroke:#000000;stroke-width:0.3;stroke-opacity:1"
           d="m 31.547453,74.063018 0.716132,1.432261 0.33922,-0.113073 h 1.696098 l 2.223775,0.603057 3.354509,-0.188455 0.64075,0.263838 0.753821,-0.67844 -1.168423,-0.339219 -0.678442,-0.30153 -4.108329,-0.226147 z"
           id="path26" /><path
           id="path28"
           style="fill:#040239;fill-opacity:1;stroke:#2845b6;stroke-width:0.3;stroke-opacity:1"
           d="m 47.830009,78.661333 0.527677,1.356879 -12.701902,2.148392 -0.07538,-1.168423 12.400372,-2.186086 z m -15.491042,-3.203744 2.939905,5.427519 7.16131,-1.093044 5.389827,-0.904586 -2.018055,-3.54584 -4.221118,-0.01151 -0.997517,0.730519 -0.716132,-0.226148 -3.015289,0.150765 -1.922246,-0.452292 -1.130734,-0.263837 z"
           sodipodi:nodetypes="cccccccccccccccccc" /><path
           style="fill:#a9711d;fill-opacity:1;stroke:#000000;stroke-width:0.3;stroke-opacity:1"
           d="m 40.065642,81.63893 0.527677,1.432261 -2.562995,4.334478 7.23669,0.829204 2.562995,-4.334478 0.452295,-2.789142 -0.67844,-0.866894 z"
           id="path29" /><path
           style="fill:#ffffff;fill-opacity:1;stroke:#000000;stroke-width:0.3;stroke-opacity:1"
           d="m 38.105704,87.405669 -2.562995,3.995256 6.897473,0.452292 2.826832,-3.693726 z"
           id="path30" /><path
           id="path34"
           style="fill:#382929;fill-opacity:1;stroke:#000000;stroke-width:0.3;stroke-opacity:1"
           d="m 39.726422,91.58938 1.055352,0.226147 -1.243806,1.696098 c 0,0 -0.753822,0.489985 -0.489985,-0.226144 0.263837,-0.716132 0.678439,-1.696101 0.678439,-1.696101 z m 2.487613,0.30153 -1.507644,1.77148 c 0,0 -0.263837,-0.301527 -0.263837,-0.452292 0,-0.150765 0.829204,-1.394571 0.829204,-1.394571 z m 1.658408,0.03769 -1.658408,1.130733 -0.07538,1.281499 v 1.281496 m -6.445181,-4.259095 -1.130731,0.414602 0.07538,3.316819 3.731422,0.640747 4.975225,0.301529 3.203744,-0.339219 0.301527,-1.394571 c 0,0 -0.113072,-0.829204 -0.452292,-1.017659 C 46.05853,93.097023 43.080933,91.25016 43.080933,91.25016 l -0.904587,0.603057 z" /><path
           style="fill:#141142;fill-opacity:1;stroke:#000000;stroke-width:0.3;stroke-opacity:1"
           d="m 46.080677,39.779045 5.021611,1.673871 -14.080205,8.467817 -6.990872,4.233908 -4.824687,3.544668 c 0,0 -2.855427,2.461574 -2.855427,1.870797 0,-0.59078 -1.280018,-5.809317 -1.280018,-5.809317 l 6.203167,-4.430834 7.384723,-4.332371 2.855428,-1.476944 z"
           id="path42"
           sodipodi:nodetypes="cccccsccccc" /><g
           id="g41"><path
             style="fill:#ffffff;fill-opacity:1;stroke:#000000;stroke-width:0.3;stroke-opacity:1"
             id="path39"
             sodipodi:type="arc"
             sodipodi:cx="46.902519"
             sodipodi:cy="51.523113"
             sodipodi:rx="1.6253347"
             sodipodi:ry="1.8807446"
             sodipodi:start="0.037475209"
             sodipodi:end="0.034745446"
             sodipodi:open="true"
             sodipodi:arc-type="arc"
             d="m 48.526713,51.593578 a 1.6253347,1.8807446 0 0 1 -1.683981,1.809007 1.6253347,1.8807446 0 0 1 -1.564488,-1.947371 1.6253347,1.8807446 0 0 1 1.681845,-1.811665 1.6253347,1.8807446 0 0 1 1.566784,1.944898" /><path
             style="fill:#31260c;fill-opacity:1;stroke:#000000;stroke-width:0.3;stroke-opacity:1"
             id="path40"
             sodipodi:type="arc"
             sodipodi:cx="47.088272"
             sodipodi:cy="51.569553"
             sodipodi:rx="0.92876273"
             sodipodi:ry="0.99841994"
             sodipodi:start="0.037475209"
             sodipodi:end="0.034745446"
             sodipodi:open="true"
             sodipodi:arc-type="arc"
             d="m 48.016383,51.606961 a 0.92876273,0.99841994 0 0 1 -0.962275,0.960337 0.92876273,0.99841994 0 0 1 -0.893993,-1.03379 0.92876273,0.99841994 0 0 1 0.961054,-0.961748 0.92876273,0.99841994 0 0 1 0.895305,1.032477" /><path
             style="fill:#ffffff;fill-opacity:1;stroke:#000000;stroke-width:0.354924;stroke-opacity:1"
             id="path41"
             sodipodi:type="arc"
             sodipodi:cx="47.134712"
             sodipodi:cy="51.453457"
             sodipodi:rx="0.39048019"
             sodipodi:ry="0.29760531"
             sodipodi:start="0.037475209"
             sodipodi:end="0.034745446"
             sodipodi:open="true"
             sodipodi:arc-type="arc"
             d="m 47.524918,51.464607 a 0.39048019,0.29760531 0 0 1 -0.404569,0.286254 0.39048019,0.29760531 0 0 1 -0.375862,-0.308148 0.39048019,0.29760531 0 0 1 0.404056,-0.286675 0.39048019,0.29760531 0 0 1 0.376414,0.307757" /></g><path
           style="fill:none;fill-opacity:1;stroke:#000000;stroke-width:0.3;stroke-opacity:1"
           d="m 36.628231,53.957714 1.378482,0.09846 0.393851,0.295389 0.590777,1.181555"
           id="path43" /><path
           id="path45"
           style="fill:#ffffff;fill-opacity:1;stroke:#000000;stroke-width:0.3;stroke-opacity:1"
           d="m 44.800657,56.222362 4.036983,0.09847 -0.787704,1.476944 z m -6.695482,-1.280017 -0.886167,0.393851" /></g><path
         style="fill:#593602;fill-opacity:1;stroke:#000000;stroke-width:0.272096;stroke-opacity:1"
         id="path87"
         sodipodi:type="arc"
         sodipodi:cx="25.936131"
         sodipodi:cy="51.872257"
         sodipodi:rx="0.60577512"
         sodipodi:ry="0.36208516"
         sodipodi:start="0.037475209"
         sodipodi:end="0.034745446"
         sodipodi:open="true"
         sodipodi:arc-type="arc"
         d="m 26.54148,51.885823 a 0.60577512,0.36208516 0 0 1 -0.627633,0.348274 0.60577512,0.36208516 0 0 1 -0.583097,-0.374912 0.60577512,0.36208516 0 0 1 0.626837,-0.348786 0.60577512,0.36208516 0 0 1 0.583953,0.374437" /><path
         style="fill:#593602;fill-opacity:1;stroke:#000000;stroke-width:0.2375;stroke-opacity:1"
         id="path88"
         sodipodi:type="arc"
         sodipodi:cx="28.860472"
         sodipodi:cy="52.429276"
         sodipodi:rx="0.48382834"
         sodipodi:ry="0.44901302"
         sodipodi:start="0.037475209"
         sodipodi:end="0.034745446"
         sodipodi:open="true"
         sodipodi:arc-type="arc"
         d="m 29.34396,52.446098 a 0.48382834,0.44901302 0 0 1 -0.501286,0.431887 0.48382834,0.44901302 0 0 1 -0.465715,-0.46492 0.48382834,0.44901302 0 0 1 0.50065,-0.432521 0.48382834,0.44901302 0 0 1 0.466399,0.46433" /><path
         style="fill:#593602;fill-opacity:1;stroke:#000000;stroke-width:0.2375;stroke-opacity:1"
         id="path89"
         sodipodi:type="arc"
         sodipodi:cx="32.028507"
         sodipodi:cy="52.429276"
         sodipodi:rx="0.48382834"
         sodipodi:ry="0.44901302"
         sodipodi:start="0.037475209"
         sodipodi:end="0.034745446"
         sodipodi:open="true"
         sodipodi:arc-type="arc"
         d="m 32.511996,52.446098 a 0.48382834,0.44901302 0 0 1 -0.501286,0.431887 0.48382834,0.44901302 0 0 1 -0.465716,-0.46492 0.48382834,0.44901302 0 0 1 0.500651,-0.432521 0.48382834,0.44901302 0 0 1 0.466399,0.46433" /></g><g
       id="g106"
       transform="translate(7.6080667,1.0374636)"
       inkscape:label="phrase1"><g
         id="g108"
         transform="matrix(1.1602065,0,0,1.1098918,-127.94348,0.56656957)"><path
           style="fill:#141142;fill-opacity:1;stroke:#000000;stroke-width:0.3"
           d="m 115.75242,29.318606 -1.28169,2.963902 0.56074,1.762321 4.08538,-1.361795 6.88907,-2.082742 11.85561,-2.963902 6.56865,-1.041371 0.56074,-0.640844 -4.48591,-2.803692 -8.8116,2.162848 -8.33097,1.522004 z"
           id="path8" /><path
           style="fill:#321b0d;fill-opacity:1;stroke:#000000;stroke-width:0.3"
           d="m 144.59039,26.354702 1.84242,0.400528 v 0 l -1.68221,1.522005 -2.80369,0.320421 -0.64085,1.60211 -2.56337,1.682213 -1.20158,-2.803692 -1.12148,1.762321 -2.00264,0.961266 v -2.242952 l -2.64348,3.364431 -0.0801,-1.762321 -1.84243,2.002636 -0.25151,-0.608031 -0.793,-0.509788 -1.06206,-0.184089 -0.97709,0.113286 -0.62308,0.354018 -0.38234,0.87797 -0.0566,0.962932 0.52395,1.10454 0.45314,0.722202 h 0.22658 l -0.3257,2.435653 -2.59142,-0.56643 -2.26573,-0.736362 -2.27989,-1.10454 -1.8409,-1.571848 -0.7222,-0.90629 2.98793,-1.147022 11.3003,-3.172015 10.86132,-2.237404 2.2374,-0.368181 z"
           id="path10" /><g
           id="g105"><path
             style="fill:#141142;fill-opacity:1;stroke:#000000;stroke-width:0.3"
             d="m 115.27178,27.55629 v -3.284325 l 0.48064,-2.082743 4.16548,-3.36443 6.56865,-1.76232 5.20686,0.0801 4.4058,0.881161 3.52464,3.524641 -7.2896,1.041371 -7.77023,1.842426 -5.68749,1.76232 -3.52464,1.682215 0.32042,1.441899 8.89171,-2.723586 10.41371,-2.082742 5.52728,-1.201583 -0.96127,-1.76232 -4.64611,0.560738 -6.56865,1.441899 -9.13203,2.48327 -3.84506,1.842425"
             id="path3"
             sodipodi:nodetypes="cccccccccccc" /><path
             style="fill:#a9711d;fill-opacity:1;stroke:#000000;stroke-width:0.3"
             d="m 125.32292,38.319075 0.11329,0.623075 4.10662,0.651396 0.11329,-0.821325 3.65348,0.113287 2.20908,-0.453147 1.81258,-1.472721 0.3965,-0.90629 1.67098,-0.368181 0.90628,-0.934612 -0.45314,-0.19825 -0.93461,-0.821324 0.085,-2.124118 -0.31154,0.339858 -1.10454,-2.917122 -1.07621,1.699295 -2.06748,1.019577 v -2.32237 l -2.69055,3.455231 -0.0283,-1.784257 -1.86922,1.982509 -0.36818,-0.708038 -0.62308,-0.424825 -0.96293,-0.02832 -0.93461,-0.02832 -0.79301,0.396502 -0.3965,0.764682 -0.0283,1.047899 0.62308,1.387755 0.22657,0.453144 h 0.33986 l -0.31154,2.52062 z"
             id="path14"
             sodipodi:nodetypes="ccccccccccccccccccccccccccccccccc" /><path
             style="fill:none;fill-opacity:1;stroke:#000000;stroke-width:0.3"
             d="m 127.16382,33.022942 0.99125,-0.02832 0.53811,0.708041 0.31154,1.246147 -0.0283,0.453144"
             id="path17" /><path
             style="fill:none;fill-opacity:1;stroke:#000000;stroke-width:0.3"
             d="m 128.83479,34.269092 h -0.45314 l -0.59476,0.793004"
             id="path18" /><path
             style="fill:#ffffff;fill-opacity:1;stroke:#000000;stroke-width:0.394331"
             id="path19"
             sodipodi:type="arc"
             sodipodi:cx="136.70819"
             sodipodi:cy="33.26368"
             sodipodi:rx="1.7937274"
             sodipodi:ry="1.807893"
             sodipodi:start="0.037475209"
             sodipodi:end="0.034745446"
             sodipodi:open="true"
             sodipodi:arc-type="arc"
             d="m 138.50066,33.331415 a 1.7937274,1.807893 0 0 1 -1.85845,1.738934 1.7937274,1.807893 0 0 1 -1.72658,-1.871939 1.7937274,1.807893 0 0 1 1.8561,-1.741489 1.7937274,1.807893 0 0 1 1.72911,1.869562" /><path
             style="fill:#321b0d;fill-opacity:1;stroke:#000000;stroke-width:0.3"
             id="path20"
             sodipodi:type="arc"
             sodipodi:cx="137.04803"
             sodipodi:cy="33.433605"
             sodipodi:rx="0.90629005"
             sodipodi:ry="1.1753448"
             sodipodi:start="0.037475209"
             sodipodi:end="0.034745446"
             sodipodi:open="true"
             sodipodi:arc-type="arc"
             d="m 137.95369,33.477641 a 0.90629005,1.1753448 0 0 1 -0.93899,1.130514 0.90629005,1.1753448 0 0 1 -0.87236,-1.216983 0.90629005,1.1753448 0 0 1 0.9378,-1.132174 0.90629005,1.1753448 0 0 1 0.87364,1.215437" /><path
             style="fill:#ffffff;fill-opacity:1;stroke:#000000;stroke-width:0.3"
             id="path27"
             sodipodi:type="arc"
             sodipodi:cx="137.10469"
             sodipodi:cy="33.26368"
             sodipodi:rx="0.3681803"
             sodipodi:ry="0.38234109"
             sodipodi:start="0.037475209"
             sodipodi:end="0.034745446"
             sodipodi:open="true"
             sodipodi:arc-type="arc"
             d="m 137.47261,33.278004 a 0.3681803,0.38234109 0 0 1 -0.38146,0.367758 0.3681803,0.38234109 0 0 1 -0.3544,-0.395886 0.3681803,0.38234109 0 0 1 0.38098,-0.368298 0.3681803,0.38234109 0 0 1 0.35492,0.395383" /><path
             style="fill:#fbfbfb;fill-opacity:1;stroke:#000000;stroke-width:0.3"
             d="m 133.47953,36.563138 3.85173,0.33986 -0.87797,0.76468 z"
             id="path31" /><path
             id="path33"
             style="fill:#ffffff;fill-opacity:1;stroke:#000000;stroke-width:0.3"
             d="m 129.88269,40.669765 c 0,0 0.76468,1.189506 0.87797,1.019577 0.11328,-0.169931 0.793,-0.736362 0.793,-0.736362 l -1.4444,-2.124117 -0.3965,0.594754 m -4.24823,-0.481467 c 0,0 -0.28322,-0.481468 -0.42483,-0.396502 -0.1416,0.08496 -1.52936,1.869223 -1.52936,1.869223 l -0.56643,0.481467 1.61433,0.08496 1.78425,-0.05664 1.01958,0.651397 0.62308,0.283215 c 0,0 0.90629,0.226573 1.07621,-0.08497 0.16993,-0.311536 1.13287,-1.501042 1.13287,-1.501042 l -0.50979,-0.708038 -4.3332,-0.708041" /><path
             id="path36"
             style="fill:#ffffff;fill-opacity:1;stroke:#000000;stroke-width:0.3"
             d="m 123.42537,46.192469 0.0283,0.90629 1.75593,0.396502 1.6993,-0.169929 1.33111,-0.424823 0.67972,-0.08496 V 45.82429 Z m 1.33112,-5.182847 -1.24615,0.962936 v 2.265725 l -0.11329,1.897544 2.2374,0.05664 2.0958,-0.169929 1.07622,-0.141608 -0.31154,-3.908374 -1.07622,-0.509789 -1.24615,-0.764683 z" /><path
             style="fill:#ffffff;fill-opacity:1;stroke:#000000;stroke-width:0.3"
             d="m 123.05719,41.037946 -1.27447,1.586008 -0.3965,2.039151 -0.50979,2.294046 -0.53811,3.341944 2.32237,0.991257 c 0,0 2.03915,0.113286 2.15244,0.226573 0.11329,0.113284 -0.76468,-4.248235 -0.76468,-4.248235 l -0.70804,-0.226573 -0.0567,-0.90629 0.28322,-4.333201 1.24615,-0.793004 z"
             id="path37" /><path
             style="fill:#ffffff;fill-opacity:1;stroke:#000000;stroke-width:0.3"
             d="m 128.55158,46.92883 1.50104,4.219914 c 0,0 0.96293,0.254894 1.4444,-0.283215 0.48147,-0.53811 1.21782,-0.708041 1.21782,-0.708041 l 0.085,-3.540194 -0.59475,-3.483554 -1.10454,-1.670971 -0.39651,0.254894 -0.793,-1.10454 -1.0479,1.30279 -0.45314,0.05664 0.33986,3.65348 0.36818,0.113287 -0.0283,1.161184 z"
             id="path38" /><path
             style="fill:#a9711d;fill-opacity:1;stroke:#000000;stroke-width:0.3"
             d="m 124.13341,47.155404 0.79301,0.283215 1.86922,-0.141608 1.58601,-0.594754 1.67097,4.276556 0.59475,0.962935 -1.24615,0.05664 -1.33111,0.113287 -1.67097,0.90629 -0.53811,1.161185 -1.01958,-2.8888 z"
             id="path44" /><path
             style="fill:#a9711d;fill-opacity:1;stroke:#000000;stroke-width:0.3"
             d="m 125.94599,54.34908 0.59476,1.897544 0.99125,0.113287 -0.2549,-0.708038 0.19826,0.623072 1.47272,0.311539 0.56643,-0.113286 -0.96293,-1.217827 0.84964,1.217827 c 0,0 0.19825,-0.05664 0.33986,-0.05664 0.14161,0 1.10454,-0.02832 1.10454,-0.02832 l 0.42482,-0.509788 -0.96293,-1.586008 0.79301,1.529366 0.93461,-0.509789 c 0,0 0.3965,-0.05664 0.0566,-0.736359 -0.33986,-0.679718 -0.87797,-1.416079 -0.87797,-1.416079 0,0 0.99126,1.67097 1.01958,1.529363 0.0283,-0.141608 0.3965,-0.849646 0.3965,-0.849646 l -0.99125,-0.934612 -0.93462,-0.962932 -2.71886,0.05664 -1.52937,0.90629 z"
             id="path50"
             sodipodi:nodetypes="cccccccccscccccscscccccc" /><path
             style="fill:#a9711d;fill-opacity:1;stroke:#000000;stroke-width:0.3"
             d="m 120.28168,50.35574 0.31154,1.670971 0.90629,0.509788 0.96293,-0.538109 1.55769,0.311539 c 0,0 0.1416,0.509786 0.50978,0.509786 0.36819,0 0.62308,0 0.62308,0 l -0.28322,-1.217827 -2.09579,-0.339857 z"
             id="path51" /><path
             style="fill:#593602;fill-opacity:1;stroke:#000000;stroke-width:0.271193"
             id="path52"
             sodipodi:type="arc"
             sodipodi:cx="124.52991"
             sodipodi:cy="52.125839"
             sodipodi:rx="0.43922758"
             sodipodi:ry="0.53835255"
             sodipodi:start="0.037475209"
             sodipodi:end="0.034745446"
             sodipodi:open="true"
             sodipodi:arc-type="arc"
             d="m 124.96883,52.146009 a 0.43922758,0.53835255 0 0 1 -0.45508,0.517818 0.43922758,0.53835255 0 0 1 -0.42278,-0.557424 0.43922758,0.53835255 0 0 1 0.45449,-0.518578 0.43922758,0.53835255 0 0 1 0.42341,0.556716" /><path
             style="fill:#593602;fill-opacity:1;stroke:#000000;stroke-width:0.3"
             id="path68"
             sodipodi:type="arc"
             sodipodi:cx="121.65527"
             sodipodi:cy="51.616051"
             sodipodi:rx="0.66555673"
             sodipodi:ry="0.63723516"
             sodipodi:start="0.037475209"
             sodipodi:end="0.034745446"
             sodipodi:open="true"
             sodipodi:arc-type="arc"
             d="m 122.32036,51.639926 a 0.66555673,0.63723516 0 0 1 -0.68957,0.612929 0.66555673,0.63723516 0 0 1 -0.64064,-0.65981 0.66555673,0.63723516 0 0 1 0.6887,-0.61383 0.66555673,0.63723516 0 0 1 0.64158,0.658972" /><path
             id="path76"
             style="fill:#040239;fill-opacity:1;stroke:#2845b6;stroke-width:0.3;stroke-opacity:1"
             d="m 119.88518,56.303269 h -0.45315 v 0.906288 l 3.9367,0.481468 -0.0566,-1.302793 z m 0.67972,-4.163271 -0.31154,2.8888 -0.33986,1.302792 3.45523,0.368181 -1.67097,-4.191593 z" /><path
             id="path80"
             style="fill:#040239;fill-opacity:1;stroke:#2845b6;stroke-width:0.3;stroke-opacity:1"
             d="m 133.02638,55.963409 c 0,-0.453144 -0.33986,-2.209083 -0.33986,-2.209083 l -0.33985,0.849649 v 0.56643 l -0.90629,0.396502 -0.19826,0.509789 z m -9.82758,0.849646 0.48147,1.132864 9.34611,-0.736362 c 0,0 0.0567,-1.30279 -0.11328,-1.30279 -0.16993,0 -2.01083,0.396502 -2.01083,0.396502 l -1.4444,0.311536 h -0.70804 -1.13287 z m -1.64265,-4.276556 1.78426,4.248235 4.64474,-0.05664 h 1.04789 c 0,0 -1.47272,-0.424823 -1.67097,-0.424823 -0.19825,0 -0.96293,-0.08497 -0.96293,-0.08497 l -1.07622,-3.313623 -1.18951,-0.113286 c 0,0 -0.085,-0.453144 -0.25489,-0.53811 -0.16993,-0.08497 -1.50104,-0.368181 -1.50104,-0.368181 z" /><path
             style="fill:#a9711d;fill-opacity:1;stroke:#000000;stroke-width:0.3"
             d="m 132.48827,50.412382 0.0566,0.934612 -0.59476,0.679717 -0.93461,-0.02832 -0.70804,-0.736359 c 0,0 0.93461,-0.05665 1.07622,-0.198253 0.14161,-0.141607 1.10454,-0.651396 1.10454,-0.651396 z"
             id="path81" /><path
             style="fill:#593602;fill-opacity:1;stroke:#000000;stroke-width:0.3"
             id="path82"
             sodipodi:type="arc"
             sodipodi:cx="131.78024"
             sodipodi:cy="51.417801"
             sodipodi:rx="0.45314503"
             sodipodi:ry="0.38234109"
             sodipodi:start="0.037475209"
             sodipodi:end="0.034745446"
             sodipodi:open="true"
             sodipodi:arc-type="arc"
             d="m 132.23307,51.432126 a 0.45314503,0.38234109 0 0 1 -0.4695,0.367757 0.45314503,0.38234109 0 0 1 -0.43618,-0.395886 0.45314503,0.38234109 0 0 1 0.4689,-0.368297 0.45314503,0.38234109 0 0 1 0.43682,0.395383" /><path
             style="fill:#040239;fill-opacity:1;stroke:#000000;stroke-width:0.3"
             d="m 131.18548,52.083356 0.90629,0.08496 0.6514,1.302792 -0.0566,0.368181 -1.86922,-1.869223 z"
             id="path84" /><path
             style="fill:#a9711d;fill-opacity:1;stroke:#000000;stroke-width:0.3"
             d="m 132.60156,51.658532 0.67972,-0.708039 1.55764,-0.991258 -0.73636,0.623075 -0.70804,0.708039 c 0,0 -0.0566,0.764682 -0.0566,0.934611 0,0.16993 0.99126,0.339859 1.10454,0.339859 0.11329,0 0.70804,-0.254894 0.70804,-0.254894 l 0.16993,-0.53811 0.50979,-0.05664 0.56643,0.708038 -0.59475,-0.651396 -0.50979,0.113286 -0.2549,0.424826 0.39651,0.849646 2.12411,1.217826 1.35944,-0.934611 0.31153,-0.764683 -0.11328,-0.594751 -1.24615,-0.594755 -0.67972,-0.368178 h -0.48146 l -0.53811,0.169929 -0.19825,0.311536 0.31153,0.764683 2.66223,1.047898 0.28321,-0.736362 -0.11328,-1.10454 -2.46398,-1.472721 -1.04789,-0.424823 -1.21783,0.283215 -1.10454,0.906291 -0.93461,1.076219 h -0.22658 l 0.53811,1.161184 0.53811,1.047898 0.59476,0.05664 0.82132,0.623074 1.13286,0.141608 -1.38775,-1.586007 1.55768,1.75594 1.52937,-0.623075 1.47272,-1.076219 0.3965,-0.764683 -0.14161,-0.594752 0.0283,-0.566432 -3.59684,-1.81258 -1.01958,0.226573 -1.27447,0.934611 z"
             id="path85" /><path
             style="fill:#a9711d;fill-opacity:1;stroke:#000000;stroke-width:0.3"
             d="m 134.92393,49.845952 -0.50979,0.226573 -1.72762,1.4444 -0.19825,-1.302793 h 0.39651 v -2.492298 z"
             id="path90" /><path
             style="fill:#a9711d;fill-opacity:1;stroke:#000000;stroke-width:0.3"
             d="m 126.82396,57.804311 0.53811,1.755937 -1.07622,3.228657 4.89963,0.169931 0.56643,-3.058728 -0.085,-2.492299 z"
             id="path91" /><path
             style="fill:#ffffff;fill-opacity:1;stroke:#000000;stroke-width:0.3"
             d="m 126.22921,62.84555 -0.99126,3.341944 5.12621,0.198249 0.84964,-3.426907 z"
             id="path92" /><path
             id="path96"
             style="fill:#382929;fill-opacity:1;stroke:#000000;stroke-width:0.3"
             d="m 128.94808,66.385743 -0.79301,1.189506 -0.0566,0.311539 c 0,0 0.62307,0.339857 0.67972,0.226571 0.0566,-0.113284 0.76468,-1.670971 0.76468,-1.670971 z m 1.47272,-0.08496 -0.56643,0.764681 -0.53811,0.821327 0.53811,0.396502 0.22657,-0.849648 0.76468,-0.679718 z m 0.87797,0.509789 -0.99126,0.906288 -0.14161,1.755939 0.28322,0.56643 m -5.26781,-3.79509 -1.07622,0.424825 0.11329,2.605583 1.4444,0.538109 4.02166,0.368181 3.9367,-0.141608 0.48146,-0.90629 -0.11328,-0.821325 -2.23741,-1.217827 -1.1895,-0.679717 z" /><path
             style="fill:#a9711d;fill-opacity:1;stroke:#000000;stroke-width:0.3"
             d="m 122.51908,57.662704 0.99126,-0.05664 0.14161,0.226573 2.80383,-0.08496 0.82132,1.387758 -2.01083,3.511872 -4.61641,-1.217826 z"
             id="path97" /><path
             style="fill:#ffffff;fill-opacity:1;stroke:#000000;stroke-width:0.3"
             d="m 120.53657,61.372829 -1.27447,2.690547 c 0,0 4.61642,1.869224 4.64474,1.755937 0.0283,-0.113287 1.35943,-3.200337 1.35943,-3.200337 z"
             id="path98" /><path
             id="path101"
             style="fill:#382929;fill-opacity:1;stroke:#000000;stroke-width:0.3"
             d="m 124.55824,65.819313 -1.78426,1.331113 0.87797,0.169929 0.31153,-0.566431 0.90629,-0.764682 z m -1.75594,-0.254894 -1.18951,1.189505 0.62308,0.169929 1.55768,-1.132861 z m -3.6818,-1.614329 -0.84965,0.169928 -0.84965,2.32237 0.36818,1.501042 2.52062,0.764683 4.04998,0.821325 -0.25489,-2.832156 1.33112,-0.566433 -1.41608,-0.56643 -0.2549,0.311539 z" /><path
             id="path103"
             style="fill:none;fill-opacity:1;stroke:#000000;stroke-width:0.3"
             d="m 131.36177,44.351117 0.15858,1.37441 -1.3744,0.898652 h -1.42727 v -1.110102 -0.58148 l 1.32154,0.05286 z m -2.48451,-0.687205 2.64309,-0.05286 v 0.528619 l -1.58585,0.898652 -1.26868,-0.05286 z" /><path
             style="fill:#070920;fill-opacity:1;stroke:#000000;stroke-width:0.3"
             d="m 139.31988,21.031709 1.2157,2.0667 -9.60407,2.552982 -6.80795,1.215705 c 0,0 -8.87465,4.254971 -8.87465,2.309841 0,-1.945129 0,-1.945129 0,-1.945129 l 5.3491,-1.945129 7.41581,-1.701988 4.98439,-1.215705 z"
             id="path104" /></g></g></g></g></svg>
