<?xml version="1.0" encoding="UTF-8" standalone="no"?>
<!-- Created with Inkscape (http://www.inkscape.org/) -->

<svg
   width="210mm"
   height="297mm"
   viewBox="0 0 210 297"
   version="1.1"
   id="svg1"
   xml:space="preserve"
   inkscape:version="1.3.2 (091e20e, 2023-11-25, custom)"
   sodipodi:docname="drawing.svg"
   xmlns:inkscape="http://www.inkscape.org/namespaces/inkscape"
   xmlns:sodipodi="http://sodipodi.sourceforge.net/DTD/sodipodi-0.dtd"
   xmlns="http://www.w3.org/2000/svg"
   xmlns:svg="http://www.w3.org/2000/svg"><sodipodi:namedview
     id="namedview1"
     pagecolor="#ffffff"
     bordercolor="#000000"
     borderopacity="0.25"
     inkscape:showpageshadow="2"
     inkscape:pageopacity="0.0"
     inkscape:pagecheckerboard="0"
     inkscape:deskcolor="#d1d1d1"
     inkscape:document-units="mm"
     inkscape:zoom="0.6625"
     inkscape:cx="443.77358"
     inkscape:cy="0.75471698"
     inkscape:window-width="1366"
     inkscape:window-height="705"
     inkscape:window-x="-8"
     inkscape:window-y="-8"
     inkscape:window-maximized="1"
     inkscape:current-layer="layer1"
     showgrid="true"><inkscape:grid
       id="grid120"
       units="mm"
       originx="0"
       originy="0"
       spacingx="0.99999998"
       spacingy="1"
       empcolor="#0099e5"
       empopacity="0.30196078"
       color="#0099e5"
       opacity="0.14901961"
       empspacing="5"
       dotted="false"
       gridanglex="30"
       gridanglez="30"
       visible="true" /></sodipodi:namedview><defs
     id="defs1" /><g
     inkscape:label="Layer 1"
     inkscape:groupmode="layer"
     id="layer1"><g
       id="g26"
       inkscape:label="phrase1"
       transform="matrix(0.8774981,0,0,0.61653666,32.948586,-54.469745)"><path
         id="path2341"
         style="fill:#321b0d;fill-opacity:1;stroke:none;stroke-width:0.2;stroke-opacity:1"
         d="m 97.150144,135.41942 c 0,0 3.413386,1.11592 3.938516,0.0656 0.52514,-1.05027 -2.756961,6.10471 -6.432913,3.61032 -3.675951,-2.4944 3.571981,5.06147 -5.382643,7.61447 -1.153739,0.32894 -1.903616,3.34774 -2.29747,-4.98879 -0.393851,-8.33654 0.545637,2.74369 -1.453782,3.14357 -1.999419,0.39989 -3.220655,2.20113 -3.220655,2.20113 0,0 0.341491,0.81135 -0.671549,-1.74792 -1.013039,-2.55926 -0.959723,-2.50594 -0.959723,-2.50594 0,0 1.531831,0.80118 -1.747217,3.73366 -3.27905,2.93248 -3.137149,2.91809 -3.137149,2.91809 l 0.03244,-2.19971 c 0,0 -2.779019,2.57873 -2.459111,3.48513 0.319908,0.9064 -2.04976,-2.68635 -3.624909,-2.71781 -0.523583,-0.0104 -3.897603,-0.1015 -3.62632,3.63789 0.362874,5.00188 2.049071,5.05433 2.049071,5.05433 0,0 -2.898767,11.42708 -8.199094,-2.93335 m 6.13137,-2.87605 -0.14064,9.76332 c -0.250574,0.12529 -18.903316,-6.22143 -17.098388,-7.89314 1.280264,-1.18577 13.56761,-5.90204 17.956939,-7.40754 l 12.592275,-5.12739 17.945878,-4.97659"
         sodipodi:nodetypes="cssssscscsccsssccccsccc" /><path
         style="fill:#a9711d;fill-opacity:1;stroke:none;stroke-width:0.2;stroke-opacity:1"
         d="m 67.016642,159.34441 c 0,0 -2.740033,3.63045 0.770515,4.12896 4.898799,0.69564 7.69109,1.13104 7.69109,1.13104 l 0.452417,-1.92278 c 0.268032,0.26804 3.652413,0.60473 6.37154,-0.1131 3.742024,-0.98787 5.437241,-4.26681 5.655214,-6.05108 0.08657,-0.70869 2.37519,-0.98023 2.37519,-0.98023 0,0 2.676802,-1.14989 1.35725,-3.14808 -1.213559,-1.83768 -2.299786,-0.71632 -2.299786,-0.71632 l -10e-7,-4.75037 -0.215945,-0.13837 -0.906405,0.71979 c 0,0 -0.773109,0.4532 -0.879744,-0.79977 -0.106635,-1.25297 -0.533178,-6.47671 -0.533178,-6.47671 0,0 -0.345157,2.73078 -1.118264,3.77047 -0.77311,1.0397 0.825016,0.52021 -0.08139,0.86677 l -1.51166,0.0872 -0.974107,0.60738 -1.166507,1.65144 0.0067,-0.67314 -0.386554,-1.153 -0.216188,-0.62516 c 0,0 -0.73687,-2.05406 -0.683551,-1.72082 l 0.05332,0.33323 -0.119968,0.97306 -0.626483,1.09301 -4.2191,3.72911 0.0065,-2.01826 -1.432652,1.47036 c 0,0 -0.791731,0.49011 -0.829432,1.28185 l -0.383561,0.35939 -1.878523,-1.49044 -0.687653,-1.10643 -1.122014,-0.62084 c 0,0 -0.834284,0.5133 -1.621161,1.12405 l -1.417078,1.09989 c -0.47389,1.89025 -0.34432,2.19687 -0.430293,2.97186 l 0.51021,3.41526 0.590129,1.6101 z"
         id="path2342"
         sodipodi:nodetypes="csccsscsccccscssccccccsccccccsccccsccccc" /><path
         id="path2345"
         style="fill:#ffffff;fill-opacity:1;stroke:#000000;stroke-width:0.2"
         d="m 75.779859,166.41408 c 0,0 1.58346,1.96047 2.488293,3.84554 0.904835,1.88507 3.619338,13.87413 2.412891,15.38218 0,0 0.52782,1.65887 -0.226208,1.96048 -0.754028,0.30161 -3.770143,1.35725 -6.409243,1.28185 0,0 1.055642,0.1508 -3.24232,0.37701 -4.297962,0.22621 -4.297962,0.22621 -4.297962,0.22621 0,0 -1.432654,0.30161 -4.599574,-0.22621 -3.166919,-0.52782 -3.166919,-0.52782 -3.166919,-0.52782 0,0 -0.377015,-2.33749 2.412891,-5.73061 2.789905,-3.39313 6.183033,-6.63545 6.183033,-6.63545 l 3.418064,-2.41773 0.879744,-1.06636 v -2.26601 h 3.305708 l 0.426543,-4.66531 0.74645,1.01304 m -9.783829,-3.86555 c 0,0 0.373224,1.54622 -1.652854,2.66589 -2.026079,1.11968 -3.625615,3.30571 -3.625615,3.30571" /><g
         id="g2348"
         inkscape:label="cornea"><path
           id="path2347"
           style="fill:#faf9f7;fill-opacity:1;stroke:#000000;stroke-width:0.31;stroke-dasharray:none"
           d="m 88.776902,150.5162 a 2.9638774,3.9102784 0 0 1 -3.07082,3.76112 2.9638774,3.9102784 0 0 1 -2.852925,-4.04879 2.9638774,3.9102784 0 0 1 3.066933,-3.76665 2.9638774,3.9102784 0 0 1 2.857102,4.04367" /><path
           id="path2346"
           style="fill:#321b0d;fill-opacity:1;stroke:#000000;stroke-width:0.284697"
           d="m 87.691158,151.03517 a 1.4638685,2.463589 0 0 1 -1.516688,2.36962 1.4638685,2.463589 0 0 1 -1.409068,-2.55086 1.4638685,2.463589 0 0 1 1.514767,-2.37311 1.4638685,2.463589 0 0 1 1.411133,2.54764" /><path
           style="fill:#fdf9f9;fill-opacity:1;stroke:#000000;stroke-width:0.2"
           id="path2348"
           sodipodi:type="arc"
           sodipodi:cx="86.268303"
           sodipodi:cy="150.02315"
           sodipodi:rx="0.63981432"
           sodipodi:ry="0.57316703"
           sodipodi:start="0.037475209"
           sodipodi:end="0.034745446"
           sodipodi:open="true"
           sodipodi:arc-type="arc"
           d="m 86.907668,150.04462 a 0.63981432,0.57316703 0 0 1 -0.6629,0.55131 0.63981432,0.57316703 0 0 1 -0.615862,-0.59348 0.63981432,0.57316703 0 0 1 0.662059,-0.55211 0.63981432,0.57316703 0 0 1 0.616766,0.59272" /></g><path
         id="path2350"
         style="fill:#ffffff;fill-opacity:1;stroke:#000000;stroke-width:0.2"
         inkscape:label="sleeve1"
         d="m 83.659455,171.39067 -8.105804,-6.93707 -0.226208,1.54576 2.035876,2.6014 1.206444,2.07358 c 0,0 -0.263908,-0.75403 0.52782,2.26208 0.791732,3.01612 0.791732,3.01612 0.791732,3.01612 0,0 0.301611,-0.94254 3.77014,-4.56187 z m -3.129216,7.57798 c 3.920947,-4.33566 5.202795,-6.18303 5.202795,-6.18303 l -2.262084,-1.39495 -3.506234,4.67497 z" /><path
         id="path2351"
         style="fill:#fff7f3;fill-opacity:1;stroke:#000000;stroke-width:0.2"
         d="m 57.381565,172.06929 c 0,0 -1.470355,-0.0377 3.091516,3.16692 l 4.561872,3.20462 m 6.624253,-7.77035 v 0 l 0.05332,1.59954 c 0.05332,1.59953 -1.492901,1.65285 -4.4787,4.37206 -2.985802,2.71921 -3.785569,3.73225 -3.785569,3.73225 0,0 -3.199071,-1.33295 -5.171834,-2.66589 -1.97276,-1.33295 -3.518977,-3.78557 -3.518977,-3.78557 0,0 1.866125,-1.22631 6.664733,-5.01188 4.798607,-3.78557 6.184871,-2.18603 8.317584,-1.97276 2.132716,0.21327 1.75949,3.67893 1.75949,3.67893 l 3.359025,0.10664 0.533558,-6.23782 -9.086615,-1.43252 -0.265646,1.43449 -1.96578,1.32823 -1.859521,1.54075 -0.903196,1.647 3.719042,-2.44394 1.32823,-0.26565 2.125167,0.21252 1.434488,0.42503 0.956326,0.42504 0.690679,1.54075 z"
         inkscape:label="sleeve"
         sodipodi:nodetypes="csccccsscscsscccccccccccccc" /><path
         id="path2353"
         style="fill:none;stroke:#000000;stroke-width:0.2"
         d="m 71.595,175.23621 c 0.0754,2.48829 0.113104,2.6768 0.113104,2.6768 l 0.904836,0.71633 2.827607,0.30161 1.998175,-0.67862 -0.339312,-3.80785 -2.073579,1.43266 z m -0.0754,-2.14898 5.57981,-0.15081 0.226208,1.47036 -2.224384,1.43265 -3.845544,-0.64092 v -1.62116 z"
         inkscape:label="pocket" /><path
         id="path2364"
         style="fill:#040239;fill-opacity:1;stroke:#427bc7;stroke-width:0.31;stroke-dasharray:none;stroke-opacity:1"
         d="m 70.486214,201.43489 2.026078,1.8128 13.329468,-6.82468 -1.492901,-2.23935 -8.237609,5.14517 z m -10.289782,-9.81012 c -1.623332,0.32467 6.629912,9.62502 10.076512,9.91675 2.293745,0.19415 14.075915,-7.14459 14.075915,-7.14459 0,0 -4.264674,-3.30646 -3.944766,-4.69273"
         sodipodi:nodetypes="cccccccscc" /><path
         id="path2362"
         style="fill:#893005;fill-opacity:1;stroke:#31260c;stroke-width:0.2;stroke-opacity:1"
         d="m 79.663106,189.67585 1.00762,0.0395 0.161124,-2.52774 m -7.110141,3.08631 4.73495,-0.1456 m -17.791696,1.38647 4.536223,-0.16459 m 2.208958,-0.35474 c 3.845544,-0.15081 4.335663,-0.55531 4.335663,-0.55531 m -13.082394,-1.74448 c -0.113104,2.26208 -0.301611,1.73426 -0.301611,1.73426 l 0.942535,0.49012 m 2.072798,-0.68645 c -0.02301,0.7175 -0.48566,1.33062 -1.099193,1.30421 -0.613532,-0.0264 -1.145847,-0.68236 -1.123685,-1.3999 0.02216,-0.71754 0.537295,-1.27836 1.150862,-1.25293 0.613566,0.0254 1.199713,0.4681 1.178384,1.18568 m 18.25447,-0.68886 c -0.01559,0.66551 -0.365279,1.18493 -0.781235,1.16043 -0.415957,-0.0245 -0.74083,-0.58364 -0.725801,-1.24919 0.01503,-0.66554 0.364269,-1.18572 0.780245,-1.16213 0.415977,0.0236 0.741326,0.58202 0.726866,1.2476 m -5.957106,1.1581 c -0.02183,0.7383 -0.511391,1.31453 -1.093729,1.28735 -0.582337,-0.0272 -1.037157,-0.64747 -1.016121,-1.38581 0.02104,-0.73834 0.509977,-1.31541 1.092343,-1.28924 0.582365,0.0262 1.037852,0.64568 1.017611,1.38405 m -6.371706,0.3821 c -0.02378,0.7591 -0.557052,1.35155 -1.191384,1.32361 -0.634332,-0.0279 -1.182891,-0.8251 -1.159975,-1.58424 0.02291,-0.75914 0.608638,-1.19308 1.243003,-1.16617 0.634363,0.0269 1.130519,0.66387 1.108469,1.42304"
         inkscape:label="belt"
         sodipodi:nodetypes="cccccccccccccsssccsssccsssccsssc" /><path
         style="fill:none;stroke:#000000;stroke-width:0.309999;stroke-dasharray:none"
         d="m 55.663848,174.88259 c -3.845988,2.57148 -6.629181,14.8512 -6.611414,16.84845"
         id="path2365"
         sodipodi:nodetypes="cc" /><path
         style="fill:#a9711d;fill-opacity:1;stroke:#000000;stroke-width:0.309999;stroke-dasharray:none"
         d="m 49.159069,191.30449 c 0,0 3.945523,-1.38626 9.277308,0.95972 0,0 -0.106635,-1.70617 0.53318,-6.07823 l 4.398723,-5.83831 c 0,0 -4.570195,-2.4755 -5.251809,-2.69255 -0.895966,-0.28531 -2.57511,-2.7689 -2.772529,-2.55926 -0.742177,0.78811 -3.225365,4.21664 -4.025498,7.01131 l -1.839467,6.42479 z"
         id="path2367"
         sodipodi:nodetypes="ccccssscc"
         inkscape:label="bukton right" /><path
         id="path2368"
         style="fill:#a9711d;fill-opacity:1;stroke:#000000;stroke-width:0.309999"
         d="m 59.818861,196.41717 c -0.111373,2.66177 -3.675103,4.89915 -6.645768,4.80117 -2.970662,-0.098 -6.996995,-1.64117 -6.889677,-4.30306 0.107318,-2.6619 1.801756,-5.86207 4.772568,-5.76772 2.97081,0.0943 9.986349,-0.28474 8.763408,5.25645 m -11.939951,0.97872 c 0,0 -1.652854,1.11967 -0.373226,1.91944 m 3.117756,-1.25865 c 0,0 -1.464902,1.89846 -0.345227,2.64491 m 4.52934,0.28276 c -0.79977,-1.27962 -0.797088,-2.14888 -0.583818,-2.46879 m 4.576744,0.25098 c 0,0 -2.048156,-0.63779 -2.444028,-1.69056 -0.477737,-1.27048 2.079949,-1.84995 2.079949,-1.84995"
         inkscape:label="hand right" /><path
         id="path2"
         style="fill:#06033b;fill-opacity:1;stroke:#2845b6;stroke-width:0.2;stroke-opacity:1"
         d="m 56.277004,200.82173 1.97276,-1.38627 9.623874,1.6262 2.319327,0.50652 0.533178,-0.0267 1.626195,1.65285 -0.479861,0.55984 -2.612575,-0.10664 -6.878003,-1.67951 -6.904664,-0.9064 z m 12.792001,0.42846 -10.707203,-1.88507 1.034295,-1.50253 0.453203,-1.83947 0.05332,-1.30629 -0.239932,-1.17299 -0.799766,-0.9064 -0.373224,-0.34657 v -1.78615 l 0.613153,0.29325 c 0,0 0.453202,0.66647 0.826429,0.69313 0.373224,0.0267 0.613153,0.0267 0.613153,0.0267 l -0.346564,0.26659 0.05332,0.74645 1.839468,2.5326 2.452621,2.71921 z"
         inkscape:label="short" /><path
         style="fill:#a9711d;fill-opacity:1;stroke:#000000;stroke-width:0.2"
         d="m 57.583292,201.38156 4.665313,0.55984 2.47928,0.63982 2.319327,0.53317 -1.359606,2.77253 -2.5326,3.1191 -3.172412,1.9461 -5.971601,2.45262 -2.959139,-3.91886 -1.679515,-2.58592 c 0,0 3.838888,-1.91944 4.078817,-1.91944 0.239932,0 2.959142,-1.54622 2.959142,-1.54622 l 1.279629,-0.79976 z"
         id="path3"
         inkscape:label="knee left" /><path
         style="fill:#ffffff;fill-opacity:1;stroke:#000000;stroke-width:0.2"
         d="m 49.505634,206.89996 2.905823,4.21211 1.652855,2.29267 -5.01188,2.26601 -4.212111,1.9461 -2.452622,-2.37264 -2.852504,-3.99884 3.972181,-0.93306 z"
         id="path4"
         inkscape:label="sock left" /><path
         id="path9"
         style="fill:#382929;fill-opacity:1;stroke:#000000;stroke-width:0.2"
         d="m 43.400739,226.5476 -2.345984,-1.30629 -2.29267,-2.74587 -0.426543,-0.5865 -3.065777,-5.54506 -1.786147,-3.78557 m 11.196751,7.89105 c 0,0 -0.186613,-0.18661 -1.146336,-0.18661 -0.95972,0 -2.319327,0.08 -2.772526,0.34656 -0.453202,0.26659 -2.399305,1.30629 -2.399305,1.30629 m 2.452621,-2.8525 3.892203,-0.10664 0.02666,0.74645 -3.918863,0.13329 z m 3.359026,-2.05274 -3.892204,0.10663 0.186613,0.90641 4.185452,-0.21328 0.07998,-0.21327 z m 0.639815,0.53318 -0.133295,2.77252 0.02666,3.59896 -0.586496,1.81281 -1.172991,1.09301 -1.093017,0.79977 -1.839466,-0.26659 -2.425964,-3.11909 -5.331786,-9.62388 0.133295,-1.27963 2.132713,-1.67951 3.252391,-1.06635 1.75949,0.63981 2.825848,3.94552 z"
         inkscape:label="shoes left" /><path
         style="fill:#a9711d;fill-opacity:1;stroke:#000000;stroke-width:0.2"
         d="m 85.300705,197.0149 c 0,0 2.629916,1.48647 3.144465,3.31598 0.514548,1.82951 2.115364,10.11945 2.115364,10.11945 0,0 -8.518636,1.82951 -8.575807,1.54365 -0.05717,-0.28586 -0.686064,-5.54569 -0.686064,-5.54569 0,0 -1.486474,-4.57377 -3.487497,-4.74528 -2.001023,-0.17152 -2.286881,-0.11434 -2.286881,-0.11434 z"
         id="path10"
         inkscape:label="knee right" /><path
         style="fill:#ffffff;fill-opacity:1;stroke:#000000;stroke-width:0.2"
         d="m 82.156243,212.1655 0.971923,8.06125 8.690155,-0.91475 -1.257787,-8.91884 z"
         id="path11"
         inkscape:label="sock right" /><path
         id="path15"
         style="fill:#382929;fill-opacity:1;stroke:#000000;stroke-width:0.2"
         d="m 92.847418,219.48352 -0.800409,3.08729 h 0.971925 l 0.857581,-2.8586 z m -2.115367,0 -1.143442,2.80143 1.429303,-0.0572 0.571719,-2.97295 z m 4.916797,0.74323 c 0,0 -1.486475,-0.34303 -1.429301,1.71517 0.05717,2.05819 0.114343,3.94487 0.114343,3.94487 m -11.205724,-5.77438 -0.800406,1.48647 0.400203,3.71619 0.971926,0.57172 10.176626,0.22869 5.831549,0.11434 c 0,0 2.915776,-0.62889 0.914756,-3.14446 -2.001027,-2.51557 -5.717208,-3.31598 -5.717208,-3.31598 l -3.258807,-0.62889 z"
         inkscape:label="shoes right" /><path
         id="path22"
         style="fill:#a9711d;fill-opacity:1;stroke:#000000;stroke-width:0.2"
         d="m 95.820364,182.66471 -1.029097,1.65799 -0.05717,2.34406 v 2.34405 l 0.62889,0.74324 2.22971,1.20061 m 0.571722,-2.11536 -0.971926,0.97192 0.171516,0.62889 0.628893,0.57172 0.80041,0.40021 m 0.514548,-3.65901 -0.914754,0.97192 1.657994,1.25779 0.45737,0.17151 m -0.914751,-4.34507 -0.228687,1.0291 v 1.08626 h 0.971928 l 1.31495,0.17152 2.4584,0.68606 0.51455,-0.4002 m -4.688109,-3.43032 1.429299,0.62889 2.17254,0.45738 h 1.82951 l 0.97192,-0.22869 m -7.318021,-5.03114 -1.886677,0.91475 -0.571723,2.68709 0.285862,2.51557 c 0,0 0.800409,0.34303 1.029096,0.34303 0.228688,0 1.200613,-0.68607 1.200613,-0.68607 l 0.743239,-1.14344 0.114342,-1.65799 0.285859,-0.45737 0.28586,-0.0572 1.77234,0.11434 h 2.05819 l 1.60082,-0.11434 m -20.810631,-9.31902 c 0,0 7.546713,8.69015 11.320068,7.26085 3.773353,-1.4293 8.061263,0.57172 8.061263,0.57172 0,0 3.08729,1.08627 2.40122,3.25881 -0.68606,2.17254 -0.45737,4.68811 -2.8586,5.43134 -2.40123,0.74324 -4.802453,1.88668 -7.546712,-0.0572 -2.744258,-1.94385 -6.174581,-2.22971 -6.174581,-2.22971 l -9.261874,-5.60286 -0.743236,-3.60184 z"
         inkscape:label="hand left" /><g
         id="g25"><g
           id="g2340"><path
             style="fill:#141142;fill-opacity:1;stroke:#000000;stroke-width:0.2"
             d="m 44.072778,140.9206 11.088375,-5.61436 12.211248,-4.63186 9.9655,-3.78969 9.263705,-2.10539 0.884452,-0.2635 c 0,0 -2.00197,-1.43129 -2.65905,-3.38126 -1.367873,-4.05933 -8.559488,-6.48382 -7.046672,-5.66466 0,0 -6.738976,-1.29854 -10.598281,-0.31839 -3.859305,0.98014 -5.800717,2.22041 -10.333869,4.18069 -4.533153,1.96029 -9.985189,6.43218 -11.087846,9.00505 -1.102659,2.57287 -2.817907,7.10602 -2.389094,9.80141 l 0.42881,2.69539 z"
             id="path2338"
             sodipodi:nodetypes="ccccccscsssscc" /><path
             style="fill:#0a0c2b;fill-opacity:1;stroke:#000000;stroke-width:0.2"
             d="m 44.071894,140.84904 1.740596,3.57402 0.20887,0.37133 5.221787,-3.13308 17.173882,-6.77672 12.068133,-4.36309 8.911851,-2.50646 -2.042297,-3.62044 -7.890703,2.0423 -3.620439,1.11398 -5.848403,2.22796 -8.726189,3.24912 -6.591056,2.22796 z"
             id="path2339" /><path
             style="fill:#141142;fill-opacity:1;stroke:#000000;stroke-width:0.2"
             d="m 89.675511,127.82938 9.376011,6.96238 -20.608658,5.8484 -22.279631,9.09752 -10.86132,5.8484 c 0,0 -0.185664,-3.34194 0,-7.24088 0.185666,-3.89893 0.835488,-4.17743 0.835488,-4.17743 l 19.648151,-8.89865 z"
             id="path2340"
             sodipodi:nodetypes="cccccsccc" /></g><path
           style="fill:none;stroke:#000000;stroke-width:0.2"
           d="m 68.999181,150.44934 1.556375,0.69173 0.691721,1.55637 0.259395,1.55637 v 0.69172"
           id="path23" /><path
           style="fill:none;stroke:#000000;stroke-width:0.2"
           d="m 71.160811,153.12976 -1.210514,0.86465 v 0.43233"
           id="path24" /><path
           style="fill:#f6e7de;fill-opacity:1;stroke:#000000;stroke-width:0.2"
           d="m 78.683278,157.62595 2.50749,1.64284 4.928513,1.03758 -1.556374,1.55637 -3.112744,-0.69172 -2.248093,-1.46991 z"
           id="path25" /></g></g><g
       id="g120"
       inkscape:label="phrase2"
       transform="matrix(1.4604211,0,0,1.545531,-27.093807,-42.238698)"><g
         id="g89"><path
           id="path69"
           style="fill:#ffffff;fill-opacity:0.982869;stroke:#31260c;stroke-width:0.309999;stroke-dasharray:none;stroke-opacity:1"
           d="m 32.037829,59.919401 -0.324707,1.147299 5.649915,1.342126 2.121424,-0.216472 0.671063,-0.974124 -0.952477,0.0433 z m 9.056722,-0.728168 0.226208,0.377016 0.150805,-0.452419 -1.05564,0.377015 -0.226208,1.658861 -1.05564,0.150807 -7.012464,-1.508056 2.035876,-1.58346 2.714504,-1.131044 c 0,0 2.563696,-0.377015 3.996351,0.301612 1.432652,0.678625 0.301609,1.960473 0.301609,1.960473 l 1.960475,-2.6391 -6.107631,-0.52782 -1.809667,1.357253"
           inkscape:label="sleeve" /><path
           style="fill:#a9711d;fill-opacity:1;stroke:#31260c;stroke-width:0.309999;stroke-dasharray:none;stroke-opacity:1"
           d="m 38.899986,62.473768 -0.476237,1.233889 0.04329,1.623539 1.168947,2.272954 -1.796716,-0.281414 -2.359544,0.389649 -1.99154,1.017419 -0.346355,0.671062 -0.259765,-2.532721 -0.541179,-2.22966 0.238117,-2.619308 0.454591,-0.497885 2.251308,0.368001 2.186366,0.519533 1.515303,-0.216472 z"
           id="path70"
           inkscape:label="bukton" /><path
           id="path75"
           style="fill:#a9711d;fill-opacity:1;stroke:#31260c;stroke-width:0.309999;stroke-dasharray:none;stroke-opacity:1"
           d="m 36.497148,70.829579 0.108236,0.930828 0.844241,0.432946 m 0.476239,-1.428716 0.15153,0.909183 0.779298,0.259765 m 0.129884,-1.948246 0.324707,0.822595 1.212242,0.216471 0.06494,0.06494 m -0.844239,-2.013186 1.710127,0.736002 m -0.04078,0.05491 a 4.1075377,2.332469 0 0 1 -4.255748,2.243501 4.1075377,2.332469 0 0 1 -3.953766,-2.415098 4.1075377,2.332469 0 0 1 4.250351,-2.246797 4.1075377,2.332469 0 0 1 3.959568,2.412031"
           inkscape:label="hand right" /><path
           style="fill:#000000;fill-opacity:0;stroke:#31260c;stroke-width:0.309999;stroke-dasharray:none;stroke-opacity:1"
           d="m 40.523525,59.681281 h 3.939786 l -0.02164,0.541179 -1.47201,0.519533 -2.705896,-0.108236 z"
           id="path76" /><path
           style="fill:#000000;fill-opacity:0;stroke:#31260c;stroke-width:0.309999;stroke-dasharray:none;stroke-opacity:1"
           d="m 40.328701,60.850229 0.08659,0.822592 0.627769,0.259768 2.164717,0.15153 0.99577,-0.38965 0.281414,-1.450361 -1.407068,0.497885 z"
           id="path77" /><path
           style="fill:#fafafa;fill-opacity:1;stroke:#31260c;stroke-width:0.309999;stroke-dasharray:none;stroke-opacity:1"
           d="m 43.402599,56.585733 1.493657,1.515303 1.017418,2.879077 0.281411,3.225429 -0.324707,1.104006 -1.342125,0.649415 -3.593431,0.281413 -2.121424,0.0433 -0.324707,-0.865888 -0.0433,-1.840011 0.584475,-1.320477 0.671062,-0.259768 0.584473,-1.60189 0.08659,-0.887534 0.714357,-0.216472 0.454591,-0.411297 z"
           id="path78" /><path
           style="fill:#000000;fill-opacity:0;stroke:#31260c;stroke-width:0.309999;stroke-dasharray:none;stroke-opacity:1"
           d="m 45.913674,65.309548 0.173176,1.060712 -0.822593,0.411297 h -1.515303 l -1.493655,0.173178 -0.779298,0.194823 -1.212242,0.02164 -0.865888,-0.108235 -0.346356,-0.757653 3.506846,-0.194824 1.883304,-0.06494 z"
           id="path79" /><path
           style="fill:#040239;fill-opacity:1;stroke:#2845b6;stroke-width:0.309999;stroke-dasharray:none;stroke-opacity:1"
           d="m 47.385681,69.50911 0.08659,1.190594 -0.303061,0.08659 -1.99154,0.238119 h -1.407068 l -1.515303,0.15153 -1.428713,0.02164 0.541179,-0.995773 1.472009,-0.216471 2.078128,-0.324707 1.363773,0.08659 1.125654,-0.23812 -0.411297,-0.389649 -0.909182,-2.489428 -0.822592,0.216474 -1.861657,-0.04329 -1.818364,0.389649 -2.034835,-0.129883 0.368002,0.822593 0.736004,0.671062 0.606122,0.865888 0.15153,0.671062 2.251307,-0.216471 1.385419,-0.151531 1.38542,0.0433 z"
           id="path80" /><path
           style="fill:#a9711d;fill-opacity:1;stroke:#31260c;stroke-width:0.309999;stroke-dasharray:none;stroke-opacity:1"
           d="m 46.281675,71.132641 0.281414,1.580242 -0.671063,2.489428 -0.368003,0.909182 -5.823091,-0.02164 0.584473,-2.121423 0.757653,-2.554367 2.814132,-0.38965 z"
           id="path81" /><path
           style="fill:#a9711d;fill-opacity:1;stroke:#31260c;stroke-width:0.309999;stroke-dasharray:none;stroke-opacity:1"
           d="m 40.653409,71.392406 -4.54591,4.654145 -4.870616,-1.493657 3.030606,-3.13884 1.861658,0.562827 1.536949,0.15153 1.818365,-0.411298 z"
           id="path82" /><path
           style="fill:#fbfbfb;fill-opacity:0.978587;stroke:#31260c;stroke-width:0.309999;stroke-dasharray:none;stroke-opacity:1"
           d="m 39.592697,76.154787 -1.190596,2.814132 2.749193,0.671063 1.515303,-0.476237 0.736002,-0.194826 0.909182,-0.02164 1.168948,-2.727544 z"
           id="path83" /><path
           id="path84"
           style="fill:#382929;fill-opacity:1;stroke:#31260c;stroke-width:0.309999;stroke-dasharray:none;stroke-opacity:1"
           d="m 38.272217,78.990567 -0.562827,0.38965 0.151532,1.775068 -0.06494,0.714356 4.091318,0.216475 3.355314,0.346352 2.532718,-0.04329 c 0,0 1.580245,0.173177 1.190596,-0.627769 -0.389649,-0.800944 -2.554367,-2.034834 -2.554367,-2.034834 l -2.099778,-0.584475 -0.151529,-0.129881 -0.99577,1.255535 0.671062,0.303061 0.90918,-1.147302 0.173178,-0.151529 -0.779299,-0.216472 -0.952476,0.04329 -1.039064,0.714357 0.714357,0.454591 1.342125,-1.23389 -1.472006,0.06494 -1.363774,0.562827 z m 6.862156,0.627769 -0.692708,0.779299 -0.151529,0.974121 0.04329,0.606121 0.173178,0.173178 3.961434,0.281413 0.497885,-0.281413 0.04329,-0.584473 -0.649414,-0.649417 -1.840011,-1.212241 z"
           inkscape:label="shoes" /><path
           style="fill:#eaeaea;fill-opacity:0.995717;stroke:#31260c;stroke-width:0.309999;stroke-dasharray:none;stroke-opacity:1"
           d="m 31.085353,74.59619 -2.272953,1.99154 3.766608,1.580245 3.39861,-1.991542 z"
           id="path85" /><path
           id="path88"
           style="fill:#382929;fill-opacity:1;stroke:#31260c;stroke-width:0.309999;stroke-dasharray:none;stroke-opacity:1"
           d="m 34.267489,79.142097 c 0,0 -3.268723,1.168948 -2.619309,1.861658 0.649414,0.692709 0.779298,0.692709 0.779298,0.692709 l 1.515304,0.671062 1.060711,-0.324707 0.38965,-0.671063 v -1.082357 z m -0.454591,-0.411295 -1.818363,1.017416 -0.303061,-0.606121 1.363773,-0.822592 -0.454591,-0.129884 -1.472009,0.822595 -0.303059,-0.519534 0.99577,-0.757653 2.164717,1.039067 z m -1.082358,-0.627769 1.407065,0.584473 1.23389,1.710129 0.06494,1.060712 -0.411294,0.562827 -0.995773,0.346352 -2.965662,-1.190593 -2.705899,-1.125654 -2.83578,-1.039063 0.99577,-1.536952 1.363774,-0.974122 0.736002,0.02164 1.883307,0.692711 z" /><path
           style="fill:#141142;fill-opacity:1;stroke:#31260c;stroke-width:0.309999;stroke-dasharray:none;stroke-opacity:1"
           d="m 23.063345,46.91294 6.02792,-1.703541 6.945211,-2.620834 13.759382,-2.620837 c 0,0 3.276044,0.393125 -2.489793,-1.310415 -5.765837,-1.703544 -12.842089,-1.179378 -12.842089,-1.179378 l -6.421045,1.441461 -3.669169,1.834583 -1.965625,1.834584 v 2.489793 z"
           id="path108"
           sodipodi:nodetypes="ccccscccccc" /><path
           style="fill:#070920;fill-opacity:1;stroke:#31260c;stroke-width:0.309999;stroke-dasharray:none;stroke-opacity:1"
           d="m 23.718554,46.781899 0.262083,1.310418 5.503754,-1.310418 8.648753,-2.096666 9.041881,-2.489796 3.800211,-0.524166 -1.179378,-1.965626 -4.062293,1.048334 -3.013959,0.262083 -4.717502,1.179377 -3.01396,0.786251 -4.848544,1.441457 z"
           id="path109"
           sodipodi:nodetypes="ccccccccccccc" /><path
           style="fill:#141142;fill-opacity:1;stroke:#31260c;stroke-width:0.309999;stroke-dasharray:none;stroke-opacity:1"
           d="m 23.860078,48.090798 -0.648623,1.80688 -0.138991,1.76055 0.185321,0.880274 2.038531,-0.138991 4.401374,-1.389906 8.895408,-2.918807 18.76375,-3.752749 -3.89174,-1.899542 -2.270184,-0.602292 -4.077059,0.324313 -16.72522,4.308713 z"
           id="path110" /><path
           style="fill:#321b0d;fill-opacity:1;stroke:#31260c;stroke-width:0.309999;stroke-dasharray:none;stroke-opacity:1"
           d="m 26.315582,52.445843 3.289448,1.714219 2.594494,0.787614 3.845409,0.509633 1.667891,-1.992201 -1.343578,-1.111925 c 0,0 -0.694954,-0.277982 -0.09266,-1.250918 0.602293,-0.972934 1.482567,-1.158256 1.714217,-1.250916 0.231654,-0.09266 1.71422,0.18532 1.71422,0.18532 l 1.019267,0.555963 0.18532,0.324313 1.482569,-1.667891 0.138991,1.158256 3.104126,-2.548162 0.509632,0.972936 -0.277982,0.509633 1.80688,-0.741286 1.204587,-0.787614 0.185322,-0.787615 1.250915,1.111928 v 0.694954 l 1.5289,-0.231653 1.436238,-0.694952 0.602292,-1.019268 -0.185322,-0.648623 0.09266,-0.32431 h 1.528897 l 1.667888,-0.138991 1.482569,-1.389907 -0.555963,-0.04633 -5.837611,1.158256 -6.300914,1.158256 -7.181189,1.297246 -4.725682,1.66789 -7.598161,2.455503 z"
           id="path111" /><path
           id="path119"
           style="fill:#a9711d;fill-opacity:1;stroke:#31260c;stroke-width:0.309999;stroke-dasharray:none;stroke-opacity:1"
           d="m 39.689264,51.614064 -0.491405,0.122851 -0.442267,0.237512 -0.04914,0.499596 m -1.122043,-1.375936 0.638828,-0.393126 0.630637,-0.04914 0.491405,0.245703 0.393126,0.458647 0.262083,0.409506 0.114663,0.884531 0.114662,0.540547 m 3.341563,2.841968 -0.171992,0.442264 -0.384934,0.262083 -1.130237,-0.163801 -4.864923,-0.450456 -0.01638,-0.319415 0.687969,0.04914 1.719922,0.04095 3.308805,0.04914 z m 7.855202,-7.482621 -0.04633,2.270181 1.019265,0.04633 0.416973,0.648623 -0.04633,0.602293 -1.482566,0.555963 -0.463304,0.09266 -0.694952,0.972936 -0.741286,0.787615 -3.104126,1.065596 -2.733484,0.370641 -5.791282,-0.09266 -1.667889,-0.370642 1.389907,-1.806882 0.185322,-0.138991 -0.880274,-1.019265 -0.741286,-0.602292 0.114395,-0.698891 1.081096,-1.195756 0.925481,-0.171992 1.416888,0.204753 0.556927,0.147421 0.483217,0.270274 0.229324,0.368554 1.474219,-1.53974 0.196562,1.162995 2.588074,-2.21133 0.507789,-0.475025 0.507785,1.015572 -0.294843,0.573309 1.769062,-0.753491 1.343179,-0.966432 0.06552,-0.622449 1.228516,1.015574 0.131043,0.753489 z"
           inkscape:label="face" /><g
           id="g116"
           inkscape:label="cornea"><path
             style="fill:#fefefe;fill-opacity:1;stroke:#31260c;stroke-width:0.350597;stroke-dasharray:none;stroke-opacity:1"
             id="path114"
             sodipodi:type="arc"
             sodipodi:cx="48.731148"
             sodipodi:cy="50.49202"
             sodipodi:rx="1.6341022"
             sodipodi:ry="1.7733318"
             sodipodi:start="0.037475209"
             sodipodi:end="0.034745446"
             sodipodi:open="true"
             sodipodi:arc-type="arc"
             d="m 50.364103,50.55846 a 1.6341022,1.7733318 0 0 1 -1.693065,1.705691 1.6341022,1.7733318 0 0 1 -1.572927,-1.836153 1.6341022,1.7733318 0 0 1 1.690917,-1.708197 1.6341022,1.7733318 0 0 1 1.575236,1.833821" /><path
             style="fill:#321b0d;fill-opacity:1;stroke:none;stroke-width:0.31;stroke-dasharray:none;stroke-opacity:1"
             id="path113"
             sodipodi:type="arc"
             sodipodi:cx="49.23893"
             sodipodi:cy="50.467449"
             sodipodi:rx="1.0647142"
             sodipodi:ry="1.4578394"
             sodipodi:start="0.037475209"
             sodipodi:end="0.034745446"
             sodipodi:open="true"
             sodipodi:arc-type="arc"
             d="m 50.302896,50.522069 a 1.0647142,1.4578394 0 0 1 -1.103131,1.402233 1.0647142,1.4578394 0 0 1 -1.024855,-1.509484 1.0647142,1.4578394 0 0 1 1.101732,-1.404293 1.0647142,1.4578394 0 0 1 1.026359,1.507567" /><path
             style="fill:#fdfdfd;fill-opacity:1;stroke:none;stroke-width:0.33045;stroke-dasharray:none;stroke-opacity:1"
             id="path115"
             sodipodi:type="arc"
             sodipodi:cx="49.394543"
             sodipodi:cy="50.541161"
             sodipodi:rx="0.47298905"
             sodipodi:ry="0.62041229"
             sodipodi:start="0.037475209"
             sodipodi:end="0.034745446"
             sodipodi:open="true"
             sodipodi:arc-type="arc"
             d="m 49.8672,50.564405 a 0.47298905,0.62041229 0 0 1 -0.490056,0.596748 0.47298905,0.62041229 0 0 1 -0.455282,-0.642391 0.47298905,0.62041229 0 0 1 0.489434,-0.597624 0.47298905,0.62041229 0 0 1 0.45595,0.641575" /></g><path
           style="fill:#ffffff;fill-opacity:1;stroke:#31260c;stroke-width:0.309999;stroke-dasharray:none;stroke-opacity:1"
           d="m 44.046404,53.284844 3.587266,1.130237 1.44146,0.163801 -2.162188,0.851773 -1.703543,-0.950053 z"
           id="path116" /></g><path
         id="path120"
         style="fill:#382929;stroke:none;stroke-width:0.291861"
         d="m 35.357585,81.133923 c 0.04213,0.68698 -0.586928,1.570102 -2.006762,0.955339 -0.997662,-0.43197 -1.902966,-0.48049 -1.864366,-1.02841 0.0386,-0.54792 1.419918,-1.72108 2.488437,-1.70166 1.068519,0.01942 1.420023,1.373058 1.382882,1.921005"
         sodipodi:nodetypes="csssc" /></g><g
       id="g173"
       transform="matrix(1.1123571,0,0,1.1340524,-19.601583,-9.2954947)"><path
         style="fill:#141142;fill-opacity:1;stroke:#000000;stroke-width:0.309999;stroke-dasharray:none;stroke-opacity:1"
         d="m 152.27566,35.93334 8.54229,-3.621188 9.0994,-2.228424 8.17089,-2.321277 7.14953,-0.835657 -4.08545,-3.064084 -6.68527,-2.042723 -9.00655,0.92851 c 0,0 -6.03532,1.114213 -6.03532,1.485617 0,0.371404 -4.82825,2.87838 -4.82825,2.87838 l -2.41413,2.785531 -1.11421,3.714041 z"
         id="path121"
         sodipodi:nodetypes="ccccccccscccc" /><path
         style="fill:#0a0c2b;fill-opacity:1;stroke:#000000;stroke-width:0.309999;stroke-dasharray:none;stroke-opacity:1"
         d="m 152.73991,35.654787 0.64996,2.135573 9.00655,-3.156934 12.72058,-3.156934 10.21362,-2.414127 c 0,0 1.94987,0.464256 1.67131,0 -0.27855,-0.464254 -1.94987,-2.321274 -1.94987,-2.321274 l -5.19965,0.649956 -19.40586,4.828255 z"
         id="path122" /><path
         style="fill:#141142;fill-opacity:1;stroke:#000000;stroke-width:0.309999;stroke-dasharray:none;stroke-opacity:1"
         d="m 153.48272,37.79036 -1.57847,3.156935 -0.1857,2.228423 h 2.04272 l 4.82825,-1.299912 c 11.91588,-4.140721 22.6247,-6.907777 34.54058,-9.563654 l -6.12817,-3.249787 h -2.04272 l -22.7485,5.478211 z"
         id="path123"
         sodipodi:nodetypes="cccccccccc" /><path
         style="fill:#321b0d;fill-opacity:1;stroke:#000000;stroke-width:0.309999;stroke-dasharray:none;stroke-opacity:1"
         d="m 191.8456,32.82779 3.70954,-0.361106 -0.52524,1.542905 -1.96967,0.853525 -3.67671,-0.06566 0.52524,1.378768 -0.26262,1.148971 -4.1363,1.772701 -1.4116,-2.888845 -0.91918,1.575734 -3.3156,1.64139 -0.0985,-2.724708 -3.61105,3.873679 -0.45959,-1.313111 -1.87119,2.23229 -1.57573,-1.214628 -2.72471,-0.492416 -1.60856,1.608561 0.32828,2.429256 1.34594,0.886351 -2.23229,2.888845 -3.28278,-0.590902 -3.08581,-0.722209 -4.26761,-2.035323 -1.57574,-1.313111 5.44942,-1.575734 9.4544,-3.085814 15.23209,-4.1363 z"
         id="path124" /><path
         id="path173"
         style="fill:#a9711d;fill-opacity:1;stroke:#000000;stroke-width:0.3;stroke-dasharray:none;stroke-opacity:1"
         d="m 177.92113,44.89179 2.34435,1.346756 2.49399,0.349157 -1.69591,1.147236 -1.99519,-0.698317 -1.247,-0.847956 z m -9.32194,3.043275 v 1.013087 l 7.41154,0.159961 0.2666,-0.959768 z m -1.17305,-0.106641 3.14591,0.05332 6.07853,0.319924 3.83907,-0.213284 4.26563,-2.132816 0.69317,-1.652932 1.86621,-0.426564 1.11973,-0.693166 -0.0533,-0.959768 -2.0795,-0.853125 0.21328,-2.559381 -1.11972,0.426562 -1.43966,-2.932623 -0.74648,1.652934 -3.25255,1.492972 -0.2666,-2.666021 -3.57247,3.892391 -0.31992,-1.33301 -1.81289,2.292778 -1.65294,-1.173051 -2.6127,-0.639845 -1.75957,1.599613 0.2666,2.3461 1.22637,1.066408 z m 4.90534,-5.534789 -1.32313,0.719595 -0.0197,-0.08712 m -0.67671,-1.769901 1.06779,-0.0232 0.67317,0.51068 0.88209,1.76417 0.32498,1.183849"
         sodipodi:nodetypes="ccccccccccccccccccccccccccccccccccccccccccccc" /><path
         style="fill:#f9f7f7;fill-opacity:1;stroke:#000000;stroke-width:0.321;stroke-dasharray:none;stroke-opacity:1"
         id="path129"
         sodipodi:type="arc"
         sodipodi:cx="183.3423"
         sodipodi:cy="41.136711"
         sodipodi:rx="2.1107907"
         sodipodi:ry="2.0041642"
         sodipodi:start="0.037475209"
         sodipodi:end="0.034745446"
         sodipodi:open="true"
         sodipodi:arc-type="arc"
         d="m 185.45161,41.2118 a 2.1107907,2.0041642 0 0 1 -2.18695,1.927719 2.1107907,2.0041642 0 0 1 -2.03177,-2.075163 2.1107907,2.0041642 0 0 1 2.18418,-1.930551 2.1107907,2.0041642 0 0 1 2.03475,2.072528" /><path
         style="fill:#321b0d;fill-opacity:1;stroke:#000000;stroke-width:0.314131;stroke-dasharray:none;stroke-opacity:1"
         id="path130"
         sodipodi:type="arc"
         sodipodi:cx="183.82217"
         sodipodi:cy="41.270008"
         sodipodi:rx="0.87772125"
         sodipodi:ry="1.0643424"
         sodipodi:start="0.037475209"
         sodipodi:end="0.034745446"
         sodipodi:open="true"
         sodipodi:arc-type="arc"
         d="m 184.69928,41.309885 a 0.87772125,1.0643424 0 0 1 -0.90939,1.023745 0.87772125,1.0643424 0 0 1 -0.84486,-1.102047 0.87772125,1.0643424 0 0 1 0.90823,-1.025249 0.87772125,1.0643424 0 0 1 0.84611,1.100648" /><path
         style="fill:#fcf6f2;fill-opacity:1;stroke:#000000;stroke-width:0.3;stroke-dasharray:none;stroke-opacity:1"
         id="path131"
         sodipodi:type="arc"
         sodipodi:cx="183.95547"
         sodipodi:cy="41.030067"
         sodipodi:rx="0.50108188"
         sodipodi:ry="0.36777362"
         sodipodi:start="0.037475209"
         sodipodi:end="0.034745446"
         sodipodi:open="true"
         sodipodi:arc-type="arc"
         d="m 184.4562,41.043847 a 0.50108188,0.36777362 0 0 1 -0.51916,0.353745 0.50108188,0.36777362 0 0 1 -0.48232,-0.380802 0.50108188,0.36777362 0 0 1 0.5185,-0.354265 0.50108188,0.36777362 0 0 1 0.48303,0.380318" /><path
         style="fill:#ffffff;fill-opacity:1;stroke:#000000;stroke-width:0.3;stroke-dasharray:none;stroke-opacity:1"
         d="m 168.33259,48.948152 -1.06641,0.693166 2.50606,0.373242 2.71934,2.026176 2.18614,-0.373242 1.65293,-2.506059 z"
         id="path132" /><path
         id="path134"
         style="fill:#ffffff;fill-opacity:1;stroke:#000000;stroke-width:0.3;stroke-dasharray:none;stroke-opacity:1"
         d="m 168.97243,56.999536 1.06641,0.906449 2.93263,-1.066411 2.71934,-1.546291 -0.85313,-1.492972 z m -1.65293,-7.358218 -1.17305,0.906446 -0.5332,1.599613 0.63984,1.866217 1.70626,2.559378 1.27969,0.213283 5.54532,-2.825982 -2.29278,-1.812896 -2.98594,-2.239457 z" /><path
         style="fill:#a9711d;fill-opacity:1;stroke:#000000;stroke-width:0.3;stroke-dasharray:none;stroke-opacity:1"
         d="m 171.15857,57.746024 4.26564,2.292778 8.79787,3.039264 -0.21329,-2.346101 1.38634,-2.026173 0.69316,-0.266603 -5.65196,-1.492972 -4.6922,-1.866215 z"
         id="path135" /><path
         id="path140"
         style="fill:#a9711d;fill-opacity:1;stroke:#000000;stroke-width:0.3;stroke-dasharray:none;stroke-opacity:1"
         d="m 188.91427,63.877872 1.59962,0.533204 m -0.0533,-1.706253 1.75957,0.319921 m -1.75957,-1.812893 2.18614,0.10664 m -3.41251,-1.919536 h 2.71934 0.15996 m -5.492,-0.959766 2.93262,-0.373245 2.55938,1.173052 0.79981,2.239457 -0.53321,1.546291 -1.75957,1.333011 -2.13282,0.373245 -3.03926,-0.853128 -1.17305,-0.586526 -0.26661,-2.772661 1.49298,-2.026177 z"
         inkscape:label="hand" /><path
         style="fill:#ffffff;fill-opacity:1;stroke:#000000;stroke-width:0.3;stroke-dasharray:none;stroke-opacity:1"
         d="m 165.39997,52.4673 -1.8129,1.652934 -1.06641,2.6127 -0.7998,2.23946 0.15996,3.039263 3.19922,0.746485 h 4.6922 4.4256 l 5.17208,-0.853125 0.31992,-0.213283 -5.492,-2.186136 -3.03927,-1.866215 -1.27969,0.319921 -1.22637,-0.906446 0.42656,-0.159962 -1.11972,-0.319924 -1.65294,-2.879301 -0.69316,-1.492973 z"
         id="path141" /><path
         style="fill:#ffffff;fill-opacity:1;stroke:#000000;stroke-width:0.3;stroke-dasharray:none;stroke-opacity:1"
         d="m 162.52066,51.720815 1.17305,2.399419 -0.74648,1.226371 -0.47989,-0.319924 -1.86621,-2.559381 1.43965,-0.693166 3.30587,-1.119727 2.93262,-1.706255 -2.23946,1.439652 -0.31992,1.759575 -2.13282,1.866215 z"
         id="path142" /><path
         id="path144"
         style="fill:#ffffff;fill-opacity:1;stroke:#000000;stroke-width:0.3;stroke-dasharray:none;stroke-opacity:1"
         d="m 174.83768,53.746992 2.50606,-0.159962 v 1.972855 l -1.54629,-0.639844 z m 1.22637,-3.892391 1.97286,1.866214 1.11973,4.585555 -3.41251,-1.33301 -1.01309,-1.226368 -2.23946,-1.599615 2.6127,-0.639845 z" /><path
         id="path149"
         style="fill:#893005;fill-opacity:1;stroke:#000000;stroke-width:0.3;stroke-dasharray:none;stroke-opacity:1"
         d="m 162.04078,62.118297 0.37324,1.546294 1.22637,0.05332 h 0.95977 l 3.35919,0.266602 0.74648,0.693167 0.58653,-0.853129 3.4125,-0.05332 0.85313,0.799805 0.79981,-0.853126 3.83907,-0.159961 1.11973,-0.21328 0.5332,-1.386332 -5.97189,0.639847 -5.11876,0.10664 h -4.31895 z m 17.31021,0.752095 a 0.72807664,0.86137938 0 0 1 -0.75434,0.828524 0.72807664,0.86137938 0 0 1 -0.70082,-0.891894 0.72807664,0.86137938 0 0 1 0.75339,-0.829741 0.72807664,0.86137938 0 0 1 0.70185,0.890761 m -5.12429,0.665661 a 0.74929887,0.77595598 0 0 1 -0.77633,0.746359 0.74929887,0.77595598 0 0 1 -0.72125,-0.803445 0.74929887,0.77595598 0 0 1 0.77535,-0.747455 0.74929887,0.77595598 0 0 1 0.72231,0.802425 m -4.93501,0.190628 a 0.71982574,0.82646662 0 0 1 -0.7458,0.794942 0.71982574,0.82646662 0 0 1 -0.69288,-0.855745 0.71982574,0.82646662 0 0 1 0.74485,-0.79611 0.71982574,0.82646662 0 0 1 0.6939,0.854658 m -4.37231,-0.513277 a 0.66650534,0.58652472 0 0 1 -0.69056,0.564152 0.66650534,0.58652472 0 0 1 -0.64155,-0.607302 0.66650534,0.58652472 0 0 1 0.68968,-0.564982 0.66650534,0.58652472 0 0 1 0.64249,0.606532" /><path
         id="path151"
         style="fill:#040239;fill-opacity:1;stroke:#427bc7;stroke-width:0.3;stroke-dasharray:none;stroke-opacity:1"
         d="m 160.86773,67.503661 -0.79981,1.386332 12.05042,1.972855 0.0533,-1.279689 c -3.77429,-0.674196 -7.78584,-0.636636 -11.30391,-2.079498 z m 1.49297,-3.732429 -1.49297,3.999031 2.29278,0.533204 9.01115,1.492973 5.11876,-6.07853 -3.19922,-0.159962 -0.63985,1.333013 -0.63985,-0.906449 -3.51914,0.05332 -0.58653,0.853127 -1.06641,-0.906449 z" /><path
         id="path153"
         style="fill:#040239;fill-opacity:1;stroke:#427bc7;stroke-width:0.3;stroke-dasharray:none;stroke-opacity:1"
         d="m 182.67578,65.637446 0.85313,0.906447 -11.35725,4.585557 v -1.33301 l 10.77073,-3.999032 m -10.66409,4.105672 10.34416,-4.052353 -3.1459,-2.666021 -0.63985,0.426564 -1.49297,0.21328 z" /><path
         style="fill:#a9711d;fill-opacity:1;stroke:#000000;stroke-width:0.3;stroke-dasharray:none;stroke-opacity:1"
         d="m 161.02769,52.893864 -4.6922,2.079496 -5.43868,4.90548 2.6127,0.479883 2.77266,0.799806 1.33301,0.959768 0.85313,-1.652934 2.50606,-2.026174 1.33301,-0.426563 0.85313,-2.666021 z"
         id="path154" /><path
         id="path159"
         style="fill:#a9711d;fill-opacity:1;stroke:#000000;stroke-width:0.3;stroke-dasharray:none;stroke-opacity:1"
         d="m 148.97727,62.971424 0.10664,-0.10664 1.38634,-0.693166 0.63984,0.05332 -0.95976,-1.173048 m 2.39941,1.546293 h -0.69316 l -0.90645,0.959765 -0.58652,1.279692 m 3.51914,-1.599613 -1.06641,0.639845 -0.69316,1.066408 v 0.746488 m 4.21231,-4.425596 -3.1459,-0.159961 -0.69317,0.586523 v 0.746487 l 0.53321,0.319921 1.01308,0.426564 -0.2666,0.05332 h 0.85313 l 0.47988,0.106641 0.10665,1.22637 0.2666,1.066408 m -4.63888,-5.598643 -1.17305,0.906447 -1.01309,1.013087 v 1.706255 l 0.69317,1.119727 0.69316,0.106643 1.43965,0.959766 0.69317,0.05332 0.95977,0.533205 1.86621,-0.05332 2.55938,-2.452738 v -1.812896 l -1.49297,-1.119727 z" /><path
         style="fill:#a9711d;fill-opacity:1;stroke:#000000;stroke-width:0.3;stroke-dasharray:none;stroke-opacity:1"
         d="m 161.45425,69.209914 0.10664,0.799806 -0.15996,0.426564 -5.86524,2.132817 3.57247,3.839072 6.77169,-2.3461 2.18614,-2.346097 1.06641,-1.066409 z"
         id="path160" /><path
         style="fill:#ffffff;fill-opacity:1;stroke:#000000;stroke-width:0.3;stroke-dasharray:none;stroke-opacity:1"
         d="m 147.85754,75.128482 4.05236,3.892391 7.5715,-2.6127 -4.05235,-4.052353 z"
         id="path161" /><path
         id="path166"
         style="fill:#382929;fill-opacity:1;stroke:#000000;stroke-width:0.3;stroke-dasharray:none;stroke-opacity:1"
         d="m 149.19055,79.447435 -0.0533,0.586527 2.66602,0.106641 0.10664,-1.01309 z m -0.90644,-0.906445 0.5332,0.533204 2.66602,-0.213283 -0.85312,-0.639845 z m -4.58556,-2.23946 1.33301,1.812896 1.01309,2.026177 1.54629,1.279689 2.39942,1.812896 1.06641,0.10664 m 0.63985,-3.145907 h -2.93263 l -1.43965,1.066411 m 4.6922,-2.132819 0.21328,3.092585 -1.43965,1.386332 -1.91954,0.479883 -4.26563,-3.625787 -1.97286,-3.145906 0.21329,-1.01309 1.27968,-0.639844 3.41251,-0.853125 z"
         inkscape:label="shoes" /><path
         style="fill:#a9711d;fill-opacity:1;stroke:#000000;stroke-width:0.3;stroke-dasharray:none;stroke-opacity:1"
         d="m 176.38397,69.316557 3.09259,1.706253 1.22637,4.265633 6.39845,-0.586525 -1.06641,-5.438683 -3.09258,-2.186138 z"
         id="path167"
         sodipodi:nodetypes="ccccccc" /><path
         style="fill:#f6f6f6;fill-opacity:1;stroke:#000000;stroke-width:0.3;stroke-dasharray:none;stroke-opacity:1"
         d="m 180.96953,75.341765 6.13185,-0.799807 1.06641,4.638877 -6.61174,1.33301 z"
         id="path168" /><path
         id="path172"
         style="fill:#382929;fill-opacity:1;stroke:#000000;stroke-width:0.3;stroke-dasharray:none;stroke-opacity:1"
         d="m 191.52698,80.033962 -1.22638,0.639845 -0.85312,1.599612 0.47988,0.959769 0.21328,0.31992 m -0.37324,-3.94571 -0.90645,0.479883 -0.31992,1.546294 c 0,0 0.58653,0.373242 0.58653,0 0,-0.373243 0.47988,-1.439654 0.47988,-1.439654 l 1.06641,-0.21328 z m -1.65293,-0.479885 -1.33301,0.853128 -0.0533,1.279691 c 0,0 0.5332,0.266603 0.63984,0 0.10664,-0.266602 0.15996,-1.066411 0.15996,-1.066411 l 1.27969,-0.533204 z m -6.29181,1.492972 -0.21328,2.666021 6.13184,-0.10664 3.83908,0.586526 2.82598,-0.373243 0.69316,-1.22637 -2.66602,-1.972858 -4.15899,-1.066408 z" /></g></g></svg>
